{"glyphs":{"0":{"ha":843,"x_min":0,"x_max":0,"o":"m 421 -21 b 764 464 624 -21 764 176 b 421 949 764 751 624 949 b 81 464 218 949 81 751 b 421 -21 81 176 218 -21 z m 178 464 b 421 910 178 747 268 910 b 667 464 576 910 667 747 b 421 18 667 182 576 18 b 178 464 268 18 178 182 z "},"1":{"ha":460,"x_min":0,"x_max":0,"o":"m 60 19 l 60 0 l 428 0 l 428 19 b 301 129 344 22 301 36 l 301 949 l 283 949 b 60 819 228 874 160 843 l 60 800 l 214 800 l 214 129 b 60 19 211 36 171 22 z "},"2":{"ha":772,"x_min":0,"x_max":0,"o":"m 61 0 l 647 0 l 686 226 l 667 226 b 481 85 632 103 604 85 l 156 85 b 658 688 421 297 658 472 b 369 949 658 838 542 949 b 89 681 228 949 89 865 b 92 632 89 665 90 649 l 197 632 b 183 722 188 665 183 696 b 367 910 183 846 268 910 b 561 703 488 910 561 819 b 125 85 561 519 383 350 l 61 19 z "},"3":{"ha":765,"x_min":0,"x_max":0,"o":"m 372 -19 b 693 264 565 -19 693 100 b 428 518 693 390 610 518 b 346 510 403 518 375 515 l 693 908 l 693 928 l 338 928 b 132 943 268 928 199 929 l 92 675 l 111 675 b 335 843 144 807 204 843 l 578 843 l 274 492 l 272 471 b 351 478 300 475 326 478 b 596 247 518 478 596 374 b 374 19 596 107 504 19 b 169 208 249 19 169 103 b 174 254 169 224 171 239 l 76 254 b 75 224 75 243 75 233 b 372 -19 75 79 201 -19 z "},"4":{"ha":785,"x_min":0,"x_max":0,"o":"m 301 19 l 301 0 l 688 0 l 688 19 b 560 140 601 22 560 40 l 560 254 l 732 254 l 732 321 l 560 321 l 560 931 l 513 931 l 26 274 l 26 254 l 472 254 l 472 140 b 301 19 472 40 404 22 z m 110 321 l 472 811 l 472 321 z "},"5":{"ha":721,"x_min":0,"x_max":0,"o":"m 94 515 l 110 501 b 231 511 153 508 193 511 b 567 254 454 511 567 401 b 350 21 567 111 479 21 b 153 210 228 21 153 94 b 156 254 153 224 153 239 l 63 254 b 61 224 61 243 61 233 b 353 -19 61 71 176 -19 b 664 265 538 -19 664 94 b 300 574 664 456 526 574 b 143 557 251 574 199 568 l 204 843 l 640 843 l 640 928 l 182 928 z "},"6":{"ha":813,"x_min":0,"x_max":0,"o":"m 417 -21 b 725 288 596 -21 725 106 b 429 579 725 456 610 579 b 172 400 299 579 207 518 b 171 468 171 424 171 446 b 435 910 171 810 319 910 b 621 696 528 910 629 850 l 725 696 b 449 949 715 886 567 949 b 74 460 314 949 74 865 b 417 -21 74 157 197 -21 z m 193 289 b 406 524 193 435 275 524 b 629 275 538 524 629 429 b 415 18 629 125 540 18 b 193 289 282 18 193 138 z "},"7":{"ha":671,"x_min":0,"x_max":0,"o":"m 653 908 l 653 928 l 283 928 b 76 943 213 928 143 929 l 38 675 l 57 675 b 279 843 90 807 150 843 l 569 843 b 235 76 393 667 235 408 b 238 0 235 51 236 26 l 340 0 b 338 78 339 26 338 53 b 653 908 338 474 522 767 z "},"8":{"ha":779,"x_min":0,"x_max":0,"o":"m 388 -21 b 704 226 576 -21 704 81 b 486 494 704 383 601 447 b 685 722 625 551 685 628 b 389 949 685 853 558 949 b 94 714 221 949 94 851 b 281 468 94 578 179 514 b 74 218 142 410 74 321 b 388 -21 74 75 208 -21 z m 154 233 b 318 453 154 304 188 386 b 619 200 461 394 619 358 b 390 18 619 96 524 18 b 154 233 254 18 154 99 z m 179 740 b 389 913 179 836 265 913 b 604 708 515 913 604 835 b 446 510 604 650 586 576 b 179 740 314 560 179 599 z "},"9":{"ha":813,"x_min":0,"x_max":0,"o":"m 396 949 b 88 640 217 949 88 822 b 383 349 88 472 203 349 b 640 528 514 349 606 410 b 642 460 642 504 642 482 b 378 18 642 118 493 18 b 192 232 285 18 183 78 l 88 232 b 364 -21 97 42 246 -21 b 739 468 499 -21 739 63 b 396 949 739 771 615 949 z m 183 653 b 397 910 183 803 272 910 b 619 639 531 910 619 790 b 407 404 619 493 538 404 b 183 653 275 404 183 499 z "},"\r":{"ha":833,"x_min":0,"x_max":0,"o":""}," ":{"ha":231,"x_min":0,"x_max":0,"o":""},"A":{"ha":979,"x_min":0,"x_max":0,"o":"m 824 146 l 504 949 l 485 949 l 165 144 b 4 19 129 56 94 22 l 4 0 l 299 0 l 299 19 b 190 82 225 21 190 40 b 206 143 190 99 196 119 l 276 322 l 660 322 l 732 140 b 746 85 740 118 746 100 b 649 19 746 42 713 21 l 649 0 l 975 0 l 975 19 b 824 146 896 24 860 56 z m 292 361 l 468 808 l 644 361 z "},"Á":{"ha":979,"x_min":0,"x_max":0,"o":"m 824 146 l 504 949 l 485 949 l 165 144 b 4 19 129 56 94 22 l 4 0 l 299 0 l 299 19 b 190 82 225 21 190 40 b 206 143 190 99 196 119 l 276 322 l 660 322 l 732 140 b 746 85 740 118 746 100 b 649 19 746 42 713 21 l 649 0 l 975 0 l 975 19 b 824 146 896 24 860 56 z m 292 361 l 468 808 l 644 361 z m 471 1032 l 490 1032 l 747 1204 l 617 1204 z "},"Ă":{"ha":979,"x_min":0,"x_max":0,"o":"m 824 146 l 504 949 l 485 949 l 165 144 b 4 19 129 56 94 22 l 4 0 l 299 0 l 299 19 b 190 82 225 21 190 40 b 206 143 190 99 196 119 l 276 322 l 660 322 l 732 140 b 746 85 740 118 746 100 b 649 19 746 42 713 21 l 649 0 l 975 0 l 975 19 b 824 146 896 24 860 56 z m 292 361 l 468 808 l 644 361 z m 333 1206 b 500 1038 335 1101 390 1038 b 667 1206 610 1038 665 1101 l 651 1206 b 500 1097 644 1133 586 1097 b 350 1206 414 1097 357 1133 z "},"Â":{"ha":979,"x_min":0,"x_max":0,"o":"m 824 146 l 504 949 l 485 949 l 165 144 b 4 19 129 56 94 22 l 4 0 l 299 0 l 299 19 b 190 82 225 21 190 40 b 206 143 190 99 196 119 l 276 322 l 660 322 l 732 140 b 746 85 740 118 746 100 b 649 19 746 42 713 21 l 649 0 l 975 0 l 975 19 b 824 146 896 24 860 56 z m 292 361 l 468 808 l 644 361 z m 303 1047 l 322 1047 l 501 1144 l 679 1047 l 699 1047 l 550 1204 l 456 1204 z "},"Ä":{"ha":979,"x_min":0,"x_max":0,"o":"m 824 146 l 504 949 l 485 949 l 165 144 b 4 19 129 56 94 22 l 4 0 l 299 0 l 299 19 b 190 82 225 21 190 40 b 206 143 190 99 196 119 l 276 322 l 660 322 l 732 140 b 746 85 740 118 746 100 b 649 19 746 42 713 21 l 649 0 l 975 0 l 975 19 b 824 146 896 24 860 56 z m 292 361 l 468 808 l 644 361 z m 326 1126 b 396 1061 326 1090 357 1061 b 461 1126 432 1061 461 1090 b 396 1193 461 1164 432 1193 b 326 1126 357 1193 326 1164 z m 543 1126 b 613 1061 543 1090 574 1061 b 678 1126 649 1061 678 1090 b 613 1193 678 1164 649 1193 b 543 1126 574 1193 543 1164 z "},"À":{"ha":979,"x_min":0,"x_max":0,"o":"m 824 146 l 504 949 l 485 949 l 165 144 b 4 19 129 56 94 22 l 4 0 l 299 0 l 299 19 b 190 82 225 21 190 40 b 206 143 190 99 196 119 l 276 322 l 660 322 l 732 140 b 746 85 740 118 746 100 b 649 19 746 42 713 21 l 649 0 l 975 0 l 975 19 b 824 146 896 24 860 56 z m 268 1203 l 525 1031 l 544 1031 l 399 1203 z m 292 361 l 468 808 l 644 361 z "},"Ā":{"ha":979,"x_min":0,"x_max":0,"o":"m 824 146 l 504 949 l 485 949 l 165 144 b 4 19 129 56 94 22 l 4 0 l 299 0 l 299 19 b 190 82 225 21 190 40 b 206 143 190 99 196 119 l 276 322 l 660 322 l 732 140 b 746 85 740 118 746 100 b 649 19 746 42 713 21 l 649 0 l 975 0 l 975 19 b 824 146 896 24 860 56 z m 292 361 l 468 808 l 644 361 z m 324 1088 l 674 1088 l 674 1121 l 324 1121 z "},"Ą":{"ha":979,"x_min":0,"x_max":0,"o":"m 824 146 l 504 949 l 485 949 l 165 144 b 4 19 129 56 94 22 l 4 0 l 299 0 l 299 19 b 190 82 225 21 190 40 b 206 143 190 99 196 119 l 276 322 l 660 322 l 732 140 b 746 85 740 118 746 100 b 649 19 746 42 713 21 l 649 0 l 776 0 b 626 -189 683 -47 626 -115 b 750 -294 626 -251 674 -294 b 879 -194 801 -294 854 -254 l 868 -189 b 767 -251 839 -228 799 -251 b 690 -174 724 -251 690 -221 b 808 0 690 -111 736 -50 l 975 0 l 975 19 b 824 146 896 24 860 56 z m 292 361 l 468 808 l 644 361 z "},"Å":{"ha":979,"x_min":0,"x_max":0,"o":"m 824 146 l 504 949 l 485 949 l 165 144 b 4 19 129 56 94 22 l 4 0 l 299 0 l 299 19 b 190 82 225 21 190 40 b 206 143 190 99 196 119 l 276 322 l 660 322 l 732 140 b 746 85 740 118 746 100 b 649 19 746 42 713 21 l 649 0 l 975 0 l 975 19 b 824 146 896 24 860 56 z m 292 361 l 468 808 l 644 361 z m 374 1153 b 499 1035 374 1085 426 1035 b 624 1153 571 1035 624 1085 b 499 1269 624 1219 571 1269 b 374 1153 426 1269 374 1219 z m 407 1153 b 499 1243 407 1206 447 1243 b 590 1153 551 1243 590 1206 b 499 1063 590 1100 551 1063 b 407 1153 447 1063 407 1100 z "},"Ǻ":{"ha":979,"x_min":0,"x_max":0,"o":"m 824 146 l 504 949 l 485 949 l 165 144 b 4 19 129 56 94 22 l 4 0 l 299 0 l 299 19 b 190 82 225 21 190 40 b 206 143 190 99 196 119 l 276 322 l 660 322 l 732 140 b 746 85 740 118 746 100 b 649 19 746 42 713 21 l 649 0 l 975 0 l 975 19 b 824 146 896 24 860 56 z m 292 361 l 468 808 l 644 361 z m 374 1153 b 499 1035 374 1085 426 1035 b 624 1153 571 1035 624 1085 b 511 1269 624 1215 578 1264 l 761 1436 l 631 1436 l 489 1269 b 374 1153 422 1265 374 1217 z m 407 1153 b 499 1243 407 1206 447 1243 b 590 1153 551 1243 590 1206 b 499 1063 590 1100 551 1063 b 407 1153 447 1063 407 1100 z "},"Ã":{"ha":979,"x_min":0,"x_max":0,"o":"m 824 146 l 504 949 l 485 949 l 165 144 b 4 19 129 56 94 22 l 4 0 l 299 0 l 299 19 b 190 82 225 21 190 40 b 206 143 190 99 196 119 l 276 322 l 660 322 l 732 140 b 746 85 740 118 746 100 b 649 19 746 42 713 21 l 649 0 l 975 0 l 975 19 b 824 146 896 24 860 56 z m 292 361 l 468 808 l 644 361 z m 322 1103 l 336 1103 b 393 1175 342 1163 361 1175 b 596 1099 451 1175 529 1099 b 676 1201 651 1099 676 1135 l 676 1229 l 663 1228 b 607 1156 657 1169 638 1156 b 404 1233 546 1156 472 1233 b 322 1131 347 1233 322 1197 z "},"Æ":{"ha":1393,"x_min":0,"x_max":0,"o":"m 4 19 l 4 0 l 296 0 l 296 19 b 182 72 211 26 182 44 b 213 143 182 92 196 115 l 324 322 l 663 322 l 663 132 b 536 19 663 39 618 22 l 536 0 l 1126 0 b 1253 -10 1175 0 1214 -4 l 1292 235 l 1272 235 b 1063 39 1239 104 1192 39 l 828 39 b 749 132 772 39 749 64 l 749 457 l 994 457 b 1115 328 1089 457 1113 415 l 1135 328 l 1135 626 l 1115 626 b 994 496 1113 536 1089 496 l 749 496 l 749 889 l 1044 889 b 1254 693 1174 889 1221 824 l 1274 693 l 1235 938 b 1108 928 1196 932 1157 928 l 514 928 l 514 908 b 606 872 576 906 606 897 b 569 793 606 854 593 829 l 169 144 b 4 19 119 65 74 31 z m 347 361 l 663 871 l 663 361 z "},"Ǽ":{"ha":1393,"x_min":0,"x_max":0,"o":"m 4 19 l 4 0 l 296 0 l 296 19 b 182 72 211 26 182 44 b 213 143 182 92 196 115 l 324 322 l 663 322 l 663 132 b 536 19 663 39 618 22 l 536 0 l 1126 0 b 1253 -10 1175 0 1214 -4 l 1292 235 l 1272 235 b 1063 39 1239 104 1192 39 l 828 39 b 749 132 772 39 749 64 l 749 457 l 994 457 b 1115 328 1089 457 1113 415 l 1135 328 l 1135 626 l 1115 626 b 994 496 1113 536 1089 496 l 749 496 l 749 889 l 1044 889 b 1254 693 1174 889 1221 824 l 1274 693 l 1235 938 b 1108 928 1196 932 1157 928 l 514 928 l 514 908 b 606 872 576 906 606 897 b 569 793 606 854 593 829 l 169 144 b 4 19 119 65 74 31 z m 347 361 l 663 871 l 663 361 z m 864 1032 l 883 1032 l 1140 1204 l 1010 1204 z "},"B":{"ha":890,"x_min":0,"x_max":0,"o":"m 60 19 l 60 0 l 492 0 b 817 249 696 0 817 94 b 514 485 817 388 704 475 b 754 710 663 501 754 588 b 429 928 754 846 633 928 l 60 928 l 60 908 b 186 800 143 906 186 890 l 186 129 b 60 19 186 36 143 22 z m 274 128 l 274 463 l 443 463 b 719 249 614 463 719 382 b 478 39 719 118 628 39 l 401 39 b 274 128 306 39 274 69 z m 274 501 l 274 889 l 408 889 b 656 710 564 889 656 821 b 438 501 656 579 575 501 z "},"C":{"ha":924,"x_min":0,"x_max":0,"o":"m 776 690 l 796 690 l 804 867 b 503 949 726 921 618 949 b 74 467 260 949 75 756 b 503 -21 74 181 246 -21 b 864 278 669 -21 817 83 l 846 282 b 533 53 796 135 678 53 b 172 471 326 53 172 226 b 506 910 172 747 300 910 b 776 690 654 910 758 828 z "},"Ć":{"ha":924,"x_min":0,"x_max":0,"o":"m 776 690 l 796 690 l 804 867 b 503 949 726 921 618 949 b 74 467 260 949 75 756 b 503 -21 74 181 246 -21 b 864 278 669 -21 817 83 l 846 282 b 533 53 796 135 678 53 b 172 471 326 53 172 226 b 506 910 172 747 300 910 b 776 690 654 910 758 828 z m 485 1032 l 504 1032 l 761 1204 l 631 1204 z "},"Č":{"ha":924,"x_min":0,"x_max":0,"o":"m 776 690 l 796 690 l 804 867 b 503 949 726 921 618 949 b 74 467 260 949 75 756 b 503 -21 74 181 246 -21 b 864 278 669 -21 817 83 l 846 282 b 533 53 796 135 678 53 b 172 471 326 53 172 226 b 506 910 172 747 300 910 b 776 690 654 910 758 828 z m 317 1204 l 469 1047 l 564 1047 l 713 1204 l 693 1204 l 515 1107 l 336 1204 z "},"Ç":{"ha":924,"x_min":0,"x_max":0,"o":"m 776 690 l 796 690 l 804 867 b 503 949 726 921 618 949 b 74 467 260 949 75 756 b 503 -21 74 181 246 -21 l 504 -21 l 464 -132 b 557 -203 532 -146 557 -168 b 485 -262 557 -242 525 -262 b 410 -240 461 -262 436 -256 l 401 -251 b 513 -294 436 -282 472 -294 b 629 -193 582 -294 629 -254 b 507 -83 629 -133 582 -99 l 529 -19 b 864 278 685 -10 819 93 l 846 282 b 533 53 796 135 678 53 b 172 471 326 53 172 226 b 506 910 172 747 300 910 b 776 690 654 910 758 828 z "},"Ĉ":{"ha":924,"x_min":0,"x_max":0,"o":"m 776 690 l 796 690 l 804 867 b 503 949 726 921 618 949 b 74 467 260 949 75 756 b 503 -21 74 181 246 -21 b 864 278 669 -21 817 83 l 846 282 b 533 53 796 135 678 53 b 172 471 326 53 172 226 b 506 910 172 747 300 910 b 776 690 654 910 758 828 z m 318 1047 l 338 1047 l 517 1144 l 694 1047 l 714 1047 l 565 1204 l 471 1204 z "},"Ċ":{"ha":924,"x_min":0,"x_max":0,"o":"m 776 690 l 796 690 l 804 867 b 503 949 726 921 618 949 b 74 467 260 949 75 756 b 503 -21 74 181 246 -21 b 864 278 669 -21 817 83 l 846 282 b 533 53 796 135 678 53 b 172 471 326 53 172 226 b 506 910 172 747 300 910 b 776 690 654 910 758 828 z m 447 1150 b 517 1085 447 1114 478 1085 b 581 1150 553 1085 581 1114 b 517 1217 581 1188 553 1217 b 447 1150 478 1217 447 1188 z "},"D":{"ha":999,"x_min":0,"x_max":0,"o":"m 60 19 l 60 0 l 463 0 b 925 464 740 0 925 186 b 442 928 925 742 731 928 l 60 928 l 60 908 b 186 800 143 906 186 890 l 186 129 b 60 19 186 36 143 22 z m 274 128 l 274 889 l 418 889 b 826 464 664 889 826 718 b 463 39 826 210 681 39 l 394 39 b 274 128 300 39 274 60 z "},"Ð":{"ha":999,"x_min":0,"x_max":0,"o":"m 60 19 l 60 0 l 463 0 b 925 464 740 0 925 186 b 442 928 925 742 731 928 l 60 928 l 60 908 b 186 800 143 906 186 890 l 186 481 l 31 481 l 31 447 l 186 447 l 186 129 b 60 19 186 36 143 22 z m 274 128 l 274 447 l 429 447 l 429 481 l 274 481 l 274 889 l 418 889 b 826 464 664 889 826 718 b 463 39 826 210 681 39 l 394 39 b 274 128 300 39 274 60 z "},"Ď":{"ha":999,"x_min":0,"x_max":0,"o":"m 60 19 l 60 0 l 463 0 b 925 464 740 0 925 186 b 442 928 925 742 731 928 l 60 928 l 60 908 b 186 800 143 906 186 890 l 186 129 b 60 19 186 36 143 22 z m 228 1204 l 381 1047 l 475 1047 l 624 1204 l 604 1204 l 426 1107 l 247 1204 z m 274 128 l 274 889 l 418 889 b 826 464 664 889 826 718 b 463 39 826 210 681 39 l 394 39 b 274 128 300 39 274 60 z "},"Đ":{"ha":999,"x_min":0,"x_max":0,"o":"m 60 19 l 60 0 l 463 0 b 925 464 740 0 925 186 b 442 928 925 742 731 928 l 60 928 l 60 908 b 186 800 143 906 186 890 l 186 481 l 31 481 l 31 447 l 186 447 l 186 129 b 60 19 186 36 143 22 z m 274 128 l 274 447 l 429 447 l 429 481 l 274 481 l 274 889 l 418 889 b 826 464 664 889 826 718 b 463 39 826 210 681 39 l 394 39 b 274 128 300 39 274 60 z "},"E":{"ha":918,"x_min":0,"x_max":0,"o":"m 796 235 b 586 39 763 104 715 39 l 351 39 b 274 132 296 39 274 64 l 274 457 l 513 457 b 640 328 611 457 636 415 l 660 328 l 660 626 l 640 626 b 513 496 636 536 611 496 l 274 496 l 274 889 l 568 889 b 779 693 699 889 746 824 l 799 693 l 760 938 b 632 928 721 932 682 928 l 60 928 l 60 908 b 186 797 142 906 186 888 l 186 132 b 60 19 186 39 142 22 l 60 0 l 650 0 b 776 -10 699 0 738 -4 l 815 235 z "},"É":{"ha":918,"x_min":0,"x_max":0,"o":"m 796 235 b 586 39 763 104 715 39 l 351 39 b 274 132 296 39 274 64 l 274 457 l 513 457 b 640 328 611 457 636 415 l 660 328 l 660 626 l 640 626 b 513 496 636 536 611 496 l 274 496 l 274 889 l 568 889 b 779 693 699 889 746 824 l 799 693 l 760 938 b 632 928 721 932 682 928 l 60 928 l 60 908 b 186 797 142 906 186 888 l 186 132 b 60 19 186 39 142 22 l 60 0 l 650 0 b 776 -10 699 0 738 -4 l 815 235 z m 433 1032 l 453 1032 l 710 1204 l 579 1204 z "},"Ĕ":{"ha":918,"x_min":0,"x_max":0,"o":"m 796 235 b 586 39 763 104 715 39 l 351 39 b 274 132 296 39 274 64 l 274 457 l 513 457 b 640 328 611 457 636 415 l 660 328 l 660 626 l 640 626 b 513 496 636 536 611 496 l 274 496 l 274 889 l 568 889 b 779 693 699 889 746 824 l 799 693 l 760 938 b 632 928 721 932 682 928 l 60 928 l 60 908 b 186 797 142 906 186 888 l 186 132 b 60 19 186 39 142 22 l 60 0 l 650 0 b 776 -10 699 0 738 -4 l 815 235 z m 296 1206 b 463 1038 297 1101 353 1038 b 629 1206 572 1038 628 1101 l 614 1206 b 463 1097 607 1133 549 1097 b 313 1206 376 1097 319 1133 z "},"Ě":{"ha":918,"x_min":0,"x_max":0,"o":"m 796 235 b 586 39 763 104 715 39 l 351 39 b 274 132 296 39 274 64 l 274 457 l 513 457 b 640 328 611 457 636 415 l 660 328 l 660 626 l 640 626 b 513 496 636 536 611 496 l 274 496 l 274 889 l 568 889 b 779 693 699 889 746 824 l 799 693 l 760 938 b 632 928 721 932 682 928 l 60 928 l 60 908 b 186 797 142 906 186 888 l 186 132 b 60 19 186 39 142 22 l 60 0 l 650 0 b 776 -10 699 0 738 -4 l 815 235 z m 264 1204 l 417 1047 l 511 1047 l 660 1204 l 640 1204 l 463 1107 l 283 1204 z "},"Ê":{"ha":918,"x_min":0,"x_max":0,"o":"m 796 235 b 586 39 763 104 715 39 l 351 39 b 274 132 296 39 274 64 l 274 457 l 513 457 b 640 328 611 457 636 415 l 660 328 l 660 626 l 640 626 b 513 496 636 536 611 496 l 274 496 l 274 889 l 568 889 b 779 693 699 889 746 824 l 799 693 l 760 938 b 632 928 721 932 682 928 l 60 928 l 60 908 b 186 797 142 906 186 888 l 186 132 b 60 19 186 39 142 22 l 60 0 l 650 0 b 776 -10 699 0 738 -4 l 815 235 z m 265 1047 l 285 1047 l 464 1144 l 642 1047 l 661 1047 l 513 1204 l 418 1204 z "},"Ë":{"ha":918,"x_min":0,"x_max":0,"o":"m 796 235 b 586 39 763 104 715 39 l 351 39 b 274 132 296 39 274 64 l 274 457 l 513 457 b 640 328 611 457 636 415 l 660 328 l 660 626 l 640 626 b 513 496 636 536 611 496 l 274 496 l 274 889 l 568 889 b 779 693 699 889 746 824 l 799 693 l 760 938 b 632 928 721 932 682 928 l 60 928 l 60 908 b 186 797 142 906 186 888 l 186 132 b 60 19 186 39 142 22 l 60 0 l 650 0 b 776 -10 699 0 738 -4 l 815 235 z m 289 1126 b 358 1061 289 1090 319 1061 b 424 1126 394 1061 424 1090 b 358 1193 424 1164 394 1193 b 289 1126 319 1193 289 1164 z m 506 1126 b 575 1061 506 1090 536 1061 b 640 1126 611 1061 640 1090 b 575 1193 640 1164 611 1193 b 506 1126 536 1193 506 1164 z "},"Ė":{"ha":918,"x_min":0,"x_max":0,"o":"m 796 235 b 586 39 763 104 715 39 l 351 39 b 274 132 296 39 274 64 l 274 457 l 513 457 b 640 328 611 457 636 415 l 660 328 l 660 626 l 640 626 b 513 496 636 536 611 496 l 274 496 l 274 889 l 568 889 b 779 693 699 889 746 824 l 799 693 l 760 938 b 632 928 721 932 682 928 l 60 928 l 60 908 b 186 797 142 906 186 888 l 186 132 b 60 19 186 39 142 22 l 60 0 l 650 0 b 776 -10 699 0 738 -4 l 815 235 z m 396 1150 b 465 1085 396 1114 426 1085 b 529 1150 501 1085 529 1114 b 465 1217 529 1188 501 1217 b 396 1150 426 1217 396 1188 z "},"È":{"ha":918,"x_min":0,"x_max":0,"o":"m 796 235 b 586 39 763 104 715 39 l 351 39 b 274 132 296 39 274 64 l 274 457 l 513 457 b 640 328 611 457 636 415 l 660 328 l 660 626 l 640 626 b 513 496 636 536 611 496 l 274 496 l 274 889 l 568 889 b 779 693 699 889 746 824 l 799 693 l 760 938 b 632 928 721 932 682 928 l 60 928 l 60 908 b 186 797 142 906 186 888 l 186 132 b 60 19 186 39 142 22 l 60 0 l 650 0 b 776 -10 699 0 738 -4 l 815 235 z m 232 1203 l 489 1031 l 508 1031 l 363 1203 z "},"Ē":{"ha":918,"x_min":0,"x_max":0,"o":"m 796 235 b 586 39 763 104 715 39 l 351 39 b 274 132 296 39 274 64 l 274 457 l 513 457 b 640 328 611 457 636 415 l 660 328 l 660 626 l 640 626 b 513 496 636 536 611 496 l 274 496 l 274 889 l 568 889 b 779 693 699 889 746 824 l 799 693 l 760 938 b 632 928 721 932 682 928 l 60 928 l 60 908 b 186 797 142 906 186 888 l 186 132 b 60 19 186 39 142 22 l 60 0 l 650 0 b 776 -10 699 0 738 -4 l 815 235 z m 288 1088 l 638 1088 l 638 1121 l 288 1121 z "},"Ę":{"ha":918,"x_min":0,"x_max":0,"o":"m 796 235 b 586 39 763 104 715 39 l 351 39 b 274 132 296 39 274 64 l 274 457 l 513 457 b 640 328 611 457 636 415 l 660 328 l 660 626 l 640 626 b 513 496 636 536 611 496 l 274 496 l 274 889 l 568 889 b 779 693 699 889 746 824 l 799 693 l 760 938 b 632 928 721 932 682 928 l 60 928 l 60 908 b 186 797 142 906 186 888 l 186 132 b 60 19 186 39 142 22 l 60 0 l 561 0 b 411 -189 468 -47 411 -115 b 535 -294 411 -251 458 -294 b 664 -194 586 -294 639 -254 l 653 -189 b 551 -251 624 -228 583 -251 b 475 -174 508 -251 475 -221 b 593 0 475 -111 521 -50 l 650 0 b 776 -10 699 0 738 -4 l 815 235 z "},"F":{"ha":879,"x_min":0,"x_max":0,"o":"m 758 938 b 631 928 719 932 681 928 l 60 928 l 60 908 b 186 800 143 906 186 890 l 186 129 b 60 19 186 36 143 22 l 60 0 l 442 0 l 442 19 b 274 131 317 22 274 36 l 274 458 l 513 458 b 640 328 611 458 636 415 l 660 328 l 660 625 l 640 625 b 513 493 636 535 611 493 l 274 493 l 274 889 l 567 889 b 778 693 697 889 744 824 l 797 693 z "},"G":{"ha":990,"x_min":0,"x_max":0,"o":"m 526 -19 b 865 138 685 -19 806 54 l 865 335 b 965 447 865 407 901 444 l 965 467 l 643 467 l 643 447 b 776 335 744 444 776 413 l 776 103 b 536 19 721 44 632 19 b 172 467 315 19 172 189 b 535 910 172 743 314 910 b 813 690 686 910 794 826 l 832 690 l 839 867 b 532 949 763 918 647 949 b 74 461 272 949 75 749 b 526 -19 74 178 247 -19 z "},"Ğ":{"ha":990,"x_min":0,"x_max":0,"o":"m 526 -19 b 865 138 685 -19 806 54 l 865 335 b 965 447 865 407 901 444 l 965 467 l 643 467 l 643 447 b 776 335 744 444 776 413 l 776 103 b 536 19 721 44 632 19 b 172 467 315 19 172 189 b 535 910 172 743 314 910 b 813 690 686 910 794 826 l 832 690 l 839 867 b 532 949 763 918 647 949 b 74 461 272 949 75 749 b 526 -19 74 178 247 -19 z m 367 1206 b 533 1038 368 1101 424 1038 b 700 1206 643 1038 699 1101 l 685 1206 b 533 1097 678 1133 619 1097 b 383 1206 447 1097 390 1133 z "},"Ĝ":{"ha":990,"x_min":0,"x_max":0,"o":"m 526 -19 b 865 138 685 -19 806 54 l 865 335 b 965 447 865 407 901 444 l 965 467 l 643 467 l 643 447 b 776 335 744 444 776 413 l 776 103 b 536 19 721 44 632 19 b 172 467 315 19 172 189 b 535 910 172 743 314 910 b 813 690 686 910 794 826 l 832 690 l 839 867 b 532 949 763 918 647 949 b 74 461 272 949 75 749 b 526 -19 74 178 247 -19 z m 336 1047 l 356 1047 l 535 1144 l 713 1047 l 732 1047 l 583 1204 l 489 1204 z "},"Ģ":{"ha":990,"x_min":0,"x_max":0,"o":"m 526 -19 b 865 138 685 -19 806 54 l 865 335 b 965 447 865 407 901 444 l 965 467 l 643 467 l 643 447 b 776 335 744 444 776 413 l 776 103 b 536 19 721 44 632 19 b 172 467 315 19 172 189 b 535 910 172 743 314 910 b 813 690 686 910 794 826 l 832 690 l 839 867 b 532 949 763 918 647 949 b 74 461 272 949 75 749 b 526 -19 74 178 247 -19 z m 461 -178 b 522 -240 461 -211 488 -240 b 551 -233 531 -240 542 -237 b 469 -329 547 -290 514 -321 l 469 -347 b 593 -206 542 -337 593 -279 b 525 -114 593 -150 571 -114 b 461 -178 488 -114 461 -139 z "},"Ġ":{"ha":990,"x_min":0,"x_max":0,"o":"m 526 -19 b 865 138 685 -19 806 54 l 865 335 b 965 447 865 407 901 444 l 965 467 l 643 467 l 643 447 b 776 335 744 444 776 413 l 776 103 b 536 19 721 44 632 19 b 172 467 315 19 172 189 b 535 910 172 743 314 910 b 813 690 686 910 794 826 l 832 690 l 839 867 b 532 949 763 918 647 949 b 74 461 272 949 75 749 b 526 -19 74 178 247 -19 z m 465 1150 b 535 1085 465 1114 496 1085 b 599 1150 571 1085 599 1114 b 535 1217 599 1188 571 1217 b 465 1150 496 1217 465 1188 z "},"H":{"ha":1067,"x_min":0,"x_max":0,"o":"m 667 19 l 667 0 l 1007 0 l 1007 19 b 881 132 924 22 881 38 l 881 797 b 1007 908 881 889 924 906 l 1007 928 l 667 928 l 667 908 b 793 797 750 906 793 889 l 793 496 l 274 496 l 274 797 b 400 908 274 889 317 906 l 400 928 l 60 928 l 60 908 b 186 797 143 906 186 889 l 186 132 b 60 19 186 38 143 22 l 60 0 l 400 0 l 400 19 b 274 132 317 22 274 38 l 274 457 l 793 457 l 793 132 b 667 19 793 38 750 22 z "},"Ħ":{"ha":1067,"x_min":0,"x_max":0,"o":"m 667 19 l 667 0 l 1007 0 l 1007 19 b 881 132 924 22 881 38 l 881 678 l 971 678 l 971 711 l 881 711 l 881 797 b 1007 908 881 889 924 906 l 1007 928 l 667 928 l 667 908 b 793 797 750 906 793 889 l 793 711 l 274 711 l 274 797 b 400 908 274 889 317 906 l 400 928 l 60 928 l 60 908 b 186 797 143 906 186 889 l 186 711 l 118 711 l 118 678 l 186 678 l 186 132 b 60 19 186 38 143 22 l 60 0 l 400 0 l 400 19 b 274 132 317 22 274 38 l 274 457 l 793 457 l 793 132 b 667 19 793 38 750 22 z m 274 496 l 274 678 l 793 678 l 793 496 z "},"Ĥ":{"ha":1067,"x_min":0,"x_max":0,"o":"m 667 19 l 667 0 l 1007 0 l 1007 19 b 881 132 924 22 881 38 l 881 797 b 1007 908 881 889 924 906 l 1007 928 l 667 928 l 667 908 b 793 797 750 906 793 889 l 793 496 l 274 496 l 274 797 b 400 908 274 889 317 906 l 400 928 l 60 928 l 60 908 b 186 797 143 906 186 889 l 186 132 b 60 19 186 38 143 22 l 60 0 l 400 0 l 400 19 b 274 132 317 22 274 38 l 274 457 l 793 457 l 793 132 b 667 19 793 38 750 22 z m 349 1047 l 368 1047 l 547 1144 l 725 1047 l 744 1047 l 596 1204 l 501 1204 z "},"I":{"ha":474,"x_min":0,"x_max":0,"o":"m 67 19 l 67 0 l 407 0 l 407 19 b 281 132 324 22 281 38 l 281 797 b 407 908 281 889 324 906 l 407 928 l 67 928 l 67 908 b 193 797 150 906 193 889 l 193 132 b 67 19 193 38 150 22 z "},"Ĳ":{"ha":1174,"x_min":0,"x_max":0,"o":"m 67 19 l 67 0 l 407 0 l 407 19 b 281 132 324 22 281 38 l 281 797 b 407 908 281 889 324 906 l 407 928 l 67 928 l 67 908 b 193 797 150 906 193 889 l 193 132 b 67 19 193 38 150 22 z m 507 236 b 754 -21 497 79 597 -21 b 1004 256 907 -21 1004 68 l 1004 799 b 1128 908 1004 885 1046 906 l 1128 928 l 789 928 l 789 908 b 917 799 875 906 917 885 l 917 228 b 756 18 917 81 853 18 b 597 179 664 18 597 71 b 603 236 597 197 599 215 z "},"Í":{"ha":474,"x_min":0,"x_max":0,"o":"m 67 19 l 67 0 l 407 0 l 407 19 b 281 132 324 22 281 38 l 281 797 b 407 908 281 889 324 906 l 407 928 l 67 928 l 67 908 b 193 797 150 906 193 889 l 193 132 b 67 19 193 38 150 22 z m 210 1032 l 229 1032 l 486 1204 l 356 1204 z "},"Ĭ":{"ha":474,"x_min":0,"x_max":0,"o":"m 67 19 l 67 0 l 407 0 l 407 19 b 281 132 324 22 281 38 l 281 797 b 407 908 281 889 324 906 l 407 928 l 67 928 l 67 908 b 193 797 150 906 193 889 l 193 132 b 67 19 193 38 150 22 z m 72 1206 b 239 1038 74 1101 129 1038 b 406 1206 349 1038 404 1101 l 390 1206 b 239 1097 383 1133 325 1097 b 89 1206 153 1097 96 1133 z "},"Î":{"ha":474,"x_min":0,"x_max":0,"o":"m 67 19 l 67 0 l 407 0 l 407 19 b 281 132 324 22 281 38 l 281 797 b 407 908 281 889 324 906 l 407 928 l 67 928 l 67 908 b 193 797 150 906 193 889 l 193 132 b 67 19 193 38 150 22 z m 42 1047 l 61 1047 l 240 1144 l 418 1047 l 438 1047 l 289 1204 l 194 1204 z "},"Ï":{"ha":474,"x_min":0,"x_max":0,"o":"m 67 19 l 67 0 l 407 0 l 407 19 b 281 132 324 22 281 38 l 281 797 b 407 908 281 889 324 906 l 407 928 l 67 928 l 67 908 b 193 797 150 906 193 889 l 193 132 b 67 19 193 38 150 22 z m 65 1126 b 135 1061 65 1090 96 1061 b 200 1126 171 1061 200 1090 b 135 1193 200 1164 171 1193 b 65 1126 96 1193 65 1164 z m 282 1126 b 351 1061 282 1090 313 1061 b 417 1126 388 1061 417 1090 b 351 1193 417 1164 388 1193 b 282 1126 313 1193 282 1164 z "},"İ":{"ha":474,"x_min":0,"x_max":0,"o":"m 67 19 l 67 0 l 407 0 l 407 19 b 281 132 324 22 281 38 l 281 797 b 407 908 281 889 324 906 l 407 928 l 67 928 l 67 908 b 193 797 150 906 193 889 l 193 132 b 67 19 193 38 150 22 z m 171 1150 b 240 1085 171 1114 201 1085 b 304 1150 276 1085 304 1114 b 240 1217 304 1188 276 1217 b 171 1150 201 1217 171 1188 z "},"Ì":{"ha":474,"x_min":0,"x_max":0,"o":"m 67 19 l 67 0 l 407 0 l 407 19 b 281 132 324 22 281 38 l 281 797 b 407 908 281 889 324 906 l 407 928 l 67 928 l 67 908 b 193 797 150 906 193 889 l 193 132 b 67 19 193 38 150 22 z m 7 1203 l 264 1031 l 283 1031 l 138 1203 z "},"Ī":{"ha":474,"x_min":0,"x_max":0,"o":"m 67 19 l 67 0 l 407 0 l 407 19 b 281 132 324 22 281 38 l 281 797 b 407 908 281 889 324 906 l 407 928 l 67 928 l 67 908 b 193 797 150 906 193 889 l 193 132 b 67 19 193 38 150 22 z m 63 1088 l 413 1088 l 413 1121 l 63 1121 z "},"Į":{"ha":474,"x_min":0,"x_max":0,"o":"m 67 19 l 67 0 l 286 0 b 136 -189 193 -47 136 -115 b 260 -294 136 -251 183 -294 b 389 -194 311 -294 364 -254 l 378 -189 b 276 -251 349 -228 308 -251 b 200 -174 233 -251 200 -221 b 318 0 200 -111 246 -50 l 407 0 l 407 19 b 281 132 324 22 281 38 l 281 797 b 407 908 281 889 324 906 l 407 928 l 67 928 l 67 908 b 193 797 150 906 193 889 l 193 132 b 67 19 193 38 150 22 z "},"Ĩ":{"ha":474,"x_min":0,"x_max":0,"o":"m 67 19 l 67 0 l 407 0 l 407 19 b 281 132 324 22 281 38 l 281 797 b 407 908 281 889 324 906 l 407 928 l 67 928 l 67 908 b 193 797 150 906 193 889 l 193 132 b 67 19 193 38 150 22 z m 61 1103 l 75 1103 b 132 1175 81 1163 100 1175 b 335 1099 190 1175 268 1099 b 415 1201 390 1099 415 1135 l 415 1229 l 401 1228 b 346 1156 396 1169 376 1156 b 143 1233 285 1156 211 1233 b 61 1131 86 1233 61 1197 z "},"J":{"ha":700,"x_min":0,"x_max":0,"o":"m 654 908 l 654 928 l 315 928 l 315 908 b 443 799 401 906 443 885 l 443 228 b 282 18 443 81 379 18 b 124 179 190 18 124 71 b 129 236 124 197 125 215 l 33 236 b 281 -21 24 79 124 -21 b 531 256 433 -21 531 68 l 531 799 b 654 908 531 885 572 906 z "},"Ĵ":{"ha":700,"x_min":0,"x_max":0,"o":"m 654 908 l 654 928 l 315 928 l 315 908 b 443 799 401 906 443 885 l 443 228 b 282 18 443 81 379 18 b 124 179 190 18 124 71 b 129 236 124 197 125 215 l 33 236 b 281 -21 24 79 124 -21 b 531 256 433 -21 531 68 l 531 799 b 654 908 531 885 572 906 z m 290 1047 l 310 1047 l 489 1144 l 667 1047 l 686 1047 l 538 1204 l 443 1204 z "},"K":{"ha":964,"x_min":0,"x_max":0,"o":"m 761 111 l 357 497 l 718 825 b 896 908 779 881 831 906 l 896 928 l 611 928 l 611 908 b 700 878 671 907 700 897 b 665 828 700 865 689 849 l 274 474 l 274 797 b 400 908 274 889 317 906 l 400 928 l 60 928 l 60 908 b 186 797 143 906 186 889 l 186 132 b 60 19 186 38 143 22 l 60 0 l 400 0 l 400 19 b 274 132 317 22 274 38 l 274 458 l 638 117 b 726 0 693 63 719 29 l 944 0 l 944 19 b 761 111 885 24 811 64 z "},"Ķ":{"ha":964,"x_min":0,"x_max":0,"o":"m 761 111 l 357 497 l 718 825 b 896 908 779 881 831 906 l 896 928 l 611 928 l 611 908 b 700 878 671 907 700 897 b 665 828 700 865 689 849 l 274 474 l 274 797 b 400 908 274 889 317 906 l 400 928 l 60 928 l 60 908 b 186 797 143 906 186 889 l 186 132 b 60 19 186 38 143 22 l 60 0 l 400 0 l 400 19 b 274 132 317 22 274 38 l 274 458 l 638 117 b 726 0 693 63 719 29 l 944 0 l 944 19 b 761 111 885 24 811 64 z m 451 -178 b 513 -240 451 -211 478 -240 b 542 -233 521 -240 532 -237 b 460 -329 538 -290 504 -321 l 460 -347 b 583 -206 532 -337 583 -279 b 515 -114 583 -150 561 -114 b 451 -178 478 -114 451 -139 z "},"L":{"ha":847,"x_min":0,"x_max":0,"o":"m 782 235 b 571 39 749 104 701 39 l 350 39 b 274 129 296 39 274 63 l 274 800 b 400 908 274 889 315 906 l 400 928 l 60 928 l 60 908 b 186 800 146 906 186 889 l 186 129 b 60 19 186 38 146 22 l 60 0 l 635 0 b 761 -10 683 0 722 -4 l 801 235 z "},"Ĺ":{"ha":847,"x_min":0,"x_max":0,"o":"m 782 235 b 571 39 749 104 701 39 l 350 39 b 274 129 296 39 274 63 l 274 800 b 400 908 274 889 315 906 l 400 928 l 60 928 l 60 908 b 186 800 146 906 186 889 l 186 129 b 60 19 186 38 146 22 l 60 0 l 635 0 b 761 -10 683 0 722 -4 l 801 235 z m 200 1032 l 219 1032 l 476 1204 l 346 1204 z "},"Ľ":{"ha":847,"x_min":0,"x_max":0,"o":"m 782 235 b 571 39 749 104 701 39 l 350 39 b 274 129 296 39 274 63 l 274 800 b 400 908 274 889 315 906 l 400 928 l 60 928 l 60 908 b 186 800 146 906 186 889 l 186 129 b 60 19 186 38 146 22 l 60 0 l 635 0 b 761 -10 683 0 722 -4 l 801 235 z m 621 681 l 636 681 l 726 928 l 644 928 z "},"Ļ":{"ha":847,"x_min":0,"x_max":0,"o":"m 782 235 b 571 39 749 104 701 39 l 350 39 b 274 129 296 39 274 63 l 274 800 b 400 908 274 889 315 906 l 400 928 l 60 928 l 60 908 b 186 800 146 906 186 889 l 186 129 b 60 19 186 38 146 22 l 60 0 l 635 0 b 761 -10 683 0 722 -4 l 801 235 z m 401 -178 b 463 -240 401 -211 428 -240 b 492 -233 471 -240 482 -237 b 410 -329 488 -290 454 -321 l 410 -347 b 533 -206 482 -337 533 -279 b 465 -114 533 -150 511 -114 b 401 -178 428 -114 401 -139 z "},"Ŀ":{"ha":847,"x_min":0,"x_max":0,"o":"m 782 235 b 571 39 749 104 701 39 l 350 39 b 274 129 296 39 274 63 l 274 800 b 400 908 274 889 315 906 l 400 928 l 60 928 l 60 908 b 186 800 146 906 186 889 l 186 129 b 60 19 186 38 146 22 l 60 0 l 635 0 b 761 -10 683 0 722 -4 l 801 235 z m 457 463 b 528 392 457 422 486 392 b 599 463 569 392 599 422 b 528 533 599 504 569 533 b 457 463 486 533 457 504 z "},"Ł":{"ha":847,"x_min":0,"x_max":0,"o":"m 782 235 b 571 39 749 104 701 39 l 350 39 b 274 129 296 39 274 63 l 274 468 l 539 569 l 539 601 l 274 500 l 274 800 b 400 908 274 889 315 906 l 400 928 l 60 928 l 60 908 b 186 800 146 906 186 889 l 186 469 l 68 425 l 68 392 l 186 438 l 186 129 b 60 19 186 38 146 22 l 60 0 l 635 0 b 761 -10 683 0 722 -4 l 801 235 z "},"M":{"ha":1269,"x_min":0,"x_max":0,"o":"m 1210 908 l 1210 928 l 1015 928 l 629 107 l 260 928 l 60 928 l 60 908 b 185 807 144 906 185 883 l 185 117 b 60 19 185 44 146 26 l 60 0 l 347 0 l 347 19 b 224 117 263 26 224 42 l 224 799 l 593 -21 l 613 -21 l 997 799 l 997 117 b 874 19 997 44 957 26 l 874 0 l 1210 0 l 1210 19 b 1085 117 1122 26 1085 43 l 1085 807 b 1210 908 1085 883 1125 907 z "},"N":{"ha":1004,"x_min":0,"x_max":0,"o":"m 660 928 l 660 908 b 808 811 746 906 808 899 l 808 153 l 244 928 l 60 928 l 60 908 b 192 817 132 904 192 886 l 192 119 b 86 19 192 25 144 22 l 86 0 l 376 0 l 376 21 b 231 119 292 24 231 25 l 231 799 l 828 -21 l 847 -21 l 847 811 b 951 908 847 899 894 906 l 951 928 z "},"Ń":{"ha":1004,"x_min":0,"x_max":0,"o":"m 660 928 l 660 908 b 808 811 746 906 808 899 l 808 153 l 244 928 l 60 928 l 60 908 b 192 817 132 904 192 886 l 192 119 b 86 19 192 25 144 22 l 86 0 l 376 0 l 376 21 b 231 119 292 24 231 25 l 231 799 l 828 -21 l 847 -21 l 847 811 b 951 908 847 899 894 906 l 951 928 z m 493 1032 l 513 1032 l 769 1204 l 639 1204 z "},"Ň":{"ha":1004,"x_min":0,"x_max":0,"o":"m 660 928 l 660 908 b 808 811 746 906 808 899 l 808 153 l 244 928 l 60 928 l 60 908 b 192 817 132 904 192 886 l 192 119 b 86 19 192 25 144 22 l 86 0 l 376 0 l 376 21 b 231 119 292 24 231 25 l 231 799 l 828 -21 l 847 -21 l 847 811 b 951 908 847 899 894 906 l 951 928 z m 325 1204 l 478 1047 l 572 1047 l 721 1204 l 701 1204 l 524 1107 l 344 1204 z "},"Ņ":{"ha":1004,"x_min":0,"x_max":0,"o":"m 660 928 l 660 908 b 808 811 746 906 808 899 l 808 153 l 244 928 l 60 928 l 60 908 b 192 817 132 904 192 886 l 192 119 b 86 19 192 25 144 22 l 86 0 l 376 0 l 376 21 b 231 119 292 24 231 25 l 231 799 l 828 -21 l 847 -21 l 847 811 b 951 908 847 899 894 906 l 951 928 z m 443 -178 b 504 -240 443 -211 469 -240 b 533 -233 513 -240 524 -237 b 451 -329 529 -290 496 -321 l 451 -347 b 575 -206 524 -337 575 -279 b 507 -114 575 -150 553 -114 b 443 -178 469 -114 443 -139 z "},"Ñ":{"ha":1004,"x_min":0,"x_max":0,"o":"m 660 928 l 660 908 b 808 811 746 906 808 899 l 808 153 l 244 928 l 60 928 l 60 908 b 192 817 132 904 192 886 l 192 119 b 86 19 192 25 144 22 l 86 0 l 376 0 l 376 21 b 231 119 292 24 231 25 l 231 799 l 828 -21 l 847 -21 l 847 811 b 951 908 847 899 894 906 l 951 928 z m 346 1103 l 360 1103 b 417 1175 365 1163 385 1175 b 619 1099 475 1175 553 1099 b 700 1201 675 1099 700 1135 l 700 1229 l 686 1228 b 631 1156 681 1169 661 1156 b 428 1233 569 1156 496 1233 b 346 1131 371 1233 346 1197 z "},"Ŋ":{"ha":1004,"x_min":0,"x_max":0,"o":"m 667 928 l 667 908 b 814 811 751 906 814 899 l 814 144 l 244 928 l 60 928 l 60 908 b 192 817 132 904 192 886 l 192 119 b 86 19 192 25 144 22 l 86 0 l 376 0 l 376 21 b 231 119 292 24 231 25 l 231 799 l 717 131 b 813 -86 776 51 813 17 b 681 -256 813 -179 775 -256 b 561 -114 606 -256 561 -207 b 568 -46 561 -94 564 -71 l 478 -46 b 665 -294 467 -194 532 -294 b 847 -81 788 -294 847 -210 l 847 811 b 951 908 847 899 894 906 l 951 928 z "},"O":{"ha":1050,"x_min":0,"x_max":0,"o":"m 525 -21 b 976 464 794 -21 976 176 b 525 949 976 751 794 949 b 74 464 257 949 74 751 b 525 -21 74 176 257 -21 z m 171 464 b 525 910 171 733 313 910 b 879 464 738 910 879 733 b 525 18 879 194 738 18 b 171 464 313 18 171 194 z "},"Ó":{"ha":1050,"x_min":0,"x_max":0,"o":"m 525 -21 b 976 464 794 -21 976 176 b 525 949 976 751 794 949 b 74 464 257 949 74 751 b 525 -21 74 176 257 -21 z m 171 464 b 525 910 171 733 313 910 b 879 464 738 910 879 733 b 525 18 879 194 738 18 b 171 464 313 18 171 194 z m 497 1032 l 517 1032 l 774 1204 l 643 1204 z "},"Ŏ":{"ha":1050,"x_min":0,"x_max":0,"o":"m 525 -21 b 976 464 794 -21 976 176 b 525 949 976 751 794 949 b 74 464 257 949 74 751 b 525 -21 74 176 257 -21 z m 171 464 b 525 910 171 733 313 910 b 879 464 738 910 879 733 b 525 18 879 194 738 18 b 171 464 313 18 171 194 z m 360 1206 b 526 1038 361 1101 417 1038 b 693 1206 636 1038 692 1101 l 678 1206 b 526 1097 671 1133 613 1097 b 376 1206 440 1097 383 1133 z "},"Ô":{"ha":1050,"x_min":0,"x_max":0,"o":"m 525 -21 b 976 464 794 -21 976 176 b 525 949 976 751 794 949 b 74 464 257 949 74 751 b 525 -21 74 176 257 -21 z m 171 464 b 525 910 171 733 313 910 b 879 464 738 910 879 733 b 525 18 879 194 738 18 b 171 464 313 18 171 194 z m 329 1047 l 349 1047 l 528 1144 l 706 1047 l 725 1047 l 576 1204 l 482 1204 z "},"Ö":{"ha":1050,"x_min":0,"x_max":0,"o":"m 525 -21 b 976 464 794 -21 976 176 b 525 949 976 751 794 949 b 74 464 257 949 74 751 b 525 -21 74 176 257 -21 z m 171 464 b 525 910 171 733 313 910 b 879 464 738 910 879 733 b 525 18 879 194 738 18 b 171 464 313 18 171 194 z m 353 1126 b 422 1061 353 1090 383 1061 b 488 1126 458 1061 488 1090 b 422 1193 488 1164 458 1193 b 353 1126 383 1193 353 1164 z m 569 1126 b 639 1061 569 1090 600 1061 b 704 1126 675 1061 704 1090 b 639 1193 704 1164 675 1193 b 569 1126 600 1193 569 1164 z "},"Ò":{"ha":1050,"x_min":0,"x_max":0,"o":"m 525 -21 b 976 464 794 -21 976 176 b 525 949 976 751 794 949 b 74 464 257 949 74 751 b 525 -21 74 176 257 -21 z m 171 464 b 525 910 171 733 313 910 b 879 464 738 910 879 733 b 525 18 879 194 738 18 b 171 464 313 18 171 194 z m 294 1203 l 551 1031 l 571 1031 l 425 1203 z "},"Ő":{"ha":1050,"x_min":0,"x_max":0,"o":"m 525 -21 b 976 464 794 -21 976 176 b 525 949 976 751 794 949 b 74 464 257 949 74 751 b 525 -21 74 176 257 -21 z m 171 464 b 525 910 171 733 313 910 b 879 464 738 910 879 733 b 525 18 879 194 738 18 b 171 464 313 18 171 194 z m 407 1032 l 425 1032 l 604 1218 l 508 1218 z m 567 1032 l 588 1032 l 768 1218 l 668 1217 z "},"Ō":{"ha":1050,"x_min":0,"x_max":0,"o":"m 525 -21 b 976 464 794 -21 976 176 b 525 949 976 751 794 949 b 74 464 257 949 74 751 b 525 -21 74 176 257 -21 z m 171 464 b 525 910 171 733 313 910 b 879 464 738 910 879 733 b 525 18 879 194 738 18 b 171 464 313 18 171 194 z m 350 1088 l 700 1088 l 700 1121 l 350 1121 z "},"Ø":{"ha":1007,"x_min":0,"x_max":0,"o":"m 525 -21 b 976 464 794 -21 976 176 b 739 900 976 667 886 824 l 782 994 l 753 1006 l 711 913 b 525 949 656 936 593 949 b 74 464 257 949 74 751 b 313 28 74 261 165 103 l 271 -65 l 299 -78 l 340 15 b 525 -21 396 -8 457 -21 z m 171 464 b 525 910 171 733 313 910 b 690 867 586 910 643 894 l 335 76 b 171 464 232 150 171 286 z m 361 60 l 717 850 b 879 464 818 776 879 640 b 525 18 879 194 738 18 b 361 60 464 18 408 33 z "},"Ǿ":{"ha":1007,"x_min":0,"x_max":0,"o":"m 525 -21 b 976 464 794 -21 976 176 b 739 900 976 667 886 824 l 782 994 l 753 1006 l 711 913 b 525 949 656 936 593 949 b 74 464 257 949 74 751 b 313 28 74 261 165 103 l 271 -65 l 299 -78 l 340 15 b 525 -21 396 -8 457 -21 z m 171 464 b 525 910 171 733 313 910 b 690 867 586 910 643 894 l 335 76 b 171 464 232 150 171 286 z m 361 60 l 717 850 b 879 464 818 776 879 640 b 525 18 879 194 738 18 b 361 60 464 18 408 33 z m 497 1032 l 517 1032 l 774 1204 l 643 1204 z "},"Õ":{"ha":1050,"x_min":0,"x_max":0,"o":"m 525 -21 b 976 464 794 -21 976 176 b 525 949 976 751 794 949 b 74 464 257 949 74 751 b 525 -21 74 176 257 -21 z m 171 464 b 525 910 171 733 313 910 b 879 464 738 910 879 733 b 525 18 879 194 738 18 b 171 464 313 18 171 194 z m 349 1103 l 363 1103 b 419 1175 368 1163 388 1175 b 622 1099 478 1175 556 1099 b 703 1201 678 1099 703 1135 l 703 1229 l 689 1228 b 633 1156 683 1169 664 1156 b 431 1233 572 1156 499 1233 b 349 1131 374 1233 349 1197 z "},"Œ":{"ha":1456,"x_min":0,"x_max":0,"o":"m 557 0 l 1189 0 b 1315 -10 1238 0 1276 -4 l 1354 235 l 1335 235 b 1125 39 1301 104 1254 39 l 890 39 b 811 132 835 39 811 64 l 811 457 l 1051 457 b 1178 328 1150 457 1175 415 l 1197 328 l 1197 625 l 1178 625 b 1051 496 1175 536 1150 496 l 811 496 l 811 889 l 1107 889 b 1317 693 1236 889 1283 824 l 1336 693 l 1297 938 b 1171 928 1258 932 1219 928 l 535 928 b 74 464 258 928 74 742 b 557 0 74 186 268 0 z m 171 464 b 535 889 171 718 317 889 l 603 889 b 725 800 699 889 725 868 l 725 39 l 581 39 b 171 464 335 39 171 210 z "},"P":{"ha":842,"x_min":0,"x_max":0,"o":"m 60 19 l 60 0 l 428 0 l 428 19 b 274 132 317 22 274 38 l 274 410 l 431 410 b 782 671 638 410 782 490 b 431 928 782 851 638 928 l 60 928 l 60 908 b 186 797 143 906 186 889 l 186 132 b 60 19 186 38 143 22 z m 274 449 l 274 889 l 422 889 b 685 671 594 889 685 799 b 422 449 685 540 596 449 z "},"Þ":{"ha":856,"x_min":0,"x_max":0,"o":"m 431 728 l 274 728 l 274 797 b 400 908 274 889 317 906 l 400 928 l 60 928 l 60 908 b 186 797 143 906 186 889 l 186 132 b 60 19 186 38 143 22 l 60 0 l 428 0 l 428 19 b 274 132 317 22 274 38 l 274 210 l 431 210 b 782 471 638 210 782 290 b 431 728 782 651 638 728 z m 274 249 l 274 689 l 422 689 b 685 471 594 689 685 599 b 422 249 685 340 596 249 z "},"Q":{"ha":1050,"x_min":0,"x_max":0,"o":"m 525 -21 b 976 464 794 -21 976 176 b 525 949 976 751 794 949 b 74 464 257 949 74 751 b 492 -19 74 189 242 -4 b 764 -300 529 -187 639 -289 l 790 -219 b 519 -21 688 -207 571 -139 z m 171 464 b 525 910 171 733 313 910 b 879 464 738 910 879 733 b 525 18 879 194 738 18 b 171 464 313 18 171 194 z "},"R":{"ha":929,"x_min":0,"x_max":0,"o":"m 672 0 l 897 0 l 897 19 b 674 143 811 26 749 61 l 406 439 l 428 439 b 782 685 636 436 782 506 b 428 928 782 865 636 928 l 60 928 l 60 908 b 186 800 143 906 186 890 l 186 129 b 60 19 186 36 143 22 l 60 0 l 400 0 l 400 19 b 274 129 317 22 274 36 l 274 461 l 589 114 b 672 0 646 50 669 17 z m 274 478 l 274 889 l 424 889 b 685 685 596 889 685 811 b 424 478 685 557 596 478 z "},"Ŕ":{"ha":929,"x_min":0,"x_max":0,"o":"m 672 0 l 897 0 l 897 19 b 674 143 811 26 749 61 l 406 439 l 428 439 b 782 685 636 436 782 506 b 428 928 782 865 636 928 l 60 928 l 60 908 b 186 800 143 906 186 890 l 186 129 b 60 19 186 36 143 22 l 60 0 l 400 0 l 400 19 b 274 129 317 22 274 36 l 274 461 l 589 114 b 672 0 646 50 669 17 z m 274 478 l 274 889 l 424 889 b 685 685 596 889 685 811 b 424 478 685 557 596 478 z m 394 1032 l 414 1032 l 671 1204 l 540 1204 z "},"Ř":{"ha":929,"x_min":0,"x_max":0,"o":"m 672 0 l 897 0 l 897 19 b 674 143 811 26 749 61 l 406 439 l 428 439 b 782 685 636 436 782 506 b 428 928 782 865 636 928 l 60 928 l 60 908 b 186 800 143 906 186 890 l 186 129 b 60 19 186 36 143 22 l 60 0 l 400 0 l 400 19 b 274 129 317 22 274 36 l 274 461 l 589 114 b 672 0 646 50 669 17 z m 226 1204 l 379 1047 l 474 1047 l 622 1204 l 603 1204 l 425 1107 l 246 1204 z m 274 478 l 274 889 l 424 889 b 685 685 596 889 685 811 b 424 478 685 557 596 478 z "},"Ŗ":{"ha":929,"x_min":0,"x_max":0,"o":"m 672 0 l 897 0 l 897 19 b 674 143 811 26 749 61 l 406 439 l 428 439 b 782 685 636 436 782 506 b 428 928 782 865 636 928 l 60 928 l 60 908 b 186 800 143 906 186 890 l 186 129 b 60 19 186 36 143 22 l 60 0 l 400 0 l 400 19 b 274 129 317 22 274 36 l 274 461 l 589 114 b 672 0 646 50 669 17 z m 274 478 l 274 889 l 424 889 b 685 685 596 889 685 811 b 424 478 685 557 596 478 z m 406 -178 b 467 -240 406 -211 432 -240 b 496 -233 475 -240 486 -237 b 414 -329 492 -290 458 -321 l 414 -347 b 538 -206 486 -337 538 -279 b 469 -114 538 -150 515 -114 b 406 -178 432 -114 406 -139 z "},"S":{"ha":824,"x_min":0,"x_max":0,"o":"m 143 281 l 124 281 l 115 86 b 422 -19 185 19 299 -19 b 722 240 600 -19 722 86 b 193 743 722 574 193 482 b 388 908 193 842 288 908 b 646 690 531 908 622 833 l 665 690 l 672 868 b 389 947 601 918 489 947 b 119 711 224 947 119 850 b 638 203 119 383 638 496 b 424 19 638 94 551 19 b 143 281 286 19 181 117 z "},"Ś":{"ha":824,"x_min":0,"x_max":0,"o":"m 143 281 l 124 281 l 115 86 b 422 -19 185 19 299 -19 b 722 240 600 -19 722 86 b 193 743 722 574 193 482 b 388 908 193 842 288 908 b 646 690 531 908 622 833 l 665 690 l 672 868 b 389 947 601 918 489 947 b 119 711 224 947 119 850 b 638 203 119 383 638 496 b 424 19 638 94 551 19 b 143 281 286 19 181 117 z m 385 1032 l 404 1032 l 661 1204 l 531 1204 z "},"Š":{"ha":824,"x_min":0,"x_max":0,"o":"m 143 281 l 124 281 l 115 86 b 422 -19 185 19 299 -19 b 722 240 600 -19 722 86 b 193 743 722 574 193 482 b 388 908 193 842 288 908 b 646 690 531 908 622 833 l 665 690 l 672 868 b 389 947 601 918 489 947 b 119 711 224 947 119 850 b 638 203 119 383 638 496 b 424 19 638 94 551 19 b 143 281 286 19 181 117 z m 217 1204 l 369 1047 l 464 1047 l 613 1204 l 593 1204 l 415 1107 l 236 1204 z "},"Ş":{"ha":824,"x_min":0,"x_max":0,"o":"m 143 281 l 124 281 l 115 86 b 419 -19 185 19 296 -18 l 378 -132 b 471 -203 446 -146 471 -168 b 399 -262 471 -242 439 -262 b 324 -240 375 -262 350 -256 l 315 -251 b 426 -294 350 -282 386 -294 b 543 -193 496 -294 543 -254 b 421 -83 543 -133 496 -99 l 443 -19 b 722 240 610 -11 722 92 b 193 743 722 574 193 482 b 388 908 193 842 288 908 b 646 690 531 908 622 833 l 665 690 l 672 868 b 389 947 601 918 489 947 b 119 711 224 947 119 850 b 638 203 119 383 638 496 b 424 19 638 94 551 19 b 143 281 286 19 181 117 z "},"Ŝ":{"ha":824,"x_min":0,"x_max":0,"o":"m 143 281 l 124 281 l 115 86 b 422 -19 185 19 299 -19 b 722 240 600 -19 722 86 b 193 743 722 574 193 482 b 388 908 193 842 288 908 b 646 690 531 908 622 833 l 665 690 l 672 868 b 389 947 601 918 489 947 b 119 711 224 947 119 850 b 638 203 119 383 638 496 b 424 19 638 94 551 19 b 143 281 286 19 181 117 z m 218 1047 l 238 1047 l 417 1144 l 594 1047 l 614 1047 l 465 1204 l 371 1204 z "},"Ș":{"ha":824,"x_min":0,"x_max":0,"o":"m 143 281 l 124 281 l 115 86 b 422 -19 185 19 299 -19 b 722 240 600 -19 722 86 b 193 743 722 574 193 482 b 388 908 193 842 288 908 b 646 690 531 908 622 833 l 665 690 l 672 868 b 389 947 601 918 489 947 b 119 711 224 947 119 850 b 638 203 119 383 638 496 b 424 19 638 94 551 19 b 143 281 286 19 181 117 z m 363 -178 b 424 -240 363 -211 389 -240 b 453 -233 432 -240 443 -237 b 371 -329 449 -290 415 -321 l 371 -347 b 494 -206 443 -337 494 -279 b 426 -114 494 -150 472 -114 b 363 -178 389 -114 363 -139 z "},"ẞ":{"ha":1106,"x_min":0,"x_max":0,"o":"m 736 -19 b 1004 214 904 -19 1004 71 b 771 500 1004 329 939 394 b 579 713 643 581 579 619 b 833 889 579 826 676 889 l 886 889 l 886 928 l 60 928 l 60 908 b 186 797 143 906 186 889 l 186 132 b 60 19 186 38 143 22 l 60 0 l 400 0 l 400 19 b 274 132 317 22 274 38 l 274 889 l 661 889 b 506 686 556 854 506 782 b 704 425 506 561 586 499 b 919 192 847 338 919 301 b 740 19 919 86 854 19 b 492 275 607 19 529 111 l 472 275 l 465 86 b 736 -19 529 24 625 -19 z "},"T":{"ha":919,"x_min":0,"x_max":0,"o":"m 503 153 l 503 889 l 643 889 b 853 693 772 889 819 824 l 872 693 l 833 938 b 707 928 794 932 756 928 l 213 928 b 86 938 164 928 125 932 l 46 693 l 65 693 b 276 889 99 824 146 889 l 417 889 l 417 153 b 289 19 417 38 375 22 l 289 0 l 629 0 l 629 19 b 503 153 544 22 503 38 z "},"Ŧ":{"ha":919,"x_min":0,"x_max":0,"o":"m 503 153 l 503 447 l 658 447 l 658 481 l 503 481 l 503 889 l 643 889 b 853 693 772 889 819 824 l 872 693 l 833 938 b 707 928 794 932 756 928 l 213 928 b 86 938 164 928 125 932 l 46 693 l 65 693 b 276 889 99 824 146 889 l 417 889 l 417 481 l 260 481 l 260 447 l 417 447 l 417 153 b 289 19 417 38 375 22 l 289 0 l 629 0 l 629 19 b 503 153 544 22 503 38 z "},"Ť":{"ha":919,"x_min":0,"x_max":0,"o":"m 503 153 l 503 889 l 643 889 b 853 693 772 889 819 824 l 872 693 l 833 938 b 707 928 794 932 756 928 l 213 928 b 86 938 164 928 125 932 l 46 693 l 65 693 b 276 889 99 824 146 889 l 417 889 l 417 153 b 289 19 417 38 375 22 l 289 0 l 629 0 l 629 19 b 503 153 544 22 503 38 z m 261 1204 l 414 1047 l 508 1047 l 657 1204 l 638 1204 l 460 1107 l 281 1204 z "},"Ţ":{"ha":919,"x_min":0,"x_max":0,"o":"m 503 153 l 503 889 l 643 889 b 853 693 772 889 819 824 l 872 693 l 833 938 b 707 928 794 932 756 928 l 213 928 b 86 938 164 928 125 932 l 46 693 l 65 693 b 276 889 99 824 146 889 l 417 889 l 417 153 b 289 19 417 38 375 22 l 289 0 l 457 0 l 408 -132 b 501 -203 476 -146 501 -168 b 429 -262 501 -242 469 -262 b 354 -240 406 -262 381 -256 l 346 -251 b 457 -294 381 -282 417 -294 b 574 -193 526 -294 574 -254 b 451 -83 574 -133 526 -99 l 481 0 l 629 0 l 629 19 b 503 153 544 22 503 38 z "},"Ț":{"ha":919,"x_min":0,"x_max":0,"o":"m 503 153 l 503 889 l 643 889 b 853 693 772 889 819 824 l 872 693 l 833 938 b 707 928 794 932 756 928 l 213 928 b 86 938 164 928 125 932 l 46 693 l 65 693 b 276 889 99 824 146 889 l 417 889 l 417 153 b 289 19 417 38 375 22 l 289 0 l 629 0 l 629 19 b 503 153 544 22 503 38 z m 393 -178 b 454 -240 393 -211 419 -240 b 483 -233 463 -240 474 -237 b 401 -329 479 -290 446 -321 l 401 -347 b 525 -206 474 -337 525 -279 b 457 -114 525 -150 503 -114 b 393 -178 419 -114 393 -139 z "},"U":{"ha":1032,"x_min":0,"x_max":0,"o":"m 693 928 l 693 908 b 821 800 778 906 821 890 l 821 354 b 554 31 821 136 722 31 b 260 357 375 31 260 139 l 260 800 b 386 908 260 890 303 906 l 386 928 l 46 928 l 46 908 b 172 800 129 906 172 890 l 172 344 b 528 -19 172 106 304 -19 b 860 353 739 -19 860 104 l 860 800 b 986 908 860 890 903 906 l 986 928 z "},"Ú":{"ha":1032,"x_min":0,"x_max":0,"o":"m 693 928 l 693 908 b 821 800 778 906 821 890 l 821 354 b 554 31 821 136 722 31 b 260 357 375 31 260 139 l 260 800 b 386 908 260 890 303 906 l 386 928 l 46 928 l 46 908 b 172 800 129 906 172 890 l 172 344 b 528 -19 172 106 304 -19 b 860 353 739 -19 860 104 l 860 800 b 986 908 860 890 903 906 l 986 928 z m 510 1032 l 529 1032 l 786 1204 l 656 1204 z "},"Ŭ":{"ha":1032,"x_min":0,"x_max":0,"o":"m 693 928 l 693 908 b 821 800 778 906 821 890 l 821 354 b 554 31 821 136 722 31 b 260 357 375 31 260 139 l 260 800 b 386 908 260 890 303 906 l 386 928 l 46 928 l 46 908 b 172 800 129 906 172 890 l 172 344 b 528 -19 172 106 304 -19 b 860 353 739 -19 860 104 l 860 800 b 986 908 860 890 903 906 l 986 928 z m 374 1206 b 540 1038 375 1101 431 1038 b 707 1206 650 1038 706 1101 l 692 1206 b 540 1097 685 1133 626 1097 b 390 1206 454 1097 397 1133 z "},"Û":{"ha":1032,"x_min":0,"x_max":0,"o":"m 693 928 l 693 908 b 821 800 778 906 821 890 l 821 354 b 554 31 821 136 722 31 b 260 357 375 31 260 139 l 260 800 b 386 908 260 890 303 906 l 386 928 l 46 928 l 46 908 b 172 800 129 906 172 890 l 172 344 b 528 -19 172 106 304 -19 b 860 353 739 -19 860 104 l 860 800 b 986 908 860 890 903 906 l 986 928 z m 343 1047 l 363 1047 l 542 1144 l 719 1047 l 739 1047 l 590 1204 l 496 1204 z "},"Ü":{"ha":1032,"x_min":0,"x_max":0,"o":"m 693 928 l 693 908 b 821 800 778 906 821 890 l 821 354 b 554 31 821 136 722 31 b 260 357 375 31 260 139 l 260 800 b 386 908 260 890 303 906 l 386 928 l 46 928 l 46 908 b 172 800 129 906 172 890 l 172 344 b 528 -19 172 106 304 -19 b 860 353 739 -19 860 104 l 860 800 b 986 908 860 890 903 906 l 986 928 z m 367 1126 b 436 1061 367 1090 397 1061 b 501 1126 472 1061 501 1090 b 436 1193 501 1164 472 1193 b 367 1126 397 1193 367 1164 z m 583 1126 b 653 1061 583 1090 614 1061 b 718 1126 689 1061 718 1090 b 653 1193 718 1164 689 1193 b 583 1126 614 1193 583 1164 z "},"Ù":{"ha":1032,"x_min":0,"x_max":0,"o":"m 693 928 l 693 908 b 821 800 778 906 821 890 l 821 354 b 554 31 821 136 722 31 b 260 357 375 31 260 139 l 260 800 b 386 908 260 890 303 906 l 386 928 l 46 928 l 46 908 b 172 800 129 906 172 890 l 172 344 b 528 -19 172 106 304 -19 b 860 353 739 -19 860 104 l 860 800 b 986 908 860 890 903 906 l 986 928 z m 308 1203 l 565 1031 l 585 1031 l 439 1203 z "},"Ű":{"ha":1032,"x_min":0,"x_max":0,"o":"m 693 928 l 693 908 b 821 800 778 906 821 890 l 821 354 b 554 31 821 136 722 31 b 260 357 375 31 260 139 l 260 800 b 386 908 260 890 303 906 l 386 928 l 46 928 l 46 908 b 172 800 129 906 172 890 l 172 344 b 528 -19 172 106 304 -19 b 860 353 739 -19 860 104 l 860 800 b 986 908 860 890 903 906 l 986 928 z m 421 1032 l 439 1032 l 618 1218 l 522 1218 z m 581 1032 l 601 1032 l 782 1218 l 682 1217 z "},"Ū":{"ha":1032,"x_min":0,"x_max":0,"o":"m 693 928 l 693 908 b 821 800 778 906 821 890 l 821 354 b 554 31 821 136 722 31 b 260 357 375 31 260 139 l 260 800 b 386 908 260 890 303 906 l 386 928 l 46 928 l 46 908 b 172 800 129 906 172 890 l 172 344 b 528 -19 172 106 304 -19 b 860 353 739 -19 860 104 l 860 800 b 986 908 860 890 903 906 l 986 928 z m 364 1088 l 714 1088 l 714 1121 l 364 1121 z "},"Ų":{"ha":1032,"x_min":0,"x_max":0,"o":"m 693 928 l 693 908 b 821 800 778 906 821 890 l 821 354 b 554 31 821 136 722 31 b 260 357 375 31 260 139 l 260 800 b 386 908 260 890 303 906 l 386 928 l 46 928 l 46 908 b 172 800 129 906 172 890 l 172 344 b 528 -19 172 106 304 -19 b 592 -15 550 -19 571 -18 b 460 -189 513 -53 460 -119 b 583 -294 460 -251 507 -294 b 713 -194 635 -294 688 -254 l 701 -189 b 600 -251 672 -228 632 -251 b 524 -174 557 -251 524 -221 b 632 -8 524 -112 569 -47 b 860 353 778 29 860 149 l 860 800 b 986 908 860 890 903 906 l 986 928 z "},"Ů":{"ha":1032,"x_min":0,"x_max":0,"o":"m 693 928 l 693 908 b 821 800 778 906 821 890 l 821 354 b 554 31 821 136 722 31 b 260 357 375 31 260 139 l 260 800 b 386 908 260 890 303 906 l 386 928 l 46 928 l 46 908 b 172 800 129 906 172 890 l 172 344 b 528 -19 172 106 304 -19 b 860 353 739 -19 860 104 l 860 800 b 986 908 860 890 903 906 l 986 928 z m 414 1153 b 539 1035 414 1085 467 1035 b 664 1153 611 1035 664 1085 b 539 1269 664 1219 611 1269 b 414 1153 467 1269 414 1219 z m 447 1153 b 539 1243 447 1206 488 1243 b 631 1153 592 1243 631 1206 b 539 1063 631 1100 592 1063 b 447 1153 488 1063 447 1100 z "},"Ũ":{"ha":1032,"x_min":0,"x_max":0,"o":"m 693 928 l 693 908 b 821 800 778 906 821 890 l 821 354 b 554 31 821 136 722 31 b 260 357 375 31 260 139 l 260 800 b 386 908 260 890 303 906 l 386 928 l 46 928 l 46 908 b 172 800 129 906 172 890 l 172 344 b 528 -19 172 106 304 -19 b 860 353 739 -19 860 104 l 860 800 b 986 908 860 890 903 906 l 986 928 z m 363 1103 l 376 1103 b 433 1175 382 1163 401 1175 b 636 1099 492 1175 569 1099 b 717 1201 692 1099 717 1135 l 717 1229 l 703 1228 b 647 1156 697 1169 678 1156 b 444 1233 586 1156 513 1233 b 363 1131 388 1233 363 1197 z "},"V":{"ha":951,"x_min":0,"x_max":0,"o":"m 142 782 l 461 -21 l 481 -21 l 800 783 b 961 908 836 872 871 906 l 961 928 l 667 928 l 667 908 b 775 846 740 907 775 888 b 760 785 775 829 769 808 l 497 119 l 233 788 b 219 843 225 810 219 828 b 317 908 219 886 253 907 l 317 928 l -10 928 l -10 908 b 142 782 69 904 106 872 z "},"W":{"ha":1400,"x_min":0,"x_max":0,"o":"m 643 782 l 665 721 l 458 132 l 229 788 b 218 839 222 807 218 824 b 325 908 218 882 251 907 l 325 928 l 4 928 l 4 908 b 136 782 75 904 107 864 l 424 -21 l 443 -21 l 686 663 l 931 -21 l 950 -21 l 1236 783 b 1396 908 1267 867 1301 904 l 1396 928 l 1103 928 l 1103 908 b 1208 842 1178 907 1208 883 b 1196 785 1208 825 1204 806 l 964 132 l 735 788 b 725 838 728 806 725 822 b 832 908 725 882 757 906 l 832 928 l 511 928 l 511 908 b 643 782 582 904 615 863 z "},"Ẃ":{"ha":1400,"x_min":0,"x_max":0,"o":"m 643 782 l 665 721 l 458 132 l 229 788 b 218 839 222 807 218 824 b 325 908 218 882 251 907 l 325 928 l 4 928 l 4 908 b 136 782 75 904 107 864 l 424 -21 l 443 -21 l 686 663 l 931 -21 l 950 -21 l 1236 783 b 1396 908 1267 867 1301 904 l 1396 928 l 1103 928 l 1103 908 b 1208 842 1178 907 1208 883 b 1196 785 1208 825 1204 806 l 964 132 l 735 788 b 725 838 728 806 725 822 b 832 908 725 882 757 906 l 832 928 l 511 928 l 511 908 b 643 782 582 904 615 863 z m 643 1032 l 663 1032 l 919 1204 l 789 1204 z "},"Ŵ":{"ha":1400,"x_min":0,"x_max":0,"o":"m 643 782 l 665 721 l 458 132 l 229 788 b 218 839 222 807 218 824 b 325 908 218 882 251 907 l 325 928 l 4 928 l 4 908 b 136 782 75 904 107 864 l 424 -21 l 443 -21 l 686 663 l 931 -21 l 950 -21 l 1236 783 b 1396 908 1267 867 1301 904 l 1396 928 l 1103 928 l 1103 908 b 1208 842 1178 907 1208 883 b 1196 785 1208 825 1204 806 l 964 132 l 735 788 b 725 838 728 806 725 822 b 832 908 725 882 757 906 l 832 928 l 511 928 l 511 908 b 643 782 582 904 615 863 z m 476 1047 l 496 1047 l 675 1144 l 853 1047 l 872 1047 l 724 1204 l 629 1204 z "},"Ẅ":{"ha":1400,"x_min":0,"x_max":0,"o":"m 643 782 l 665 721 l 458 132 l 229 788 b 218 839 222 807 218 824 b 325 908 218 882 251 907 l 325 928 l 4 928 l 4 908 b 136 782 75 904 107 864 l 424 -21 l 443 -21 l 686 663 l 931 -21 l 950 -21 l 1236 783 b 1396 908 1267 867 1301 904 l 1396 928 l 1103 928 l 1103 908 b 1208 842 1178 907 1208 883 b 1196 785 1208 825 1204 806 l 964 132 l 735 788 b 725 838 728 806 725 822 b 832 908 725 882 757 906 l 832 928 l 511 928 l 511 908 b 643 782 582 904 615 863 z m 500 1126 b 569 1061 500 1090 531 1061 b 635 1126 606 1061 635 1090 b 569 1193 635 1164 606 1193 b 500 1126 531 1193 500 1164 z m 717 1126 b 786 1061 717 1090 747 1061 b 851 1126 822 1061 851 1090 b 786 1193 851 1164 822 1193 b 717 1126 747 1193 717 1164 z "},"Ẁ":{"ha":1400,"x_min":0,"x_max":0,"o":"m 643 782 l 665 721 l 458 132 l 229 788 b 218 839 222 807 218 824 b 325 908 218 882 251 907 l 325 928 l 4 928 l 4 908 b 136 782 75 904 107 864 l 424 -21 l 443 -21 l 686 663 l 931 -21 l 950 -21 l 1236 783 b 1396 908 1267 867 1301 904 l 1396 928 l 1103 928 l 1103 908 b 1208 842 1178 907 1208 883 b 1196 785 1208 825 1204 806 l 964 132 l 735 788 b 725 838 728 806 725 822 b 832 908 725 882 757 906 l 832 928 l 511 928 l 511 908 b 643 782 582 904 615 863 z m 442 1203 l 699 1031 l 718 1031 l 572 1203 z "},"X":{"ha":1006,"x_min":0,"x_max":0,"o":"m 656 19 l 656 0 l 981 0 l 981 19 b 811 132 915 22 868 53 l 547 506 l 753 792 b 931 908 811 874 861 906 l 931 928 l 644 928 l 644 908 b 740 864 708 907 740 893 b 707 792 740 846 729 822 l 525 538 l 328 817 b 304 869 311 839 304 857 b 392 908 304 896 332 907 l 392 928 l 67 928 l 67 908 b 221 817 136 906 175 882 l 460 479 l 215 138 b 25 19 157 54 104 22 l 25 0 l 324 0 l 324 19 b 228 64 258 21 228 35 b 260 135 228 82 239 104 l 483 446 l 707 132 b 739 63 728 103 739 79 b 656 19 739 35 711 21 z "},"Y":{"ha":842,"x_min":0,"x_max":0,"o":"m 232 19 l 232 0 l 569 0 l 569 19 b 444 129 488 22 444 36 l 444 396 l 692 792 b 865 908 742 872 792 906 l 865 928 l 579 928 l 579 908 b 672 861 643 907 672 893 b 646 792 672 843 664 821 l 429 443 l 219 792 b 196 856 204 818 196 839 b 301 908 196 890 229 907 l 301 928 l -24 928 l -24 908 b 118 792 31 906 71 872 l 357 394 l 357 129 b 232 19 357 36 315 22 z "},"Ý":{"ha":842,"x_min":0,"x_max":0,"o":"m 232 19 l 232 0 l 569 0 l 569 19 b 444 129 488 22 444 36 l 444 396 l 692 792 b 865 908 742 872 792 906 l 865 928 l 579 928 l 579 908 b 672 861 643 907 672 893 b 646 792 672 843 664 821 l 429 443 l 219 792 b 196 856 204 818 196 839 b 301 908 196 890 229 907 l 301 928 l -24 928 l -24 908 b 118 792 31 906 71 872 l 357 394 l 357 129 b 232 19 357 36 315 22 z m 386 1032 l 406 1032 l 663 1204 l 532 1204 z "},"Ŷ":{"ha":842,"x_min":0,"x_max":0,"o":"m 232 19 l 232 0 l 569 0 l 569 19 b 444 129 488 22 444 36 l 444 396 l 692 792 b 865 908 742 872 792 906 l 865 928 l 579 928 l 579 908 b 672 861 643 907 672 893 b 646 792 672 843 664 821 l 429 443 l 219 792 b 196 856 204 818 196 839 b 301 908 196 890 229 907 l 301 928 l -24 928 l -24 908 b 118 792 31 906 71 872 l 357 394 l 357 129 b 232 19 357 36 315 22 z m 218 1047 l 238 1047 l 417 1144 l 594 1047 l 614 1047 l 465 1204 l 371 1204 z "},"Ÿ":{"ha":842,"x_min":0,"x_max":0,"o":"m 232 19 l 232 0 l 569 0 l 569 19 b 444 129 488 22 444 36 l 444 396 l 692 792 b 865 908 742 872 792 906 l 865 928 l 579 928 l 579 908 b 672 861 643 907 672 893 b 646 792 672 843 664 821 l 429 443 l 219 792 b 196 856 204 818 196 839 b 301 908 196 890 229 907 l 301 928 l -24 928 l -24 908 b 118 792 31 906 71 872 l 357 394 l 357 129 b 232 19 357 36 315 22 z m 242 1126 b 311 1061 242 1090 272 1061 b 376 1126 347 1061 376 1090 b 311 1193 376 1164 347 1193 b 242 1126 272 1193 242 1164 z m 458 1126 b 528 1061 458 1090 489 1061 b 593 1126 564 1061 593 1090 b 528 1193 593 1164 564 1193 b 458 1126 489 1193 458 1164 z "},"Ỳ":{"ha":842,"x_min":0,"x_max":0,"o":"m 232 19 l 232 0 l 569 0 l 569 19 b 444 129 488 22 444 36 l 444 396 l 692 792 b 865 908 742 872 792 906 l 865 928 l 579 928 l 579 908 b 672 861 643 907 672 893 b 646 792 672 843 664 821 l 429 443 l 219 792 b 196 856 204 818 196 839 b 301 908 196 890 229 907 l 301 928 l -24 928 l -24 908 b 118 792 31 906 71 872 l 357 394 l 357 129 b 232 19 357 36 315 22 z m 183 1203 l 440 1031 l 460 1031 l 314 1203 z "},"Z":{"ha":847,"x_min":0,"x_max":0,"o":"m 732 -10 l 771 235 l 751 235 b 542 39 718 104 671 39 l 181 39 l 765 908 l 765 928 l 261 928 b 135 938 213 928 174 932 l 94 693 l 114 693 b 325 889 149 824 196 889 l 647 889 l 64 19 l 64 0 l 606 0 b 732 -10 654 0 693 -4 z "},"Ź":{"ha":847,"x_min":0,"x_max":0,"o":"m 732 -10 l 771 235 l 751 235 b 542 39 718 104 671 39 l 181 39 l 765 908 l 765 928 l 261 928 b 135 938 213 928 174 932 l 94 693 l 114 693 b 325 889 149 824 196 889 l 647 889 l 64 19 l 64 0 l 606 0 b 732 -10 654 0 693 -4 z m 374 1032 l 393 1032 l 650 1204 l 519 1204 z "},"Ž":{"ha":847,"x_min":0,"x_max":0,"o":"m 732 -10 l 771 235 l 751 235 b 542 39 718 104 671 39 l 181 39 l 765 908 l 765 928 l 261 928 b 135 938 213 928 174 932 l 94 693 l 114 693 b 325 889 149 824 196 889 l 647 889 l 64 19 l 64 0 l 606 0 b 732 -10 654 0 693 -4 z m 206 1204 l 358 1047 l 453 1047 l 601 1204 l 582 1204 l 404 1107 l 225 1204 z "},"Ż":{"ha":847,"x_min":0,"x_max":0,"o":"m 732 -10 l 771 235 l 751 235 b 542 39 718 104 671 39 l 181 39 l 765 908 l 765 928 l 261 928 b 135 938 213 928 174 932 l 94 693 l 114 693 b 325 889 149 824 196 889 l 647 889 l 64 19 l 64 0 l 606 0 b 732 -10 654 0 693 -4 z m 336 1150 b 406 1085 336 1114 367 1085 b 469 1150 442 1085 469 1114 b 406 1217 469 1188 442 1217 b 336 1150 367 1217 336 1188 z "},"a":{"ha":633,"x_min":0,"x_max":0,"o":"m 247 -21 b 447 149 340 -21 410 35 l 447 -22 l 604 17 l 604 36 l 582 38 b 518 104 536 42 518 61 l 518 431 b 300 642 518 557 435 642 b 67 419 151 642 68 538 l 161 419 b 156 467 157 436 156 451 b 299 607 156 546 208 607 b 446 463 386 607 446 549 b 67 144 446 288 67 396 b 247 -21 67 47 139 -21 z m 150 151 b 446 386 150 340 393 285 l 446 231 b 274 31 446 107 354 31 b 150 151 201 31 150 81 z "},"á":{"ha":633,"x_min":0,"x_max":0,"o":"m 247 -21 b 447 149 340 -21 410 35 l 447 -22 l 604 17 l 604 36 l 582 38 b 518 104 536 42 518 61 l 518 431 b 300 642 518 557 435 642 b 67 419 151 642 68 538 l 161 419 b 156 467 157 436 156 451 b 299 607 156 546 208 607 b 446 463 386 607 446 549 b 67 144 446 288 67 396 b 247 -21 67 47 139 -21 z m 150 151 b 446 386 150 340 393 285 l 446 231 b 274 31 446 107 354 31 b 150 151 201 31 150 81 z m 278 751 l 297 751 l 489 963 l 372 963 z "},"ă":{"ha":633,"x_min":0,"x_max":0,"o":"m 247 -21 b 447 149 340 -21 410 35 l 447 -22 l 604 17 l 604 36 l 582 38 b 518 104 536 42 518 61 l 518 431 b 300 642 518 557 435 642 b 67 419 151 642 68 538 l 161 419 b 156 467 157 436 156 451 b 299 607 156 546 208 607 b 446 463 386 607 446 549 b 67 144 446 288 67 396 b 247 -21 67 47 139 -21 z m 149 950 b 301 757 147 821 203 757 b 454 950 400 757 456 821 l 439 950 b 301 819 435 853 378 819 b 165 950 225 819 169 853 z m 150 151 b 446 386 150 340 393 285 l 446 231 b 274 31 446 107 354 31 b 150 151 201 31 150 81 z "},"â":{"ha":633,"x_min":0,"x_max":0,"o":"m 247 -21 b 447 149 340 -21 410 35 l 447 -22 l 604 17 l 604 36 l 582 38 b 518 104 536 42 518 61 l 518 431 b 300 642 518 557 435 642 b 67 419 151 642 68 538 l 161 419 b 156 467 157 436 156 451 b 299 607 156 546 208 607 b 446 463 386 607 446 549 b 67 144 446 288 67 396 b 247 -21 67 47 139 -21 z m 113 751 l 131 751 l 301 875 l 469 751 l 488 751 l 349 935 l 254 935 z m 150 151 b 446 386 150 340 393 285 l 446 231 b 274 31 446 107 354 31 b 150 151 201 31 150 81 z "},"ä":{"ha":633,"x_min":0,"x_max":0,"o":"m 247 -21 b 447 149 340 -21 410 35 l 447 -22 l 604 17 l 604 36 l 582 38 b 518 104 536 42 518 61 l 518 431 b 300 642 518 557 435 642 b 67 419 151 642 68 538 l 161 419 b 156 467 157 436 156 451 b 299 607 156 546 208 607 b 446 463 386 607 446 549 b 67 144 446 288 67 396 b 247 -21 67 47 139 -21 z m 125 843 b 196 778 125 807 156 778 b 261 843 232 778 261 807 b 196 911 261 882 232 911 b 125 843 156 911 125 882 z m 150 151 b 446 386 150 340 393 285 l 446 231 b 274 31 446 107 354 31 b 150 151 201 31 150 81 z m 343 843 b 413 778 343 807 374 778 b 479 843 449 778 479 807 b 413 911 479 882 449 911 b 343 843 374 911 343 882 z "},"à":{"ha":633,"x_min":0,"x_max":0,"o":"m 247 -21 b 447 149 340 -21 410 35 l 447 -22 l 604 17 l 604 36 l 582 38 b 518 104 536 42 518 61 l 518 431 b 300 642 518 557 435 642 b 67 419 151 642 68 538 l 161 419 b 156 467 157 436 156 451 b 299 607 156 546 208 607 b 446 463 386 607 446 549 b 67 144 446 288 67 396 b 247 -21 67 47 139 -21 z m 135 963 l 326 751 l 346 751 l 251 963 z m 150 151 b 446 386 150 340 393 285 l 446 231 b 274 31 446 107 354 31 b 150 151 201 31 150 81 z "},"ā":{"ha":633,"x_min":0,"x_max":0,"o":"m 247 -21 b 447 149 340 -21 410 35 l 447 -22 l 604 17 l 604 36 l 582 38 b 518 104 536 42 518 61 l 518 431 b 300 642 518 557 435 642 b 67 419 151 642 68 538 l 161 419 b 156 467 157 436 156 451 b 299 607 156 546 208 607 b 446 463 386 607 446 549 b 67 144 446 288 67 396 b 247 -21 67 47 139 -21 z m 126 806 l 476 806 l 476 839 l 126 839 z m 150 151 b 446 386 150 340 393 285 l 446 231 b 274 31 446 107 354 31 b 150 151 201 31 150 81 z "},"ą":{"ha":633,"x_min":0,"x_max":0,"o":"m 247 -21 b 447 149 340 -21 410 35 l 447 -19 b 324 -189 372 -58 324 -121 b 447 -294 324 -251 371 -294 b 576 -194 499 -294 551 -254 l 565 -189 b 464 -251 536 -228 496 -251 b 388 -174 421 -251 388 -221 b 490 -11 388 -114 431 -51 l 604 17 l 604 36 l 582 38 b 518 104 536 42 518 61 l 518 431 b 300 642 518 557 435 642 b 67 419 151 642 68 538 l 161 419 b 156 467 157 436 156 451 b 299 607 156 546 208 607 b 446 463 386 607 446 549 b 67 144 446 288 67 396 b 247 -21 67 47 139 -21 z m 150 151 b 446 386 150 340 393 285 l 446 231 b 274 31 446 107 354 31 b 150 151 201 31 150 81 z "},"å":{"ha":633,"x_min":0,"x_max":0,"o":"m 247 -21 b 447 149 340 -21 410 35 l 447 -22 l 604 17 l 604 36 l 582 38 b 518 104 536 42 518 61 l 518 431 b 300 642 518 557 435 642 b 67 419 151 642 68 538 l 161 419 b 156 467 157 436 156 451 b 299 607 156 546 208 607 b 446 463 386 607 446 549 b 67 144 446 288 67 396 b 247 -21 67 47 139 -21 z m 150 151 b 446 386 150 340 393 285 l 446 231 b 274 31 446 107 354 31 b 150 151 201 31 150 81 z m 175 871 b 300 753 175 803 228 753 b 425 871 372 753 425 803 b 300 988 425 938 372 988 b 175 871 228 988 175 938 z m 208 871 b 300 961 208 924 249 961 b 392 871 353 961 392 924 b 300 781 392 818 353 781 b 208 871 249 781 208 818 z "},"ǻ":{"ha":633,"x_min":0,"x_max":0,"o":"m 247 -21 b 447 149 340 -21 410 35 l 447 -22 l 604 17 l 604 36 l 582 38 b 518 104 536 42 518 61 l 518 431 b 300 642 518 557 435 642 b 67 419 151 642 68 538 l 161 419 b 156 467 157 436 156 451 b 299 607 156 546 208 607 b 446 463 386 607 446 549 b 67 144 446 288 67 396 b 247 -21 67 47 139 -21 z m 150 151 b 446 386 150 340 393 285 l 446 231 b 274 31 446 107 354 31 b 150 151 201 31 150 81 z m 175 871 b 300 753 175 803 228 753 b 425 871 372 753 425 803 b 300 988 425 938 372 988 b 175 871 228 988 175 938 z m 208 871 b 300 961 208 924 249 961 b 392 871 353 961 392 924 b 300 781 392 818 353 781 b 208 871 249 781 208 818 z m 292 1010 l 311 1010 l 503 1221 l 386 1221 z "},"ã":{"ha":633,"x_min":0,"x_max":0,"o":"m 247 -21 b 447 149 340 -21 410 35 l 447 -22 l 604 17 l 604 36 l 582 38 b 518 104 536 42 518 61 l 518 431 b 300 642 518 557 435 642 b 67 419 151 642 68 538 l 161 419 b 156 467 157 436 156 451 b 299 607 156 546 208 607 b 446 463 386 607 446 549 b 67 144 446 288 67 396 b 247 -21 67 47 139 -21 z m 124 796 l 138 796 b 193 868 143 856 163 868 b 394 792 253 868 328 792 b 475 894 451 792 475 828 l 475 922 l 461 922 b 406 850 456 863 436 850 b 206 926 346 850 272 926 b 124 824 149 926 124 890 z m 150 151 b 446 386 150 340 393 285 l 446 231 b 274 31 446 107 354 31 b 150 151 201 31 150 81 z "},"æ":{"ha":1028,"x_min":0,"x_max":0,"o":"m 446 463 b 67 144 446 288 67 396 b 247 -21 67 47 139 -21 b 463 185 336 -21 440 40 b 724 -18 499 61 596 -18 b 968 179 850 -18 942 57 l 951 183 b 758 43 925 111 858 43 b 525 340 606 43 521 165 l 526 369 l 964 369 b 967 411 965 383 967 397 b 738 642 967 557 872 642 b 501 515 636 642 553 597 b 300 642 472 593 401 642 b 67 419 151 642 68 538 l 161 419 b 156 467 157 436 156 451 b 299 607 156 546 208 607 b 446 463 386 607 446 549 z m 150 151 b 446 385 150 340 393 285 l 446 243 b 274 38 446 107 354 38 b 150 151 201 38 150 81 z m 531 404 b 724 607 551 528 624 607 b 883 439 817 607 883 547 b 882 404 883 428 883 417 z "},"ǽ":{"ha":1028,"x_min":0,"x_max":0,"o":"m 446 463 b 67 144 446 288 67 396 b 247 -21 67 47 139 -21 b 463 185 336 -21 440 40 b 724 -18 499 61 596 -18 b 968 179 850 -18 942 57 l 951 183 b 758 43 925 111 858 43 b 525 340 606 43 521 165 l 526 369 l 964 369 b 967 411 965 383 967 397 b 738 642 967 557 872 642 b 501 515 636 642 553 597 b 300 642 472 593 401 642 b 67 419 151 642 68 538 l 161 419 b 156 467 157 436 156 451 b 299 607 156 546 208 607 b 446 463 386 607 446 549 z m 150 151 b 446 385 150 340 393 285 l 446 243 b 274 38 446 107 354 38 b 150 151 201 38 150 81 z m 490 751 l 510 751 l 701 963 l 585 963 z m 531 404 b 724 607 551 528 624 607 b 883 439 817 607 883 547 b 882 404 883 428 883 417 z "},"b":{"ha":697,"x_min":0,"x_max":0,"o":"m 385 642 b 182 475 283 642 207 578 l 182 963 l 24 924 l 24 904 l 46 903 b 110 838 90 900 110 881 l 110 -21 l 201 35 b 364 -21 239 0 304 -21 b 643 313 510 -21 643 90 b 385 642 643 510 538 642 z m 182 215 l 182 363 b 365 582 182 518 269 582 b 560 300 475 582 560 474 b 363 14 560 143 497 14 b 182 215 251 14 182 104 z "},"c":{"ha":619,"x_min":0,"x_max":0,"o":"m 510 443 l 529 443 l 533 596 b 347 642 486 625 414 642 b 53 314 178 642 53 503 b 335 -18 53 119 174 -18 b 574 179 460 -18 546 57 l 557 183 b 365 40 526 103 460 40 b 136 324 235 40 136 164 b 347 607 136 485 225 607 b 510 443 433 607 499 553 z "},"ć":{"ha":619,"x_min":0,"x_max":0,"o":"m 510 443 l 529 443 l 533 596 b 347 642 486 625 414 642 b 53 314 178 642 53 503 b 335 -18 53 119 174 -18 b 574 179 460 -18 546 57 l 557 183 b 365 40 526 103 460 40 b 136 324 235 40 136 164 b 347 607 136 485 225 607 b 510 443 433 607 499 553 z m 313 751 l 332 751 l 524 963 l 407 963 z "},"č":{"ha":619,"x_min":0,"x_max":0,"o":"m 510 443 l 529 443 l 533 596 b 347 642 486 625 414 642 b 53 314 178 642 53 503 b 335 -18 53 119 174 -18 b 574 179 460 -18 546 57 l 557 183 b 365 40 526 103 460 40 b 136 324 235 40 136 164 b 347 607 136 485 225 607 b 510 443 433 607 499 553 z m 146 949 l 288 765 l 382 765 l 521 949 l 503 949 l 335 825 l 164 949 z "},"ç":{"ha":619,"x_min":0,"x_max":0,"o":"m 510 443 l 529 443 l 533 596 b 347 642 486 625 414 642 b 53 314 178 642 53 503 b 300 -15 53 133 157 1 l 258 -132 b 351 -203 326 -146 351 -168 b 279 -262 351 -242 319 -262 b 204 -240 256 -262 231 -256 l 196 -251 b 307 -294 231 -282 267 -294 b 424 -193 376 -294 424 -254 b 301 -83 424 -133 376 -99 l 324 -18 l 335 -18 b 574 179 460 -18 546 57 l 557 183 b 365 40 526 103 460 40 b 136 324 235 40 136 164 b 347 607 136 485 225 607 b 510 443 433 607 499 553 z "},"ĉ":{"ha":619,"x_min":0,"x_max":0,"o":"m 510 443 l 529 443 l 533 596 b 347 642 486 625 414 642 b 53 314 178 642 53 503 b 335 -18 53 119 174 -18 b 574 179 460 -18 546 57 l 557 183 b 365 40 526 103 460 40 b 136 324 235 40 136 164 b 347 607 136 485 225 607 b 510 443 433 607 499 553 z m 147 751 l 165 751 l 336 875 l 504 751 l 522 751 l 383 935 l 289 935 z "},"ċ":{"ha":619,"x_min":0,"x_max":0,"o":"m 510 443 l 529 443 l 533 596 b 347 642 486 625 414 642 b 53 314 178 642 53 503 b 335 -18 53 119 174 -18 b 574 179 460 -18 546 57 l 557 183 b 365 40 526 103 460 40 b 136 324 235 40 136 164 b 347 607 136 485 225 607 b 510 443 433 607 499 553 z m 267 885 b 336 819 267 849 297 819 b 401 885 372 819 401 849 b 336 951 401 922 372 951 b 267 885 297 951 267 922 z "},"d":{"ha":710,"x_min":0,"x_max":0,"o":"m 313 -21 b 517 150 415 -21 492 44 l 517 -21 l 674 18 l 674 38 l 651 39 b 588 104 606 43 588 63 l 588 963 l 429 924 l 429 904 l 451 903 b 515 838 496 900 515 881 l 515 561 b 333 642 467 622 396 642 b 54 308 188 642 54 531 b 313 -21 54 111 160 -21 z m 138 321 b 335 607 138 478 200 607 b 515 406 446 607 515 517 l 515 260 b 332 40 514 103 428 40 b 138 321 222 40 138 147 z "},"ð":{"ha":693,"x_min":0,"x_max":0,"o":"m 333 15 b 136 311 210 15 136 121 b 329 607 136 508 210 607 b 529 310 472 607 529 475 b 333 15 529 146 476 15 z m 53 308 b 333 -21 53 106 169 -21 b 619 415 565 -21 619 201 b 463 857 619 653 557 785 l 564 925 l 549 951 l 435 876 b 131 949 349 929 242 943 l 131 914 b 393 846 247 910 333 889 l 285 774 l 303 746 l 419 825 b 528 528 488 763 518 667 b 325 642 492 596 426 642 b 53 308 144 642 53 497 z "},"ď":{"ha":710,"x_min":0,"x_max":0,"o":"m 313 -21 b 517 150 415 -21 492 44 l 517 -21 l 674 18 l 674 38 l 651 39 b 588 104 606 43 588 63 l 588 963 l 429 924 l 429 904 l 451 903 b 515 838 496 900 515 881 l 515 561 b 333 642 467 622 396 642 b 54 308 188 642 54 531 b 313 -21 54 111 160 -21 z m 138 321 b 335 607 138 478 200 607 b 515 406 446 607 515 517 l 515 260 b 332 40 514 103 428 40 b 138 321 222 40 138 147 z m 668 703 l 683 703 l 774 950 l 692 950 z "},"đ":{"ha":710,"x_min":0,"x_max":0,"o":"m 313 -21 b 517 150 415 -21 492 44 l 517 -21 l 674 18 l 674 38 l 651 39 b 588 104 606 43 588 63 l 588 753 l 722 753 l 722 786 l 588 786 l 588 963 l 429 924 l 429 904 l 451 903 b 515 838 496 900 515 881 l 515 786 l 324 786 l 324 753 l 515 753 l 515 561 b 333 642 467 622 396 642 b 54 308 188 642 54 531 b 313 -21 54 111 160 -21 z m 138 321 b 335 607 138 478 200 607 b 515 406 446 607 515 517 l 515 260 b 332 40 514 103 428 40 b 138 321 222 40 138 147 z "},"e":{"ha":636,"x_min":0,"x_max":0,"o":"m 132 340 b 133 369 132 350 132 360 l 571 369 b 574 411 572 383 574 397 b 344 642 574 557 479 642 b 53 301 174 642 53 514 b 331 -18 53 114 165 -18 b 575 179 457 -18 549 57 l 558 183 b 365 43 532 111 465 43 b 132 340 213 43 128 165 z m 138 404 b 331 607 158 528 231 607 b 490 439 424 607 490 547 b 489 404 490 428 490 417 z "},"é":{"ha":636,"x_min":0,"x_max":0,"o":"m 132 340 b 133 369 132 350 132 360 l 571 369 b 574 411 572 383 574 397 b 344 642 574 557 479 642 b 53 301 174 642 53 514 b 331 -18 53 114 165 -18 b 575 179 457 -18 549 57 l 558 183 b 365 43 532 111 465 43 b 132 340 213 43 128 165 z m 138 404 b 331 607 158 528 231 607 b 490 439 424 607 490 547 b 489 404 490 428 490 417 z m 307 751 l 326 751 l 518 963 l 401 963 z "},"ĕ":{"ha":636,"x_min":0,"x_max":0,"o":"m 132 340 b 133 369 132 350 132 360 l 571 369 b 574 411 572 383 574 397 b 344 642 574 557 479 642 b 53 301 174 642 53 514 b 331 -18 53 114 165 -18 b 575 179 457 -18 549 57 l 558 183 b 365 43 532 111 465 43 b 132 340 213 43 128 165 z m 138 404 b 331 607 158 528 231 607 b 490 439 424 607 490 547 b 489 404 490 428 490 417 z m 176 950 b 329 757 175 821 231 757 b 482 950 428 757 483 821 l 467 950 b 329 819 463 853 406 819 b 193 950 253 819 197 853 z "},"ě":{"ha":636,"x_min":0,"x_max":0,"o":"m 132 340 b 133 369 132 350 132 360 l 571 369 b 574 411 572 383 574 397 b 344 642 574 557 479 642 b 53 301 174 642 53 514 b 331 -18 53 114 165 -18 b 575 179 457 -18 549 57 l 558 183 b 365 43 532 111 465 43 b 132 340 213 43 128 165 z m 138 404 b 331 607 158 528 231 607 b 490 439 424 607 490 547 b 489 404 490 428 490 417 z m 140 949 l 282 765 l 376 765 l 515 949 l 497 949 l 329 825 l 158 949 z "},"ê":{"ha":636,"x_min":0,"x_max":0,"o":"m 132 340 b 133 369 132 350 132 360 l 571 369 b 574 411 572 383 574 397 b 344 642 574 557 479 642 b 53 301 174 642 53 514 b 331 -18 53 114 165 -18 b 575 179 457 -18 549 57 l 558 183 b 365 43 532 111 465 43 b 132 340 213 43 128 165 z m 138 404 b 331 607 158 528 231 607 b 490 439 424 607 490 547 b 489 404 490 428 490 417 z m 142 751 l 160 751 l 331 875 l 499 751 l 517 751 l 378 935 l 283 935 z "},"ë":{"ha":636,"x_min":0,"x_max":0,"o":"m 132 340 b 133 369 132 350 132 360 l 571 369 b 574 411 572 383 574 397 b 344 642 574 557 479 642 b 53 301 174 642 53 514 b 331 -18 53 114 165 -18 b 575 179 457 -18 549 57 l 558 183 b 365 43 532 111 465 43 b 132 340 213 43 128 165 z m 138 404 b 331 607 158 528 231 607 b 490 439 424 607 490 547 b 489 404 490 428 490 417 z m 154 843 b 225 778 154 807 185 778 b 290 843 261 778 290 807 b 225 911 290 882 261 911 b 154 843 185 911 154 882 z m 372 843 b 442 778 372 807 403 778 b 508 843 478 778 508 807 b 442 911 508 882 478 911 b 372 843 403 911 372 882 z "},"ė":{"ha":636,"x_min":0,"x_max":0,"o":"m 132 340 b 133 369 132 350 132 360 l 571 369 b 574 411 572 383 574 397 b 344 642 574 557 479 642 b 53 301 174 642 53 514 b 331 -18 53 114 165 -18 b 575 179 457 -18 549 57 l 558 183 b 365 43 532 111 465 43 b 132 340 213 43 128 165 z m 138 404 b 331 607 158 528 231 607 b 490 439 424 607 490 547 b 489 404 490 428 490 417 z m 261 885 b 331 819 261 849 292 819 b 396 885 367 819 396 849 b 331 951 396 922 367 951 b 261 885 292 951 261 922 z "},"è":{"ha":636,"x_min":0,"x_max":0,"o":"m 132 340 b 133 369 132 350 132 360 l 571 369 b 574 411 572 383 574 397 b 344 642 574 557 479 642 b 53 301 174 642 53 514 b 331 -18 53 114 165 -18 b 575 179 457 -18 549 57 l 558 183 b 365 43 532 111 465 43 b 132 340 213 43 128 165 z m 138 404 b 331 607 158 528 231 607 b 490 439 424 607 490 547 b 489 404 490 428 490 417 z m 164 963 l 356 751 l 375 751 l 281 963 z "},"ē":{"ha":636,"x_min":0,"x_max":0,"o":"m 132 340 b 133 369 132 350 132 360 l 571 369 b 574 411 572 383 574 397 b 344 642 574 557 479 642 b 53 301 174 642 53 514 b 331 -18 53 114 165 -18 b 575 179 457 -18 549 57 l 558 183 b 365 43 532 111 465 43 b 132 340 213 43 128 165 z m 138 404 b 331 607 158 528 231 607 b 490 439 424 607 490 547 b 489 404 490 428 490 417 z m 154 806 l 504 806 l 504 839 l 154 839 z "},"ę":{"ha":636,"x_min":0,"x_max":0,"o":"m 132 340 b 133 369 132 350 132 360 l 571 369 b 574 411 572 383 574 397 b 344 642 574 557 479 642 b 53 301 174 642 53 514 b 331 -18 53 114 165 -18 b 381 -14 347 -18 364 -17 b 246 -189 300 -51 246 -118 b 369 -294 246 -251 293 -294 b 499 -194 421 -294 474 -254 l 488 -189 b 386 -251 458 -228 418 -251 b 310 -174 343 -251 310 -221 b 431 0 310 -108 363 -39 b 575 179 504 29 556 92 l 558 183 b 365 43 532 111 465 43 b 132 340 213 43 128 165 z m 138 404 b 331 607 158 528 231 607 b 490 439 424 607 490 547 b 489 404 490 428 490 417 z "},"f":{"ha":401,"x_min":0,"x_max":0,"o":"m 390 621 l 215 621 l 215 761 b 322 914 215 857 257 914 b 431 792 382 914 419 872 l 447 792 l 454 926 b 346 949 425 943 378 949 b 143 731 224 949 143 876 l 143 621 l 38 621 l 38 586 l 143 586 l 143 92 b 51 19 143 47 118 28 l 51 0 l 344 0 l 344 19 b 215 92 253 24 215 44 l 215 586 l 390 586 z "},"g":{"ha":667,"x_min":0,"x_max":0,"o":"m 332 -294 b 633 -89 521 -294 633 -214 b 417 76 633 13 561 68 l 256 85 b 143 167 185 90 143 115 b 176 246 143 197 157 224 b 321 210 215 222 264 210 b 567 426 468 210 567 297 b 493 588 567 494 540 550 l 619 588 l 619 639 b 460 610 556 639 519 622 b 321 642 422 631 375 642 b 75 426 174 642 75 556 b 160 256 75 354 106 294 b 93 135 119 226 93 183 b 154 28 93 88 114 50 b 38 -119 82 -6 38 -56 b 332 -294 38 -228 156 -294 z m 114 -107 b 174 18 114 -51 140 -3 b 256 1 196 8 224 3 l 407 -7 b 564 -111 508 -12 564 -44 b 339 -260 564 -200 479 -260 b 114 -107 199 -260 114 -207 z m 156 426 b 321 607 156 536 222 607 b 488 426 421 607 488 536 b 321 246 488 317 421 246 b 156 426 222 246 156 317 z "},"ğ":{"ha":667,"x_min":0,"x_max":0,"o":"m 332 -294 b 633 -89 521 -294 633 -214 b 417 76 633 13 561 68 l 256 85 b 143 167 185 90 143 115 b 176 246 143 197 157 224 b 321 210 215 222 264 210 b 567 426 468 210 567 297 b 493 588 567 494 540 550 l 619 588 l 619 639 b 460 610 556 639 519 622 b 321 642 422 631 375 642 b 75 426 174 642 75 556 b 160 256 75 354 106 294 b 93 135 119 226 93 183 b 154 28 93 88 114 50 b 38 -119 82 -6 38 -56 b 332 -294 38 -228 156 -294 z m 114 -107 b 174 18 114 -51 140 -3 b 256 1 196 8 224 3 l 407 -7 b 564 -111 508 -12 564 -44 b 339 -260 564 -200 479 -260 b 114 -107 199 -260 114 -207 z m 156 426 b 321 607 156 536 222 607 b 488 426 421 607 488 536 b 321 246 488 317 421 246 b 156 426 222 246 156 317 z m 172 950 b 325 757 171 821 226 757 b 478 950 424 757 479 821 l 463 950 b 325 819 458 853 401 819 b 189 950 249 819 193 853 z "},"ĝ":{"ha":667,"x_min":0,"x_max":0,"o":"m 332 -294 b 633 -89 521 -294 633 -214 b 417 76 633 13 561 68 l 256 85 b 143 167 185 90 143 115 b 176 246 143 197 157 224 b 321 210 215 222 264 210 b 567 426 468 210 567 297 b 493 588 567 494 540 550 l 619 588 l 619 639 b 460 610 556 639 519 622 b 321 642 422 631 375 642 b 75 426 174 642 75 556 b 160 256 75 354 106 294 b 93 135 119 226 93 183 b 154 28 93 88 114 50 b 38 -119 82 -6 38 -56 b 332 -294 38 -228 156 -294 z m 114 -107 b 174 18 114 -51 140 -3 b 256 1 196 8 224 3 l 407 -7 b 564 -111 508 -12 564 -44 b 339 -260 564 -200 479 -260 b 114 -107 199 -260 114 -207 z m 136 751 l 154 751 l 325 875 l 493 751 l 511 751 l 372 935 l 278 935 z m 156 426 b 321 607 156 536 222 607 b 488 426 421 607 488 536 b 321 246 488 317 421 246 b 156 426 222 246 156 317 z "},"ģ":{"ha":667,"x_min":0,"x_max":0,"o":"m 332 -294 b 633 -89 521 -294 633 -214 b 417 76 633 13 561 68 l 256 85 b 143 167 185 90 143 115 b 176 246 143 197 157 224 b 321 210 215 222 264 210 b 567 426 468 210 567 297 b 493 588 567 494 540 550 l 619 588 l 619 639 b 460 610 556 639 519 622 b 321 642 422 631 375 642 b 75 426 174 642 75 556 b 160 256 75 354 106 294 b 93 135 119 226 93 183 b 154 28 93 88 114 50 b 38 -119 82 -6 38 -56 b 332 -294 38 -228 156 -294 z m 114 -107 b 174 18 114 -51 140 -3 b 256 1 196 8 224 3 l 407 -7 b 564 -111 508 -12 564 -44 b 339 -260 564 -200 479 -260 b 114 -107 199 -260 114 -207 z m 156 426 b 321 607 156 536 222 607 b 488 426 421 607 488 536 b 321 246 488 317 421 246 b 156 426 222 246 156 317 z m 258 883 b 326 792 258 828 281 792 b 390 856 364 792 390 817 b 329 918 390 889 364 918 b 300 911 321 918 310 915 b 382 1007 304 968 338 999 l 382 1025 b 258 883 310 1015 258 957 z "},"ġ":{"ha":667,"x_min":0,"x_max":0,"o":"m 332 -294 b 633 -89 521 -294 633 -214 b 417 76 633 13 561 68 l 256 85 b 143 167 185 90 143 115 b 176 246 143 197 157 224 b 321 210 215 222 264 210 b 567 426 468 210 567 297 b 493 588 567 494 540 550 l 619 588 l 619 639 b 460 610 556 639 519 622 b 321 642 422 631 375 642 b 75 426 174 642 75 556 b 160 256 75 354 106 294 b 93 135 119 226 93 183 b 154 28 93 88 114 50 b 38 -119 82 -6 38 -56 b 332 -294 38 -228 156 -294 z m 114 -107 b 174 18 114 -51 140 -3 b 256 1 196 8 224 3 l 407 -7 b 564 -111 508 -12 564 -44 b 339 -260 564 -200 479 -260 b 114 -107 199 -260 114 -207 z m 156 426 b 321 607 156 536 222 607 b 488 426 421 607 488 536 b 321 246 488 317 421 246 b 156 426 222 246 156 317 z m 256 885 b 325 819 256 849 286 819 b 390 885 361 819 390 849 b 325 951 390 922 361 951 b 256 885 286 951 256 922 z "},"h":{"ha":725,"x_min":0,"x_max":0,"o":"m 603 92 l 603 433 b 419 642 603 575 528 642 b 204 474 324 642 244 588 l 204 963 l 46 924 l 46 904 l 68 903 b 132 838 114 900 132 881 l 132 92 b 40 19 132 47 107 28 l 40 0 l 296 0 l 296 19 b 204 92 229 28 204 47 l 204 357 b 393 586 204 524 304 586 b 529 426 469 586 529 542 l 529 92 b 438 19 529 47 504 28 l 438 0 l 693 0 l 693 19 b 603 92 628 28 603 47 z "},"ħ":{"ha":725,"x_min":0,"x_max":0,"o":"m 603 92 l 603 433 b 419 642 603 575 528 642 b 204 474 324 642 244 588 l 204 753 l 417 753 l 417 786 l 204 786 l 204 963 l 46 924 l 46 904 l 68 903 b 132 838 114 900 132 881 l 132 786 l 18 786 l 18 753 l 132 753 l 132 92 b 40 19 132 47 107 28 l 40 0 l 296 0 l 296 19 b 204 92 229 28 204 47 l 204 357 b 393 586 204 524 304 586 b 529 426 469 586 529 542 l 529 92 b 438 19 529 47 504 28 l 438 0 l 693 0 l 693 19 b 603 92 628 28 603 47 z "},"ĥ":{"ha":725,"x_min":0,"x_max":0,"o":"m 603 92 l 603 433 b 419 642 603 575 528 642 b 204 474 324 642 244 588 l 204 963 l 46 924 l 46 904 l 68 903 b 132 838 114 900 132 881 l 132 92 b 40 19 132 47 107 28 l 40 0 l 296 0 l 296 19 b 204 92 229 28 204 47 l 204 357 b 393 586 204 524 304 586 b 529 426 469 586 529 542 l 529 92 b 438 19 529 47 504 28 l 438 0 l 693 0 l 693 19 b 603 92 628 28 603 47 z m -29 1047 l -10 1047 l 169 1144 l 347 1047 l 367 1047 l 218 1204 l 124 1204 z "},"i":{"ha":347,"x_min":0,"x_max":0,"o":"m 211 92 l 211 642 l 51 603 l 51 583 l 74 582 b 138 517 119 579 138 560 l 138 92 b 47 19 138 47 113 28 l 47 0 l 301 0 l 301 19 b 211 92 236 28 211 47 z m 106 885 b 175 819 106 849 136 819 b 240 885 211 819 240 849 b 175 951 240 922 211 951 b 106 885 136 951 106 922 z "},"ı":{"ha":347,"x_min":0,"x_max":0,"o":"m 211 92 l 211 642 l 51 603 l 51 583 l 74 582 b 138 517 119 579 138 560 l 138 92 b 47 19 138 47 113 28 l 47 0 l 301 0 l 301 19 b 211 92 236 28 211 47 z "},"í":{"ha":347,"x_min":0,"x_max":0,"o":"m 211 92 l 211 642 l 51 603 l 51 583 l 74 582 b 138 517 119 579 138 560 l 138 92 b 47 19 138 47 113 28 l 47 0 l 301 0 l 301 19 b 211 92 236 28 211 47 z m 151 751 l 171 751 l 363 963 l 246 963 z "},"ĭ":{"ha":347,"x_min":0,"x_max":0,"o":"m 211 92 l 211 642 l 51 603 l 51 583 l 74 582 b 138 517 119 579 138 560 l 138 92 b 47 19 138 47 113 28 l 47 0 l 301 0 l 301 19 b 211 92 236 28 211 47 z m 22 950 b 175 757 21 821 76 757 b 328 950 274 757 329 821 l 313 950 b 175 819 308 853 251 819 b 39 950 99 819 43 853 z "},"î":{"ha":347,"x_min":0,"x_max":0,"o":"m 211 92 l 211 642 l 51 603 l 51 583 l 74 582 b 138 517 119 579 138 560 l 138 92 b 47 19 138 47 113 28 l 47 0 l 301 0 l 301 19 b 211 92 236 28 211 47 z m -14 751 l 4 751 l 175 875 l 343 751 l 361 751 l 222 935 l 128 935 z "},"ï":{"ha":347,"x_min":0,"x_max":0,"o":"m 211 92 l 211 642 l 51 603 l 51 583 l 74 582 b 138 517 119 579 138 560 l 138 92 b 47 19 138 47 113 28 l 47 0 l 301 0 l 301 19 b 211 92 236 28 211 47 z m -1 843 b 69 778 -1 807 29 778 b 135 843 106 778 135 807 b 69 911 135 882 106 911 b -1 843 29 911 -1 882 z m 217 843 b 286 778 217 807 247 778 b 353 843 322 778 353 807 b 286 911 353 882 322 911 b 217 843 247 911 217 882 z "},"ì":{"ha":347,"x_min":0,"x_max":0,"o":"m 211 92 l 211 642 l 51 603 l 51 583 l 74 582 b 138 517 119 579 138 560 l 138 92 b 47 19 138 47 113 28 l 47 0 l 301 0 l 301 19 b 211 92 236 28 211 47 z m 8 963 l 200 751 l 219 751 l 125 963 z "},"ĳ":{"ha":689,"x_min":0,"x_max":0,"o":"m 211 92 l 211 642 l 51 603 l 51 583 l 74 582 b 138 517 119 579 138 560 l 138 92 b 47 19 138 47 113 28 l 47 0 l 301 0 l 301 19 b 211 92 236 28 211 47 z m 106 885 b 175 819 106 849 136 819 b 240 885 211 819 240 849 b 175 951 240 922 211 951 b 106 885 136 951 106 922 z m 347 -281 l 357 -294 b 564 106 513 -215 564 -99 l 564 642 l 406 603 l 406 583 l 426 582 b 490 517 472 579 490 560 l 490 75 b 347 -281 490 -107 444 -201 z m 458 885 b 528 819 458 849 489 819 b 593 885 564 819 593 849 b 528 951 593 922 564 951 b 458 885 489 951 458 922 z "},"ī":{"ha":347,"x_min":0,"x_max":0,"o":"m 211 92 l 211 642 l 51 603 l 51 583 l 74 582 b 138 517 119 579 138 560 l 138 92 b 47 19 138 47 113 28 l 47 0 l 301 0 l 301 19 b 211 92 236 28 211 47 z m 0 806 l 350 806 l 350 839 l 0 839 z "},"į":{"ha":347,"x_min":0,"x_max":0,"o":"m 211 92 l 211 642 l 51 603 l 51 583 l 74 582 b 138 517 119 579 138 560 l 138 92 b 47 19 138 47 113 28 l 47 0 l 196 0 b 46 -189 103 -47 46 -115 b 169 -294 46 -251 93 -294 b 299 -194 221 -294 274 -254 l 288 -189 b 186 -251 258 -228 218 -251 b 110 -174 143 -251 110 -221 b 228 0 110 -111 156 -50 l 301 0 l 301 19 b 211 92 236 28 211 47 z m 106 885 b 175 819 106 849 136 819 b 240 885 211 819 240 849 b 175 951 240 922 211 951 b 106 885 136 951 106 922 z "},"ĩ":{"ha":347,"x_min":0,"x_max":0,"o":"m 211 92 l 211 642 l 51 603 l 51 583 l 74 582 b 138 517 119 579 138 560 l 138 92 b 47 19 138 47 113 28 l 47 0 l 301 0 l 301 19 b 211 92 236 28 211 47 z m -3 796 l 11 796 b 67 868 17 856 36 868 b 268 792 126 868 201 792 b 349 894 325 792 349 828 l 349 922 l 335 922 b 279 850 329 863 310 850 b 79 926 219 850 146 926 b -3 824 22 926 -3 890 z "},"j":{"ha":289,"x_min":0,"x_max":0,"o":"m 32 583 l 53 582 b 117 517 99 579 117 560 l 117 75 b -26 -281 117 -107 71 -201 l -17 -294 b 190 106 139 -215 190 -99 l 190 642 l 32 603 z m 85 885 b 154 819 85 849 115 819 b 219 885 190 819 219 849 b 154 951 219 922 190 951 b 85 885 115 951 85 922 z "},"ȷ":{"ha":289,"x_min":0,"x_max":0,"o":"m 32 583 l 53 582 b 117 517 99 579 117 560 l 117 75 b -26 -281 117 -107 71 -201 l -17 -294 b 190 106 139 -215 190 -99 l 190 642 l 32 603 z "},"ĵ":{"ha":289,"x_min":0,"x_max":0,"o":"m 32 583 l 53 582 b 117 517 99 579 117 560 l 117 75 b -26 -281 117 -107 71 -201 l -17 -294 b 190 106 139 -215 190 -99 l 190 642 l 32 603 z m -36 751 l -18 751 l 153 875 l 321 751 l 339 751 l 200 935 l 106 935 z "},"k":{"ha":696,"x_min":0,"x_max":0,"o":"m 511 0 l 692 0 l 692 18 b 540 96 635 21 593 42 l 282 356 l 490 521 b 654 601 561 576 610 600 l 654 621 l 435 621 l 435 601 b 486 579 469 599 486 593 b 442 526 486 568 472 550 l 204 339 l 204 963 l 46 924 l 46 904 l 68 903 b 132 838 114 900 132 881 l 132 92 b 40 19 132 47 107 28 l 40 0 l 296 0 l 296 19 b 204 92 229 28 204 47 l 204 332 l 438 101 b 511 0 486 51 508 22 z "},"ķ":{"ha":696,"x_min":0,"x_max":0,"o":"m 511 0 l 692 0 l 692 18 b 540 96 635 21 593 42 l 282 356 l 490 521 b 654 601 561 576 610 600 l 654 621 l 435 621 l 435 601 b 486 579 469 599 486 593 b 442 526 486 568 472 550 l 204 339 l 204 963 l 46 924 l 46 904 l 68 903 b 132 838 114 900 132 881 l 132 92 b 40 19 132 47 107 28 l 40 0 l 296 0 l 296 19 b 204 92 229 28 204 47 l 204 332 l 438 101 b 511 0 486 51 508 22 z m 288 -199 b 349 -261 288 -232 314 -261 b 378 -254 357 -261 368 -258 b 296 -350 374 -311 340 -342 l 296 -368 b 419 -226 368 -358 419 -300 b 351 -135 419 -171 397 -135 b 288 -199 314 -135 288 -160 z "},"ĸ":{"ha":719,"x_min":0,"x_max":0,"o":"m 561 0 l 715 0 l 715 18 b 578 81 651 19 613 46 l 306 356 l 514 521 b 678 601 579 572 631 600 l 678 621 l 471 621 l 471 601 b 506 576 493 600 506 590 b 482 540 506 567 499 553 l 224 336 z m 47 0 l 301 0 l 301 19 b 211 92 236 28 211 47 l 211 642 l 51 603 l 51 583 l 74 582 b 138 517 119 579 138 560 l 138 92 b 47 19 138 47 113 28 z "},"l":{"ha":335,"x_min":0,"x_max":0,"o":"m 204 92 l 204 963 l 46 924 l 46 904 l 68 903 b 132 838 114 900 132 881 l 132 92 b 40 19 132 47 107 28 l 40 0 l 296 0 l 296 19 b 204 92 229 28 204 47 z "},"ĺ":{"ha":335,"x_min":0,"x_max":0,"o":"m 204 92 l 204 963 l 46 924 l 46 904 l 68 903 b 132 838 114 900 132 881 l 132 92 b 40 19 132 47 107 28 l 40 0 l 296 0 l 296 19 b 204 92 229 28 204 47 z m 138 1032 l 157 1032 l 414 1204 l 283 1204 z "},"ľ":{"ha":335,"x_min":0,"x_max":0,"o":"m 204 92 l 204 963 l 46 924 l 46 904 l 68 903 b 132 838 114 900 132 881 l 132 92 b 40 19 132 47 107 28 l 40 0 l 296 0 l 296 19 b 204 92 229 28 204 47 z m 264 703 l 279 703 l 369 950 l 288 950 z "},"ļ":{"ha":335,"x_min":0,"x_max":0,"o":"m 204 92 l 204 963 l 46 924 l 46 904 l 68 903 b 132 838 114 900 132 881 l 132 92 b 40 19 132 47 107 28 l 40 0 l 296 0 l 296 19 b 204 92 229 28 204 47 z m 104 -199 b 165 -261 104 -232 131 -261 b 194 -254 174 -261 185 -258 b 113 -350 190 -311 157 -342 l 113 -368 b 236 -226 185 -358 236 -300 b 168 -135 236 -171 214 -135 b 104 -199 131 -135 104 -160 z "},"ŀ":{"ha":406,"x_min":0,"x_max":0,"o":"m 204 92 l 204 963 l 46 924 l 46 904 l 68 903 b 132 838 114 900 132 881 l 132 92 b 40 19 132 47 107 28 l 40 0 l 296 0 l 296 19 b 204 92 229 28 204 47 z m 288 486 b 360 415 288 446 318 415 b 431 486 401 415 431 446 b 360 557 431 528 401 557 b 288 486 318 557 288 528 z "},"ł":{"ha":390,"x_min":0,"x_max":0,"o":"m 232 92 l 232 547 l 346 600 l 346 633 l 232 581 l 232 963 l 74 924 l 74 904 l 96 903 b 160 838 142 900 160 881 l 160 553 l 58 506 l 58 472 l 160 519 l 160 92 b 68 19 160 47 135 28 l 68 0 l 324 0 l 324 19 b 232 92 257 28 232 47 z "},"m":{"ha":1129,"x_min":0,"x_max":0,"o":"m 1006 92 l 1006 433 b 822 642 1006 575 931 642 b 607 468 725 642 644 585 b 425 642 594 586 524 642 b 211 474 329 642 250 588 l 211 642 l 51 603 l 51 583 l 74 582 b 138 517 119 579 138 560 l 138 92 b 47 19 138 47 113 28 l 47 0 l 301 0 l 301 19 b 211 92 236 28 211 47 l 211 357 b 400 586 211 524 311 586 b 535 426 475 586 535 542 l 535 92 b 444 19 535 47 510 28 l 444 0 l 699 0 l 699 19 b 608 92 633 28 608 47 l 608 357 b 797 586 608 524 708 586 b 932 426 872 586 932 542 l 932 92 b 842 19 932 47 907 28 l 842 0 l 1096 0 l 1096 19 b 1006 92 1031 28 1006 47 z "},"n":{"ha":731,"x_min":0,"x_max":0,"o":"m 608 92 l 608 433 b 425 642 608 575 533 642 b 211 474 329 642 250 588 l 211 642 l 51 603 l 51 583 l 74 582 b 138 517 119 579 138 560 l 138 92 b 47 19 138 47 113 28 l 47 0 l 301 0 l 301 19 b 211 92 236 28 211 47 l 211 357 b 400 586 211 524 311 586 b 535 426 475 586 535 542 l 535 92 b 444 19 535 47 510 28 l 444 0 l 699 0 l 699 19 b 608 92 633 28 608 47 z "},"ń":{"ha":731,"x_min":0,"x_max":0,"o":"m 608 92 l 608 433 b 425 642 608 575 533 642 b 211 474 329 642 250 588 l 211 642 l 51 603 l 51 583 l 74 582 b 138 517 119 579 138 560 l 138 92 b 47 19 138 47 113 28 l 47 0 l 301 0 l 301 19 b 211 92 236 28 211 47 l 211 357 b 400 586 211 524 311 586 b 535 426 475 586 535 542 l 535 92 b 444 19 535 47 510 28 l 444 0 l 699 0 l 699 19 b 608 92 633 28 608 47 z m 350 751 l 369 751 l 561 963 l 444 963 z "},"ŉ":{"ha":800,"x_min":0,"x_max":0,"o":"m 608 92 l 608 433 b 425 642 608 575 533 642 b 211 474 329 642 250 588 l 211 642 l 51 603 l 51 583 l 74 582 b 138 517 119 579 138 560 l 138 92 b 47 19 138 47 113 28 l 47 0 l 301 0 l 301 19 b 211 92 236 28 211 47 l 211 357 b 400 586 211 524 311 586 b 535 426 475 586 535 542 l 535 92 b 444 19 535 47 510 28 l 444 0 l 699 0 l 699 19 b 608 92 633 28 608 47 z m 78 957 b 139 901 78 928 104 901 b 168 907 149 901 158 903 b 86 821 164 856 131 829 l 86 804 b 210 932 158 814 210 867 b 142 1015 210 982 188 1015 b 78 957 104 1015 78 992 z "},"ň":{"ha":731,"x_min":0,"x_max":0,"o":"m 608 92 l 608 433 b 425 642 608 575 533 642 b 211 474 329 642 250 588 l 211 642 l 51 603 l 51 583 l 74 582 b 138 517 119 579 138 560 l 138 92 b 47 19 138 47 113 28 l 47 0 l 301 0 l 301 19 b 211 92 236 28 211 47 l 211 357 b 400 586 211 524 311 586 b 535 426 475 586 535 542 l 535 92 b 444 19 535 47 510 28 l 444 0 l 699 0 l 699 19 b 608 92 633 28 608 47 z m 182 949 l 324 765 l 418 765 l 557 949 l 539 949 l 371 825 l 200 949 z "},"ņ":{"ha":731,"x_min":0,"x_max":0,"o":"m 608 92 l 608 433 b 425 642 608 575 533 642 b 211 474 329 642 250 588 l 211 642 l 51 603 l 51 583 l 74 582 b 138 517 119 579 138 560 l 138 92 b 47 19 138 47 113 28 l 47 0 l 301 0 l 301 19 b 211 92 236 28 211 47 l 211 357 b 400 586 211 524 311 586 b 535 426 475 586 535 542 l 535 92 b 444 19 535 47 510 28 l 444 0 l 699 0 l 699 19 b 608 92 633 28 608 47 z m 310 -199 b 371 -261 310 -232 336 -261 b 400 -254 379 -261 390 -258 b 318 -350 396 -311 363 -342 l 318 -368 b 442 -226 390 -358 442 -300 b 374 -135 442 -171 419 -135 b 310 -199 336 -135 310 -160 z "},"ñ":{"ha":731,"x_min":0,"x_max":0,"o":"m 608 92 l 608 433 b 425 642 608 575 533 642 b 211 474 329 642 250 588 l 211 642 l 51 603 l 51 583 l 74 582 b 138 517 119 579 138 560 l 138 92 b 47 19 138 47 113 28 l 47 0 l 301 0 l 301 19 b 211 92 236 28 211 47 l 211 357 b 400 586 211 524 311 586 b 535 426 475 586 535 542 l 535 92 b 444 19 535 47 510 28 l 444 0 l 699 0 l 699 19 b 608 92 633 28 608 47 z m 194 796 l 208 796 b 264 868 214 856 233 868 b 465 792 324 868 399 792 b 546 894 522 792 546 828 l 546 922 l 532 922 b 476 850 526 863 507 850 b 276 926 417 850 343 926 b 194 824 219 926 194 890 z "},"ŋ":{"ha":706,"x_min":0,"x_max":0,"o":"m 533 446 l 533 75 b 390 -281 533 -107 488 -201 l 399 -294 b 606 106 554 -215 606 -99 l 606 447 b 422 642 606 567 539 642 b 208 469 331 642 247 585 l 208 642 l 192 642 l 38 599 l 38 581 l 72 581 b 135 517 121 579 135 556 l 135 92 b 46 18 135 36 93 26 l 46 0 l 299 0 l 299 18 b 208 92 251 26 208 36 l 208 357 b 399 586 208 524 315 586 b 533 446 482 586 533 533 z "},"o":{"ha":665,"x_min":0,"x_max":0,"o":"m 333 -19 b 613 311 500 -19 613 114 b 333 642 613 508 500 642 b 53 311 165 642 53 508 b 333 -19 53 114 165 -19 z m 136 311 b 333 607 136 499 211 607 b 529 311 454 607 529 499 b 333 15 529 125 454 15 b 136 311 211 15 136 125 z "},"ó":{"ha":665,"x_min":0,"x_max":0,"o":"m 333 -19 b 613 311 500 -19 613 114 b 333 642 613 508 500 642 b 53 311 165 642 53 508 b 333 -19 53 114 165 -19 z m 136 311 b 333 607 136 499 211 607 b 529 311 454 607 529 499 b 333 15 529 125 454 15 b 136 311 211 15 136 125 z m 313 751 l 332 751 l 524 963 l 407 963 z "},"ŏ":{"ha":665,"x_min":0,"x_max":0,"o":"m 333 -19 b 613 311 500 -19 613 114 b 333 642 613 508 500 642 b 53 311 165 642 53 508 b 333 -19 53 114 165 -19 z m 136 311 b 333 607 136 499 211 607 b 529 311 454 607 529 499 b 333 15 529 125 454 15 b 136 311 211 15 136 125 z m 182 950 b 335 757 181 821 236 757 b 488 950 433 757 489 821 l 472 950 b 335 819 468 853 411 819 b 199 950 258 819 203 853 z "},"ô":{"ha":665,"x_min":0,"x_max":0,"o":"m 333 -19 b 613 311 500 -19 613 114 b 333 642 613 508 500 642 b 53 311 165 642 53 508 b 333 -19 53 114 165 -19 z m 136 311 b 333 607 136 499 211 607 b 529 311 454 607 529 499 b 333 15 529 125 454 15 b 136 311 211 15 136 125 z m 146 751 l 164 751 l 335 875 l 503 751 l 521 751 l 382 935 l 288 935 z "},"ö":{"ha":665,"x_min":0,"x_max":0,"o":"m 333 -19 b 613 311 500 -19 613 114 b 333 642 613 508 500 642 b 53 311 165 642 53 508 b 333 -19 53 114 165 -19 z m 136 311 b 333 607 136 499 211 607 b 529 311 454 607 529 499 b 333 15 529 125 454 15 b 136 311 211 15 136 125 z m 158 843 b 229 778 158 807 189 778 b 294 843 265 778 294 807 b 229 911 294 882 265 911 b 158 843 189 911 158 882 z m 376 843 b 446 778 376 807 407 778 b 513 843 482 778 513 807 b 446 911 513 882 482 911 b 376 843 407 911 376 882 z "},"ò":{"ha":665,"x_min":0,"x_max":0,"o":"m 333 -19 b 613 311 500 -19 613 114 b 333 642 613 508 500 642 b 53 311 165 642 53 508 b 333 -19 53 114 165 -19 z m 136 311 b 333 607 136 499 211 607 b 529 311 454 607 529 499 b 333 15 529 125 454 15 b 136 311 211 15 136 125 z m 168 963 l 360 751 l 379 751 l 285 963 z "},"ő":{"ha":665,"x_min":0,"x_max":0,"o":"m 333 -19 b 613 311 500 -19 613 114 b 333 642 613 508 500 642 b 53 311 165 642 53 508 b 333 -19 53 114 165 -19 z m 136 311 b 333 607 136 499 211 607 b 529 311 454 607 529 499 b 333 15 529 125 454 15 b 136 311 211 15 136 125 z m 219 751 l 238 751 l 393 963 l 304 963 z m 376 751 l 396 751 l 553 963 l 463 963 z "},"ō":{"ha":665,"x_min":0,"x_max":0,"o":"m 333 -19 b 613 311 500 -19 613 114 b 333 642 613 508 500 642 b 53 311 165 642 53 508 b 333 -19 53 114 165 -19 z m 136 311 b 333 607 136 499 211 607 b 529 311 454 607 529 499 b 333 15 529 125 454 15 b 136 311 211 15 136 125 z m 160 806 l 510 806 l 510 839 l 160 839 z "},"ø":{"ha":665,"x_min":0,"x_max":0,"o":"m 333 -19 b 613 311 500 -19 613 114 b 479 600 613 443 563 546 l 519 688 l 490 699 l 453 615 b 333 642 418 632 378 642 b 53 311 165 642 53 508 b 186 22 53 179 103 76 l 151 -57 l 178 -68 l 213 7 b 333 -19 249 -10 289 -19 z m 136 311 b 333 607 136 499 211 607 b 433 575 371 607 406 596 l 210 68 b 136 311 163 118 136 201 z m 232 47 l 457 554 b 529 311 503 504 529 421 b 333 15 529 125 454 15 b 232 47 294 15 260 26 z "},"ǿ":{"ha":665,"x_min":0,"x_max":0,"o":"m 333 -19 b 613 311 500 -19 613 114 b 479 600 613 443 563 546 l 519 688 l 490 699 l 453 615 b 333 642 418 632 378 642 b 53 311 165 642 53 508 b 186 22 53 179 103 76 l 151 -57 l 178 -68 l 213 7 b 333 -19 249 -10 289 -19 z m 136 311 b 333 607 136 499 211 607 b 433 575 371 607 406 596 l 210 68 b 136 311 163 118 136 201 z m 232 47 l 457 554 b 529 311 503 504 529 421 b 333 15 529 125 454 15 b 232 47 294 15 260 26 z m 313 751 l 332 751 l 524 963 l 407 963 z "},"õ":{"ha":665,"x_min":0,"x_max":0,"o":"m 333 -19 b 613 311 500 -19 613 114 b 333 642 613 508 500 642 b 53 311 165 642 53 508 b 333 -19 53 114 165 -19 z m 136 311 b 333 607 136 499 211 607 b 529 311 454 607 529 499 b 333 15 529 125 454 15 b 136 311 211 15 136 125 z m 157 796 l 171 796 b 226 868 176 856 196 868 b 428 792 286 868 361 792 b 508 894 485 792 508 828 l 508 922 l 494 922 b 439 850 489 863 469 850 b 239 926 379 850 306 926 b 157 824 182 926 157 890 z "},"œ":{"ha":1118,"x_min":0,"x_max":0,"o":"m 333 -19 b 574 129 442 -19 526 36 b 813 -18 619 38 704 -18 b 1057 179 939 -18 1031 57 l 1040 183 b 847 43 1014 111 947 43 b 614 340 694 43 610 165 l 615 369 l 1053 369 b 1056 411 1054 383 1056 397 b 826 642 1056 557 961 642 b 575 489 714 642 624 588 b 333 642 529 585 443 642 b 53 311 165 642 53 508 b 333 -19 53 114 165 -19 z m 136 311 b 333 607 136 499 211 607 b 529 311 454 607 529 499 b 333 15 529 125 454 15 b 136 311 211 15 136 125 z m 619 404 b 813 607 640 528 713 607 b 972 439 906 607 972 547 b 971 404 972 428 972 417 z "},"p":{"ha":725,"x_min":0,"x_max":0,"o":"m 414 644 b 211 478 311 644 236 581 l 211 642 l 51 603 l 51 583 l 74 582 b 138 517 119 579 138 560 l 138 -182 b 47 -254 138 -226 113 -246 l 47 -274 l 339 -274 l 339 -254 b 211 -182 247 -250 211 -229 l 211 63 b 392 -18 258 1 331 -18 b 672 315 538 -18 672 93 b 414 644 672 513 565 644 z m 211 218 l 211 364 b 394 583 211 521 297 583 b 588 303 504 583 588 476 b 392 17 588 146 526 17 b 211 218 281 17 211 106 z "},"þ":{"ha":739,"x_min":0,"x_max":0,"o":"m 221 -182 l 221 53 b 403 -21 271 -3 342 -21 b 682 313 549 -21 682 90 b 424 642 682 510 576 642 b 221 475 322 642 247 579 l 221 963 l 61 924 l 61 904 l 83 903 b 147 838 129 900 147 881 l 147 -182 b 57 -254 147 -226 122 -246 l 57 -274 l 349 -274 l 349 -254 b 221 -182 257 -250 221 -229 z m 221 215 l 221 361 b 404 581 221 518 308 581 b 599 300 514 581 599 474 b 401 14 599 143 536 14 b 221 215 290 14 221 103 z "},"q":{"ha":690,"x_min":0,"x_max":0,"o":"m 588 -182 l 588 642 l 494 588 b 332 642 447 628 386 642 b 53 308 188 642 53 531 b 311 -21 53 111 158 -21 b 514 146 414 -21 489 43 l 514 -182 b 386 -254 514 -229 478 -250 l 386 -274 l 678 -274 l 678 -254 b 588 -182 613 -246 588 -226 z m 136 321 b 333 607 136 478 199 607 b 514 406 444 607 514 518 l 514 260 b 331 40 514 103 426 40 b 136 321 221 40 136 147 z "},"r":{"ha":461,"x_min":0,"x_max":0,"o":"m 211 461 l 211 642 l 51 603 l 51 583 l 74 582 b 138 517 119 579 138 560 l 138 92 b 47 19 138 47 113 28 l 47 0 l 339 0 l 339 19 b 211 92 247 24 211 44 l 211 344 b 360 569 214 492 282 569 b 429 549 382 569 407 563 l 440 626 b 379 642 419 636 400 642 b 211 461 306 642 239 575 z "},"ŕ":{"ha":461,"x_min":0,"x_max":0,"o":"m 211 461 l 211 642 l 51 603 l 51 583 l 74 582 b 138 517 119 579 138 560 l 138 92 b 47 19 138 47 113 28 l 47 0 l 339 0 l 339 19 b 211 92 247 24 211 44 l 211 344 b 360 569 214 492 282 569 b 429 549 382 569 407 563 l 440 626 b 379 642 419 636 400 642 b 211 461 306 642 239 575 z m 244 751 l 264 751 l 456 963 l 339 963 z "},"ř":{"ha":461,"x_min":0,"x_max":0,"o":"m 211 461 l 211 642 l 51 603 l 51 583 l 74 582 b 138 517 119 579 138 560 l 138 92 b 47 19 138 47 113 28 l 47 0 l 339 0 l 339 19 b 211 92 247 24 211 44 l 211 344 b 360 569 214 492 282 569 b 429 549 382 569 407 563 l 440 626 b 379 642 419 636 400 642 b 211 461 306 642 239 575 z m 78 949 l 219 765 l 314 765 l 453 949 l 435 949 l 267 825 l 96 949 z "},"ŗ":{"ha":461,"x_min":0,"x_max":0,"o":"m 211 461 l 211 642 l 51 603 l 51 583 l 74 582 b 138 517 119 579 138 560 l 138 92 b 47 19 138 47 113 28 l 47 0 l 339 0 l 339 19 b 211 92 247 24 211 44 l 211 344 b 360 569 214 492 282 569 b 429 549 382 569 407 563 l 440 626 b 379 642 419 636 400 642 b 211 461 306 642 239 575 z m 118 -199 b 179 -261 118 -232 144 -261 b 208 -254 188 -261 199 -258 b 126 -350 204 -311 171 -342 l 126 -368 b 250 -226 199 -358 250 -300 b 182 -135 250 -171 228 -135 b 118 -199 144 -135 118 -160 z "},"s":{"ha":561,"x_min":0,"x_max":0,"o":"m 100 203 l 81 203 l 76 50 b 288 -21 118 10 194 -21 b 497 158 415 -21 497 51 b 138 493 497 415 138 319 b 272 607 138 561 193 607 b 432 444 357 607 417 546 l 451 444 l 454 597 b 275 642 410 625 349 642 b 78 479 157 642 78 576 b 438 143 78 233 438 332 b 289 14 438 65 378 14 b 100 203 194 14 122 85 z "},"ś":{"ha":561,"x_min":0,"x_max":0,"o":"m 100 203 l 81 203 l 76 50 b 288 -21 118 10 194 -21 b 497 158 415 -21 497 51 b 138 493 497 415 138 319 b 272 607 138 561 193 607 b 432 444 357 607 417 546 l 451 444 l 454 597 b 275 642 410 625 349 642 b 78 479 157 642 78 576 b 438 143 78 233 438 332 b 289 14 438 65 378 14 b 100 203 194 14 122 85 z m 261 751 l 281 751 l 472 963 l 356 963 z "},"š":{"ha":561,"x_min":0,"x_max":0,"o":"m 100 203 l 81 203 l 76 50 b 288 -21 118 10 194 -21 b 497 158 415 -21 497 51 b 138 493 497 415 138 319 b 272 607 138 561 193 607 b 432 444 357 607 417 546 l 451 444 l 454 597 b 275 642 410 625 349 642 b 78 479 157 642 78 576 b 438 143 78 233 438 332 b 289 14 438 65 378 14 b 100 203 194 14 122 85 z m 93 949 l 235 765 l 329 765 l 468 949 l 450 949 l 282 825 l 111 949 z "},"ş":{"ha":561,"x_min":0,"x_max":0,"o":"m 100 203 l 81 203 l 76 50 b 260 -19 114 14 179 -15 l 219 -132 b 313 -203 288 -146 313 -168 b 240 -262 313 -242 281 -262 b 165 -240 217 -262 192 -256 l 157 -251 b 268 -294 192 -282 228 -294 b 385 -193 338 -294 385 -254 b 263 -83 385 -133 338 -99 l 285 -21 l 288 -21 b 497 158 415 -21 497 51 b 138 493 497 415 138 319 b 272 607 138 561 193 607 b 432 444 357 607 417 546 l 451 444 l 454 597 b 275 642 410 625 349 642 b 78 479 157 642 78 576 b 438 143 78 233 438 332 b 289 14 438 65 378 14 b 100 203 194 14 122 85 z "},"ŝ":{"ha":561,"x_min":0,"x_max":0,"o":"m 100 203 l 81 203 l 76 50 b 288 -21 118 10 194 -21 b 497 158 415 -21 497 51 b 138 493 497 415 138 319 b 272 607 138 561 193 607 b 432 444 357 607 417 546 l 451 444 l 454 597 b 275 642 410 625 349 642 b 78 479 157 642 78 576 b 438 143 78 233 438 332 b 289 14 438 65 378 14 b 100 203 194 14 122 85 z m 94 751 l 113 751 l 283 875 l 451 751 l 469 751 l 331 935 l 236 935 z "},"ș":{"ha":561,"x_min":0,"x_max":0,"o":"m 100 203 l 81 203 l 76 50 b 288 -21 118 10 194 -21 b 497 158 415 -21 497 51 b 138 493 497 415 138 319 b 272 607 138 561 193 607 b 432 444 357 607 417 546 l 451 444 l 454 597 b 275 642 410 625 349 642 b 78 479 157 642 78 576 b 438 143 78 233 438 332 b 289 14 438 65 378 14 b 100 203 194 14 122 85 z m 221 -199 b 282 -261 221 -232 247 -261 b 311 -254 290 -261 301 -258 b 229 -350 307 -311 274 -342 l 229 -368 b 353 -226 301 -358 353 -300 b 285 -135 353 -171 331 -135 b 221 -199 247 -135 221 -160 z "},"ß":{"ha":764,"x_min":0,"x_max":0,"o":"m 215 93 l 215 713 b 381 914 215 871 285 914 b 556 635 500 914 553 832 b 381 468 436 618 381 558 b 654 135 381 263 654 299 b 531 14 654 44 597 14 b 378 203 449 14 399 86 l 358 203 l 354 47 b 531 -21 383 10 451 -21 b 714 153 640 -21 714 40 b 442 490 714 364 442 347 b 626 604 442 564 488 604 l 626 657 b 382 949 626 853 553 949 b 143 682 250 949 143 889 l 143 621 l 38 621 l 38 586 l 143 586 l 143 93 b 49 18 143 38 96 25 l 49 0 l 317 0 l 317 18 b 215 93 254 26 215 39 z "},"ſ":{"ha":401,"x_min":0,"x_max":0,"o":"m 431 817 l 447 817 l 454 933 b 342 949 425 943 379 949 b 143 731 225 949 143 876 l 143 621 l 38 621 l 38 586 l 143 586 l 143 93 b 49 18 143 38 96 25 l 49 0 l 344 0 l 344 18 b 215 93 254 26 215 39 l 215 761 b 329 914 215 857 254 914 b 431 817 363 914 411 888 z "},"t":{"ha":413,"x_min":0,"x_max":0,"o":"m 375 67 l 358 74 b 289 33 346 49 321 33 b 185 156 221 33 185 74 l 185 586 l 368 586 l 368 621 l 185 621 l 185 785 l 165 785 b 29 606 119 699 76 653 l 29 586 l 111 586 l 111 164 b 254 -18 111 43 160 -18 b 375 67 307 -18 353 15 z "},"ŧ":{"ha":413,"x_min":0,"x_max":0,"o":"m 375 67 l 358 74 b 289 33 346 49 321 33 b 185 156 221 33 185 74 l 185 394 l 368 394 l 368 428 l 185 428 l 185 586 l 368 586 l 368 621 l 185 621 l 185 785 l 165 785 b 29 606 119 699 76 653 l 29 586 l 111 586 l 111 428 l 33 428 l 33 394 l 111 394 l 111 164 b 254 -18 111 43 160 -18 b 375 67 307 -18 353 15 z "},"ť":{"ha":413,"x_min":0,"x_max":0,"o":"m 375 67 l 358 74 b 289 33 346 49 321 33 b 185 156 221 33 185 74 l 185 586 l 368 586 l 368 621 l 185 621 l 185 785 l 165 785 b 29 606 119 699 76 653 l 29 586 l 111 586 l 111 164 b 254 -18 111 43 160 -18 b 375 67 307 -18 353 15 z m 275 703 l 290 703 l 381 950 l 299 950 z "},"ţ":{"ha":413,"x_min":0,"x_max":0,"o":"m 375 67 l 358 74 b 289 33 346 49 321 33 b 185 156 221 33 185 74 l 185 586 l 368 586 l 368 621 l 185 621 l 185 785 l 165 785 b 29 606 119 699 76 653 l 29 586 l 111 586 l 111 164 b 206 -11 111 67 143 7 l 161 -132 b 254 -203 229 -146 254 -168 b 182 -262 254 -242 222 -262 b 107 -240 158 -262 133 -256 l 99 -251 b 210 -294 133 -282 169 -294 b 326 -193 279 -294 326 -254 b 204 -83 326 -133 279 -99 l 228 -17 b 254 -18 236 -18 244 -18 b 375 67 307 -18 353 15 z "},"ț":{"ha":413,"x_min":0,"x_max":0,"o":"m 375 67 l 358 74 b 289 33 346 49 321 33 b 185 156 221 33 185 74 l 185 586 l 368 586 l 368 621 l 185 621 l 185 785 l 165 785 b 29 606 119 699 76 653 l 29 586 l 111 586 l 111 164 b 254 -18 111 43 160 -18 b 375 67 307 -18 353 15 z m 163 -199 b 224 -261 163 -232 189 -261 b 253 -254 232 -261 243 -258 b 171 -350 249 -311 215 -342 l 171 -368 b 294 -226 243 -358 294 -300 b 226 -135 294 -171 272 -135 b 163 -199 189 -135 163 -160 z "},"u":{"ha":707,"x_min":0,"x_max":0,"o":"m 650 38 b 586 104 604 42 586 61 l 586 642 l 426 603 l 426 583 l 449 582 b 513 517 494 579 513 560 l 513 264 b 324 35 513 99 413 35 b 189 194 249 35 189 81 l 189 642 l 29 603 l 29 583 l 51 582 b 115 517 97 579 115 560 l 115 189 b 299 -21 115 47 190 -21 b 514 151 396 -21 476 36 l 514 -22 l 671 17 l 671 36 z "},"ú":{"ha":707,"x_min":0,"x_max":0,"o":"m 650 38 b 586 104 604 42 586 61 l 586 642 l 426 603 l 426 583 l 449 582 b 513 517 494 579 513 560 l 513 264 b 324 35 513 99 413 35 b 189 194 249 35 189 81 l 189 642 l 29 603 l 29 583 l 51 582 b 115 517 97 579 115 560 l 115 189 b 299 -21 115 47 190 -21 b 514 151 396 -21 476 36 l 514 -22 l 671 17 l 671 36 z m 325 751 l 344 751 l 536 963 l 419 963 z "},"ŭ":{"ha":707,"x_min":0,"x_max":0,"o":"m 650 38 b 586 104 604 42 586 61 l 586 642 l 426 603 l 426 583 l 449 582 b 513 517 494 579 513 560 l 513 264 b 324 35 513 99 413 35 b 189 194 249 35 189 81 l 189 642 l 29 603 l 29 583 l 51 582 b 115 517 97 579 115 560 l 115 189 b 299 -21 115 47 190 -21 b 514 151 396 -21 476 36 l 514 -22 l 671 17 l 671 36 z m 194 950 b 347 757 193 821 249 757 b 500 950 446 757 501 821 l 485 950 b 347 819 481 853 424 819 b 211 950 271 819 215 853 z "},"û":{"ha":707,"x_min":0,"x_max":0,"o":"m 650 38 b 586 104 604 42 586 61 l 586 642 l 426 603 l 426 583 l 449 582 b 513 517 494 579 513 560 l 513 264 b 324 35 513 99 413 35 b 189 194 249 35 189 81 l 189 642 l 29 603 l 29 583 l 51 582 b 115 517 97 579 115 560 l 115 189 b 299 -21 115 47 190 -21 b 514 151 396 -21 476 36 l 514 -22 l 671 17 l 671 36 z m 158 751 l 176 751 l 347 875 l 515 751 l 533 751 l 394 935 l 300 935 z "},"ü":{"ha":707,"x_min":0,"x_max":0,"o":"m 650 38 b 586 104 604 42 586 61 l 586 642 l 426 603 l 426 583 l 449 582 b 513 517 494 579 513 560 l 513 264 b 324 35 513 99 413 35 b 189 194 249 35 189 81 l 189 642 l 29 603 l 29 583 l 51 582 b 115 517 97 579 115 560 l 115 189 b 299 -21 115 47 190 -21 b 514 151 396 -21 476 36 l 514 -22 l 671 17 l 671 36 z m 171 843 b 242 778 171 807 201 778 b 307 843 278 778 307 807 b 242 911 307 882 278 911 b 171 843 201 911 171 882 z m 389 843 b 458 778 389 807 419 778 b 525 843 494 778 525 807 b 458 911 525 882 494 911 b 389 843 419 911 389 882 z "},"ù":{"ha":707,"x_min":0,"x_max":0,"o":"m 650 38 b 586 104 604 42 586 61 l 586 642 l 426 603 l 426 583 l 449 582 b 513 517 494 579 513 560 l 513 264 b 324 35 513 99 413 35 b 189 194 249 35 189 81 l 189 642 l 29 603 l 29 583 l 51 582 b 115 517 97 579 115 560 l 115 189 b 299 -21 115 47 190 -21 b 514 151 396 -21 476 36 l 514 -22 l 671 17 l 671 36 z m 181 963 l 372 751 l 392 751 l 297 963 z "},"ű":{"ha":707,"x_min":0,"x_max":0,"o":"m 650 38 b 586 104 604 42 586 61 l 586 642 l 426 603 l 426 583 l 449 582 b 513 517 494 579 513 560 l 513 264 b 324 35 513 99 413 35 b 189 194 249 35 189 81 l 189 642 l 29 603 l 29 583 l 51 582 b 115 517 97 579 115 560 l 115 189 b 299 -21 115 47 190 -21 b 514 151 396 -21 476 36 l 514 -22 l 671 17 l 671 36 z m 232 751 l 250 751 l 406 963 l 317 963 z m 389 751 l 408 751 l 565 963 l 475 963 z "},"ū":{"ha":707,"x_min":0,"x_max":0,"o":"m 650 38 b 586 104 604 42 586 61 l 586 642 l 426 603 l 426 583 l 449 582 b 513 517 494 579 513 560 l 513 264 b 324 35 513 99 413 35 b 189 194 249 35 189 81 l 189 642 l 29 603 l 29 583 l 51 582 b 115 517 97 579 115 560 l 115 189 b 299 -21 115 47 190 -21 b 514 151 396 -21 476 36 l 514 -22 l 671 17 l 671 36 z m 172 806 l 522 806 l 522 839 l 172 839 z "},"ų":{"ha":707,"x_min":0,"x_max":0,"o":"m 650 38 b 586 104 604 42 586 61 l 586 642 l 426 603 l 426 583 l 449 582 b 513 517 494 579 513 560 l 513 264 b 324 35 513 99 413 35 b 189 194 249 35 189 81 l 189 642 l 29 603 l 29 583 l 51 582 b 115 517 97 579 115 560 l 115 189 b 299 -21 115 47 190 -21 b 514 151 396 -21 476 36 l 514 -19 b 392 -189 440 -58 392 -122 b 515 -294 392 -251 439 -294 b 644 -194 567 -294 619 -254 l 633 -189 b 532 -251 604 -228 564 -251 b 456 -174 489 -251 456 -221 b 558 -11 456 -114 499 -51 l 671 17 l 671 36 z "},"ů":{"ha":707,"x_min":0,"x_max":0,"o":"m 650 38 b 586 104 604 42 586 61 l 586 642 l 426 603 l 426 583 l 449 582 b 513 517 494 579 513 560 l 513 264 b 324 35 513 99 413 35 b 189 194 249 35 189 81 l 189 642 l 29 603 l 29 583 l 51 582 b 115 517 97 579 115 560 l 115 189 b 299 -21 115 47 190 -21 b 514 151 396 -21 476 36 l 514 -22 l 671 17 l 671 36 z m 221 871 b 346 753 221 803 274 753 b 471 871 418 753 471 803 b 346 988 471 938 418 988 b 221 871 274 988 221 938 z m 254 871 b 346 961 254 924 294 961 b 438 871 399 961 438 924 b 346 781 438 818 399 781 b 254 871 294 781 254 818 z "},"ũ":{"ha":707,"x_min":0,"x_max":0,"o":"m 650 38 b 586 104 604 42 586 61 l 586 642 l 426 603 l 426 583 l 449 582 b 513 517 494 579 513 560 l 513 264 b 324 35 513 99 413 35 b 189 194 249 35 189 81 l 189 642 l 29 603 l 29 583 l 51 582 b 115 517 97 579 115 560 l 115 189 b 299 -21 115 47 190 -21 b 514 151 396 -21 476 36 l 514 -22 l 671 17 l 671 36 z m 169 796 l 183 796 b 239 868 189 856 208 868 b 440 792 299 868 374 792 b 521 894 497 792 521 828 l 521 922 l 507 922 b 451 850 501 863 482 850 b 251 926 392 850 318 926 b 169 824 194 926 169 890 z "},"v":{"ha":626,"x_min":0,"x_max":0,"o":"m 86 526 l 303 -19 l 322 -19 l 540 521 b 635 601 561 575 589 599 l 635 621 l 424 621 l 424 601 b 511 556 483 599 511 585 b 503 522 511 546 508 535 l 333 97 l 168 525 b 161 558 164 538 161 549 b 233 601 161 586 183 600 l 233 621 l -8 621 l -8 601 b 86 526 40 597 67 576 z "},"w":{"ha":961,"x_min":0,"x_max":0,"o":"m 431 529 l 458 457 l 318 101 l 157 528 b 150 561 151 540 150 551 b 232 603 150 589 175 601 l 232 621 l -8 621 l -8 603 b 79 526 35 599 60 578 l 289 -19 l 307 -19 l 476 410 l 644 -19 l 661 -19 l 874 519 b 969 603 897 578 925 601 l 969 621 l 760 621 l 760 603 b 847 556 819 600 847 585 b 839 521 847 546 844 533 l 674 101 l 511 529 b 504 561 506 542 504 553 b 586 603 504 589 529 601 l 586 621 l 346 621 l 346 603 b 431 529 389 599 411 578 z "},"ẃ":{"ha":961,"x_min":0,"x_max":0,"o":"m 431 529 l 458 457 l 318 101 l 157 528 b 150 561 151 540 150 551 b 232 603 150 589 175 601 l 232 621 l -8 621 l -8 603 b 79 526 35 599 60 578 l 289 -19 l 307 -19 l 476 410 l 644 -19 l 661 -19 l 874 519 b 969 603 897 578 925 601 l 969 621 l 760 621 l 760 603 b 847 556 819 600 847 585 b 839 521 847 546 844 533 l 674 101 l 511 529 b 504 561 506 542 504 553 b 586 603 504 589 529 601 l 586 621 l 346 621 l 346 603 b 431 529 389 599 411 578 z m 456 751 l 475 751 l 667 963 l 550 963 z "},"ŵ":{"ha":961,"x_min":0,"x_max":0,"o":"m 431 529 l 458 457 l 318 101 l 157 528 b 150 561 151 540 150 551 b 232 603 150 589 175 601 l 232 621 l -8 621 l -8 603 b 79 526 35 599 60 578 l 289 -19 l 307 -19 l 476 410 l 644 -19 l 661 -19 l 874 519 b 969 603 897 578 925 601 l 969 621 l 760 621 l 760 603 b 847 556 819 600 847 585 b 839 521 847 546 844 533 l 674 101 l 511 529 b 504 561 506 542 504 553 b 586 603 504 589 529 601 l 586 621 l 346 621 l 346 603 b 431 529 389 599 411 578 z m 290 751 l 308 751 l 479 875 l 647 751 l 665 751 l 526 935 l 432 935 z "},"ẅ":{"ha":961,"x_min":0,"x_max":0,"o":"m 431 529 l 458 457 l 318 101 l 157 528 b 150 561 151 540 150 551 b 232 603 150 589 175 601 l 232 621 l -8 621 l -8 603 b 79 526 35 599 60 578 l 289 -19 l 307 -19 l 476 410 l 644 -19 l 661 -19 l 874 519 b 969 603 897 578 925 601 l 969 621 l 760 621 l 760 603 b 847 556 819 600 847 585 b 839 521 847 546 844 533 l 674 101 l 511 529 b 504 561 506 542 504 553 b 586 603 504 589 529 601 l 586 621 l 346 621 l 346 603 b 431 529 389 599 411 578 z m 303 843 b 374 778 303 807 333 778 b 439 843 410 778 439 807 b 374 911 439 882 410 911 b 303 843 333 911 303 882 z m 521 843 b 590 778 521 807 551 778 b 657 843 626 778 657 807 b 590 911 657 882 626 911 b 521 843 551 911 521 882 z "},"ẁ":{"ha":961,"x_min":0,"x_max":0,"o":"m 431 529 l 458 457 l 318 101 l 157 528 b 150 561 151 540 150 551 b 232 603 150 589 175 601 l 232 621 l -8 621 l -8 603 b 79 526 35 599 60 578 l 289 -19 l 307 -19 l 476 410 l 644 -19 l 661 -19 l 874 519 b 969 603 897 578 925 601 l 969 621 l 760 621 l 760 603 b 847 556 819 600 847 585 b 839 521 847 546 844 533 l 674 101 l 511 529 b 504 561 506 542 504 553 b 586 603 504 589 529 601 l 586 621 l 346 621 l 346 603 b 431 529 389 599 411 578 z m 313 963 l 504 751 l 524 751 l 429 963 z "},"x":{"ha":690,"x_min":0,"x_max":0,"o":"m 428 18 l 428 0 l 672 0 l 672 18 b 564 94 635 21 603 43 l 383 333 l 531 519 b 654 603 574 575 611 600 l 654 621 l 442 621 l 442 603 b 513 569 492 600 513 590 b 490 522 513 558 506 542 l 363 363 l 238 528 b 215 574 222 547 215 563 b 276 603 215 592 235 601 l 276 621 l 33 621 l 33 603 b 146 528 75 600 108 578 l 306 315 l 138 103 b 19 18 93 47 57 21 l 19 0 l 232 0 l 232 18 b 157 53 182 21 157 32 b 181 100 157 65 165 81 l 328 286 l 471 94 b 492 50 485 76 492 61 b 428 18 492 31 471 21 z "},"y":{"ha":613,"x_min":0,"x_max":0,"o":"m -7 -183 l -46 -269 b 46 -294 -14 -285 18 -294 b 293 -64 158 -294 228 -226 l 525 513 b 622 601 551 574 578 599 l 622 621 l 408 621 l 408 601 b 497 554 469 600 497 586 b 488 514 497 543 494 529 l 322 101 l 156 525 b 149 556 150 538 149 547 b 231 601 149 585 175 599 l 231 621 l -10 621 l -10 601 b 78 519 29 599 56 574 l 283 4 l 260 -56 b 103 -224 214 -171 167 -224 b -7 -183 72 -224 32 -214 z "},"ý":{"ha":613,"x_min":0,"x_max":0,"o":"m -7 -183 l -46 -269 b 46 -294 -14 -285 18 -294 b 293 -64 158 -294 228 -226 l 525 513 b 622 601 551 574 578 599 l 622 621 l 408 621 l 408 601 b 497 554 469 600 497 586 b 488 514 497 543 494 529 l 322 101 l 156 525 b 149 556 150 538 149 547 b 231 601 149 585 175 599 l 231 621 l -10 621 l -10 601 b 78 519 29 599 56 574 l 283 4 l 260 -56 b 103 -224 214 -171 167 -224 b -7 -183 72 -224 32 -214 z m 281 751 l 300 751 l 492 963 l 375 963 z "},"ŷ":{"ha":613,"x_min":0,"x_max":0,"o":"m -7 -183 l -46 -269 b 46 -294 -14 -285 18 -294 b 293 -64 158 -294 228 -226 l 525 513 b 622 601 551 574 578 599 l 622 621 l 408 621 l 408 601 b 497 554 469 600 497 586 b 488 514 497 543 494 529 l 322 101 l 156 525 b 149 556 150 538 149 547 b 231 601 149 585 175 599 l 231 621 l -10 621 l -10 601 b 78 519 29 599 56 574 l 283 4 l 260 -56 b 103 -224 214 -171 167 -224 b -7 -183 72 -224 32 -214 z m 115 751 l 133 751 l 304 875 l 472 751 l 490 751 l 351 935 l 257 935 z "},"ÿ":{"ha":613,"x_min":0,"x_max":0,"o":"m -7 -183 l -46 -269 b 46 -294 -14 -285 18 -294 b 293 -64 158 -294 228 -226 l 525 513 b 622 601 551 574 578 599 l 622 621 l 408 621 l 408 601 b 497 554 469 600 497 586 b 488 514 497 543 494 529 l 322 101 l 156 525 b 149 556 150 538 149 547 b 231 601 149 585 175 599 l 231 621 l -10 621 l -10 601 b 78 519 29 599 56 574 l 283 4 l 260 -56 b 103 -224 214 -171 167 -224 b -7 -183 72 -224 32 -214 z m 128 843 b 199 778 128 807 158 778 b 264 843 235 778 264 807 b 199 911 264 882 235 911 b 128 843 158 911 128 882 z m 346 843 b 415 778 346 807 376 778 b 482 843 451 778 482 807 b 415 911 482 882 451 911 b 346 843 376 911 346 882 z "},"ỳ":{"ha":613,"x_min":0,"x_max":0,"o":"m -7 -183 l -46 -269 b 46 -294 -14 -285 18 -294 b 293 -64 158 -294 228 -226 l 525 513 b 622 601 551 574 578 599 l 622 621 l 408 621 l 408 601 b 497 554 469 600 497 586 b 488 514 497 543 494 529 l 322 101 l 156 525 b 149 556 150 538 149 547 b 231 601 149 585 175 599 l 231 621 l -10 621 l -10 601 b 78 519 29 599 56 574 l 283 4 l 260 -56 b 103 -224 214 -171 167 -224 b -7 -183 72 -224 32 -214 z m 138 963 l 329 751 l 349 751 l 254 963 z "},"z":{"ha":626,"x_min":0,"x_max":0,"o":"m 65 0 l 528 0 l 561 203 l 542 203 b 396 35 513 85 472 35 l 164 35 l 556 601 l 556 621 l 104 621 l 71 421 l 90 421 b 236 586 121 538 161 586 l 457 586 l 65 19 z "},"ź":{"ha":626,"x_min":0,"x_max":0,"o":"m 65 0 l 528 0 l 561 203 l 542 203 b 396 35 513 85 472 35 l 164 35 l 556 601 l 556 621 l 104 621 l 71 421 l 90 421 b 236 586 121 538 161 586 l 457 586 l 65 19 z m 310 751 l 329 751 l 521 963 l 404 963 z "},"ž":{"ha":626,"x_min":0,"x_max":0,"o":"m 65 0 l 528 0 l 561 203 l 542 203 b 396 35 513 85 472 35 l 164 35 l 556 601 l 556 621 l 104 621 l 71 421 l 90 421 b 236 586 121 538 161 586 l 457 586 l 65 19 z m 143 949 l 285 765 l 379 765 l 518 949 l 500 949 l 332 825 l 161 949 z "},"ż":{"ha":626,"x_min":0,"x_max":0,"o":"m 65 0 l 528 0 l 561 203 l 542 203 b 396 35 513 85 472 35 l 164 35 l 556 601 l 556 621 l 104 621 l 71 421 l 90 421 b 236 586 121 538 161 586 l 457 586 l 65 19 z m 264 885 b 333 819 264 849 294 819 b 399 885 369 819 399 849 b 333 951 399 922 369 951 b 264 885 294 951 264 922 z "},"ª":{"ha":457,"x_min":0,"x_max":0,"o":"m 300 838 b 199 754 300 785 250 769 b 67 628 133 735 67 713 b 175 526 67 558 115 526 b 301 625 236 526 281 558 l 301 619 l 301 525 l 428 558 l 428 574 l 408 576 b 371 617 381 581 371 592 l 371 808 b 224 947 371 892 315 947 b 67 804 126 947 69 883 l 146 804 b 140 839 142 817 140 828 b 219 921 140 886 169 921 b 300 838 267 921 300 888 z m 142 644 b 233 739 142 688 160 713 b 300 782 264 751 289 760 l 300 681 b 204 572 300 608 253 572 b 142 644 171 572 142 593 z "},"º":{"ha":471,"x_min":0,"x_max":0,"o":"m 235 526 b 418 736 344 526 418 611 b 235 947 418 860 344 947 b 53 736 126 947 53 861 b 235 526 53 611 126 526 z m 129 736 b 235 921 129 854 169 921 b 342 736 301 921 342 854 b 235 553 342 619 301 553 b 129 736 169 553 129 618 z "},"Δ":{"ha":879,"x_min":0,"x_max":0,"o":"m 60 0 l 819 0 l 819 22 l 449 949 l 429 949 l 60 22 z m 108 39 l 413 808 l 718 39 z "},"Ω":{"ha":1046,"x_min":0,"x_max":0,"o":"m 458 0 l 458 188 b 172 561 314 188 172 346 b 524 908 172 776 311 908 b 874 561 735 908 874 776 b 589 188 874 346 732 188 l 589 -1 l 710 -1 b 917 -17 781 -1 850 -3 l 953 219 l 936 219 b 717 61 903 104 843 61 l 625 61 l 625 147 b 971 560 818 167 971 340 b 524 949 971 800 790 949 b 75 560 256 949 75 800 b 422 147 75 336 233 167 l 422 63 l 329 63 b 111 221 203 63 144 106 l 93 221 l 131 -15 b 336 0 197 -1 267 0 z "},"μ":{"ha":707,"x_min":0,"x_max":0,"o":"m 650 38 b 586 104 604 42 586 61 l 586 642 l 426 603 l 426 583 l 449 582 b 513 517 494 579 513 560 l 513 264 b 324 35 513 99 413 35 b 189 194 249 35 189 81 l 189 642 l 29 603 l 29 583 l 51 582 b 115 517 97 579 115 560 l 115 189 l 115 172 b 113 -274 115 -26 113 -162 l 210 -274 b 133 83 165 -174 138 -83 b 299 -21 163 13 222 -21 b 514 151 396 -21 476 36 l 514 -22 l 671 17 l 671 36 z "},"π":{"ha":761,"x_min":0,"x_max":0,"o":"m 56 19 l 56 0 l 311 0 l 311 19 b 221 92 254 26 221 47 l 221 586 l 532 586 l 532 146 b 668 -3 532 54 568 -3 b 713 0 682 -3 696 -3 l 713 19 b 604 135 621 29 604 64 l 604 586 l 743 586 l 743 621 l 29 621 l 29 586 l 149 586 l 149 92 b 56 19 149 47 122 28 z "},"⓿":{"ha":1106,"x_min":0,"x_max":0,"o":"m 551 -19 b 69 464 286 -19 69 199 b 551 947 69 729 286 947 b 1036 464 818 947 1036 729 b 551 -19 1036 199 818 -19 z m 351 465 b 554 199 351 308 433 199 b 757 465 674 199 757 307 b 554 731 757 622 674 731 b 351 465 433 731 351 622 z m 436 465 b 554 711 436 624 479 711 b 671 465 628 711 671 624 b 554 219 671 308 629 219 b 436 465 479 219 436 308 z "},"❶":{"ha":1106,"x_min":0,"x_max":0,"o":"m 551 -19 b 69 464 286 -19 69 199 b 551 947 69 729 286 947 b 1036 464 818 947 1036 729 b 551 -19 1036 199 818 -19 z m 440 207 l 671 207 l 671 218 b 604 274 625 222 604 231 l 604 722 l 594 722 b 440 649 554 686 508 667 l 440 638 l 525 638 l 524 274 b 440 218 524 239 514 222 z "},"❷":{"ha":1106,"x_min":0,"x_max":0,"o":"m 551 -19 b 69 464 286 -19 69 199 b 551 947 69 729 286 947 b 1036 464 818 947 1036 729 b 551 -19 1036 199 818 -19 z m 369 207 l 724 207 l 746 363 l 735 363 b 625 281 718 296 692 281 l 453 281 b 726 579 593 376 726 460 b 551 729 726 667 653 729 b 382 569 468 729 382 683 b 383 546 382 563 382 554 l 474 546 b 464 607 467 568 464 588 b 550 708 464 668 499 708 b 640 601 606 708 640 664 b 410 260 640 490 536 392 l 369 218 z "},"❸":{"ha":1106,"x_min":0,"x_max":0,"o":"m 551 -19 b 69 464 286 -19 69 199 b 551 947 69 729 286 947 b 1036 464 818 947 1036 729 b 551 -19 1036 199 818 -19 z m 367 353 b 544 199 360 251 447 199 b 738 354 657 199 738 265 b 592 492 738 425 683 492 b 531 483 572 492 553 489 l 740 710 l 740 719 l 535 719 b 407 729 489 719 444 722 l 386 550 l 396 550 b 538 644 415 626 458 644 l 642 644 l 485 471 l 489 458 b 531 463 504 461 518 463 b 651 339 610 463 651 410 b 544 221 651 265 606 221 b 444 322 485 221 444 267 b 449 353 444 332 446 343 z "},"❹":{"ha":1106,"x_min":0,"x_max":0,"o":"m 551 -19 b 69 464 286 -19 69 199 b 551 947 69 729 286 947 b 1036 464 818 947 1036 729 b 551 -19 1036 199 818 -19 z m 322 340 l 557 340 l 557 289 b 469 218 557 240 531 222 l 469 207 l 706 207 l 706 218 b 638 289 651 222 638 242 l 638 340 l 728 340 l 728 379 l 638 379 l 638 717 l 571 717 l 322 350 z m 365 379 l 557 660 l 557 379 z "},"❺":{"ha":1106,"x_min":0,"x_max":0,"o":"m 551 -19 b 69 464 286 -19 69 199 b 551 947 69 729 286 947 b 1036 464 818 947 1036 729 b 551 -19 1036 199 818 -19 z m 374 353 b 543 199 368 254 438 199 b 726 357 651 199 726 261 b 532 522 726 465 642 522 b 424 506 497 522 461 517 l 453 646 l 710 646 l 710 719 l 446 719 l 394 469 l 403 463 b 478 471 431 468 456 471 b 642 336 582 471 642 418 b 543 221 642 264 603 221 b 451 317 490 221 451 253 b 456 353 451 328 453 340 z "},"❻":{"ha":1106,"x_min":0,"x_max":0,"o":"m 551 -19 b 69 464 286 -19 69 199 b 551 947 69 729 286 947 b 1036 464 818 947 1036 729 b 551 -19 1036 199 818 -19 z m 351 458 b 554 197 351 294 426 197 b 738 369 658 197 738 264 b 572 533 738 463 672 533 b 436 449 500 533 456 504 b 565 710 432 608 485 710 b 651 589 613 710 657 669 l 738 589 b 574 731 733 697 643 731 b 351 458 474 731 351 663 z m 444 368 b 547 503 444 453 483 503 b 654 363 611 503 654 451 b 551 218 654 276 613 218 b 444 368 488 218 444 282 z "},"❼":{"ha":1106,"x_min":0,"x_max":0,"o":"m 551 -19 b 69 464 286 -19 69 199 b 551 947 69 729 286 947 b 1036 464 818 947 1036 729 b 551 -19 1036 199 818 -19 z m 379 547 l 390 547 b 531 642 408 624 450 642 l 675 642 b 482 239 569 536 482 417 b 483 207 482 229 483 218 l 574 207 b 572 251 572 222 572 238 b 743 707 572 436 636 579 l 743 717 l 528 717 b 400 726 488 717 440 719 z "},"❽":{"ha":1106,"x_min":0,"x_max":0,"o":"m 551 -19 b 69 464 286 -19 69 199 b 551 947 69 729 286 947 b 1036 464 818 947 1036 729 b 551 -19 1036 199 818 -19 z m 364 326 b 553 197 364 246 446 197 b 743 340 675 197 743 260 b 621 492 743 431 686 467 b 728 608 692 517 728 557 b 556 731 728 678 657 731 b 378 594 451 731 378 676 b 481 456 378 517 424 482 b 364 326 403 431 364 381 z m 433 338 b 503 446 433 372 447 415 b 667 313 581 414 667 393 b 554 218 667 258 619 218 b 433 338 485 218 433 264 z m 456 624 b 554 710 456 674 496 710 b 663 601 618 710 663 669 b 597 503 663 571 651 533 b 456 624 526 528 456 549 z "},"❾":{"ha":1106,"x_min":0,"x_max":0,"o":"m 551 -19 b 69 464 286 -19 69 199 b 551 947 69 729 286 947 b 1036 464 818 947 1036 729 b 551 -19 1036 199 818 -19 z m 367 339 b 531 197 371 231 461 197 b 753 469 631 197 753 265 b 550 731 753 633 678 731 b 367 558 446 731 367 664 b 532 394 367 465 432 394 b 668 479 604 394 649 424 b 539 218 672 319 619 218 b 453 339 492 218 447 258 z m 450 565 b 553 710 450 651 492 710 b 660 560 617 710 660 646 b 557 425 660 475 621 425 b 450 565 493 425 450 476 z "},"⓪":{"ha":1106,"x_min":0,"x_max":0,"o":"m 551 -19 b 1036 464 818 -19 1036 199 b 551 947 1036 729 818 947 b 69 464 286 947 69 729 b 551 -19 69 199 286 -19 z m 101 463 b 550 915 101 713 303 915 b 1004 463 799 915 1004 713 b 550 13 1004 214 799 13 b 101 463 303 13 101 214 z m 349 465 b 551 199 349 308 431 199 b 754 465 671 199 754 307 b 551 731 754 622 671 731 b 349 465 431 731 349 622 z m 433 465 b 551 711 433 624 476 711 b 668 465 625 711 668 624 b 551 219 668 308 626 219 b 433 465 476 219 433 308 z "},"①":{"ha":1106,"x_min":0,"x_max":0,"o":"m 551 -19 b 1036 464 818 -19 1036 199 b 551 947 1036 729 818 947 b 69 464 286 947 69 729 b 551 -19 69 199 286 -19 z m 101 463 b 550 915 101 713 303 915 b 1004 463 799 915 1004 713 b 550 13 1004 214 799 13 b 101 463 303 13 101 214 z m 428 207 l 658 207 l 658 218 b 592 274 613 222 592 231 l 592 722 l 582 722 b 428 649 542 686 496 667 l 428 638 l 513 638 l 511 274 b 428 218 511 239 501 222 z "},"②":{"ha":1106,"x_min":0,"x_max":0,"o":"m 551 -19 b 1036 464 818 -19 1036 199 b 551 947 1036 729 818 947 b 69 464 286 947 69 729 b 551 -19 69 199 286 -19 z m 101 463 b 550 915 101 713 303 915 b 1004 463 799 915 1004 713 b 550 13 1004 214 799 13 b 101 463 303 13 101 214 z m 357 207 l 711 207 l 733 363 l 722 363 b 613 281 706 296 679 281 l 440 281 b 714 579 581 376 714 460 b 539 729 714 667 640 729 b 369 569 456 729 369 683 b 371 546 369 563 369 554 l 461 546 b 451 607 454 568 451 588 b 538 708 451 668 486 708 b 628 601 593 708 628 664 b 397 260 628 490 524 392 l 357 218 z "},"③":{"ha":1106,"x_min":0,"x_max":0,"o":"m 551 -19 b 1036 464 818 -19 1036 199 b 551 947 1036 729 818 947 b 69 464 286 947 69 729 b 551 -19 69 199 286 -19 z m 101 463 b 550 915 101 713 303 915 b 1004 463 799 915 1004 713 b 550 13 1004 214 799 13 b 101 463 303 13 101 214 z m 361 353 b 539 199 354 251 442 199 b 732 354 651 199 732 265 b 586 492 732 425 678 492 b 525 483 567 492 547 489 l 735 710 l 735 719 l 529 719 b 401 729 483 719 439 722 l 381 550 l 390 550 b 532 644 410 626 453 644 l 636 644 l 479 471 l 483 458 b 525 463 499 461 513 463 b 646 339 604 463 646 410 b 539 221 646 265 600 221 b 439 322 479 221 439 267 b 443 353 439 332 440 343 z "},"④":{"ha":1106,"x_min":0,"x_max":0,"o":"m 551 -19 b 1036 464 818 -19 1036 199 b 551 947 1036 729 818 947 b 69 464 286 947 69 729 b 551 -19 69 199 286 -19 z m 101 463 b 550 915 101 713 303 915 b 1004 463 799 915 1004 713 b 550 13 1004 214 799 13 b 101 463 303 13 101 214 z m 313 340 l 547 340 l 547 289 b 460 218 547 240 521 222 l 460 207 l 696 207 l 696 218 b 628 289 642 222 628 242 l 628 340 l 718 340 l 718 379 l 628 379 l 628 717 l 561 717 l 313 350 z m 356 379 l 547 660 l 547 379 z "},"⑤":{"ha":1106,"x_min":0,"x_max":0,"o":"m 551 -19 b 1036 464 818 -19 1036 199 b 551 947 1036 729 818 947 b 69 464 286 947 69 729 b 551 -19 69 199 286 -19 z m 101 463 b 550 915 101 713 303 915 b 1004 463 799 915 1004 713 b 550 13 1004 214 799 13 b 101 463 303 13 101 214 z m 361 353 b 531 199 356 254 425 199 b 714 357 639 199 714 261 b 519 522 714 465 629 522 b 411 506 485 522 449 517 l 440 646 l 697 646 l 697 719 l 433 719 l 382 469 l 390 463 b 465 471 418 468 443 471 b 629 336 569 471 629 418 b 531 221 629 264 590 221 b 439 317 478 221 439 253 b 443 353 439 328 440 340 z "},"⑥":{"ha":1106,"x_min":0,"x_max":0,"o":"m 551 -19 b 1036 464 818 -19 1036 199 b 551 947 1036 729 818 947 b 69 464 286 947 69 729 b 551 -19 69 199 286 -19 z m 101 463 b 550 915 101 713 303 915 b 1004 463 799 915 1004 713 b 550 13 1004 214 799 13 b 101 463 303 13 101 214 z m 351 458 b 554 197 351 294 426 197 b 738 369 658 197 738 264 b 572 533 738 463 672 533 b 436 449 500 533 456 504 b 565 710 432 608 485 710 b 651 589 613 710 657 669 l 738 589 b 574 731 733 697 643 731 b 351 458 474 731 351 663 z m 444 368 b 547 503 444 453 483 503 b 654 363 611 503 654 451 b 551 218 654 276 613 218 b 444 368 488 218 444 282 z "},"⑦":{"ha":1106,"x_min":0,"x_max":0,"o":"m 551 -19 b 1036 464 818 -19 1036 199 b 551 947 1036 729 818 947 b 69 464 286 947 69 729 b 551 -19 69 199 286 -19 z m 101 463 b 550 915 101 713 303 915 b 1004 463 799 915 1004 713 b 550 13 1004 214 799 13 b 101 463 303 13 101 214 z m 379 547 l 390 547 b 531 642 408 624 450 642 l 675 642 b 482 239 569 536 482 417 b 483 207 482 229 483 218 l 574 207 b 572 251 572 222 572 238 b 743 707 572 436 636 579 l 743 717 l 528 717 b 400 726 488 717 440 719 z "},"⑧":{"ha":1106,"x_min":0,"x_max":0,"o":"m 551 -19 b 1036 464 818 -19 1036 199 b 551 947 1036 729 818 947 b 69 464 286 947 69 729 b 551 -19 69 199 286 -19 z m 101 463 b 550 915 101 713 303 915 b 1004 463 799 915 1004 713 b 550 13 1004 214 799 13 b 101 463 303 13 101 214 z m 364 326 b 553 197 364 246 446 197 b 743 340 675 197 743 260 b 621 492 743 431 686 467 b 728 608 692 517 728 557 b 556 731 728 678 657 731 b 378 594 451 731 378 676 b 481 456 378 517 424 482 b 364 326 403 431 364 381 z m 433 338 b 503 446 433 372 447 415 b 667 313 581 414 667 393 b 554 218 667 258 619 218 b 433 338 485 218 433 264 z m 456 624 b 554 710 456 674 496 710 b 663 601 618 710 663 669 b 597 503 663 571 651 533 b 456 624 526 528 456 549 z "},"⑨":{"ha":1106,"x_min":0,"x_max":0,"o":"m 551 -19 b 1036 464 818 -19 1036 199 b 551 947 1036 729 818 947 b 69 464 286 947 69 729 b 551 -19 69 199 286 -19 z m 101 463 b 550 915 101 713 303 915 b 1004 463 799 915 1004 713 b 550 13 1004 214 799 13 b 101 463 303 13 101 214 z m 367 339 b 531 197 371 231 461 197 b 753 469 631 197 753 265 b 550 731 753 633 678 731 b 367 558 446 731 367 664 b 532 394 367 465 432 394 b 668 479 604 394 649 424 b 539 218 672 319 619 218 b 453 339 492 218 447 258 z m 450 565 b 553 710 450 651 492 710 b 660 560 617 710 660 646 b 557 425 660 475 621 425 b 450 565 493 425 450 476 z "},"⁰":{"ha":486,"x_min":0,"x_max":0,"o":"m 243 485 b 446 751 363 485 446 593 b 243 1017 446 908 363 1017 b 40 751 122 1017 40 908 b 243 485 40 594 122 485 z m 125 751 b 243 997 125 910 168 997 b 360 751 317 997 360 910 b 243 506 360 594 318 506 b 125 751 168 506 125 594 z "},"¹":{"ha":274,"x_min":0,"x_max":0,"o":"m 29 507 l 29 496 l 260 496 l 260 507 b 193 563 214 511 193 519 l 193 1011 l 183 1011 b 29 938 143 975 97 956 l 29 926 l 114 926 l 113 563 b 29 507 113 528 103 511 z "},"²":{"ha":453,"x_min":0,"x_max":0,"o":"m 33 496 l 388 496 l 410 651 l 399 651 b 289 569 382 585 356 569 l 117 569 b 390 868 257 665 390 749 b 215 1018 390 956 317 1018 b 46 858 132 1018 46 972 b 47 835 46 851 46 843 l 138 835 b 128 896 131 857 128 876 b 214 997 128 957 163 997 b 304 890 269 997 304 953 b 74 549 304 779 200 681 l 33 507 z "},"³":{"ha":444,"x_min":0,"x_max":0,"o":"m 217 485 b 410 640 329 485 410 551 b 264 778 410 711 356 778 b 203 769 244 778 225 775 l 413 996 l 413 1006 l 207 1006 b 79 1015 161 1006 117 1008 l 58 836 l 68 836 b 210 931 88 913 131 931 l 314 931 l 157 757 l 161 744 b 203 749 176 747 190 749 b 324 625 282 749 324 696 b 217 507 324 551 278 507 b 117 608 157 507 117 553 b 121 639 117 618 118 629 l 39 639 b 217 485 32 538 119 485 z "},"⁴":{"ha":442,"x_min":0,"x_max":0,"o":"m 415 668 l 325 668 l 325 1006 l 258 1006 l 10 639 l 10 629 l 244 629 l 244 578 b 157 507 244 529 218 511 l 157 496 l 393 496 l 393 507 b 325 578 339 511 325 531 l 325 629 l 415 629 z m 53 668 l 244 949 l 244 668 z "},"⁵":{"ha":417,"x_min":0,"x_max":0,"o":"m 51 756 l 60 749 b 135 757 88 754 113 757 b 299 622 239 757 299 704 b 200 507 299 550 260 507 b 108 603 147 507 108 539 b 113 639 108 614 110 626 l 31 639 b 200 485 25 540 94 485 b 383 643 308 485 383 547 b 189 808 383 751 299 808 b 81 792 154 808 118 803 l 110 932 l 367 932 l 367 1006 l 103 1006 z "},"⁶":{"ha":468,"x_min":0,"x_max":0,"o":"m 240 485 b 424 657 344 485 424 551 b 258 821 424 750 358 821 b 122 736 186 821 142 792 b 251 997 118 896 171 997 b 338 876 299 997 343 957 l 424 876 b 260 1018 419 985 329 1018 b 38 746 160 1018 38 950 b 240 485 38 582 113 485 z m 131 656 b 233 790 131 740 169 790 b 340 650 297 790 340 739 b 238 506 340 564 299 506 b 131 656 174 506 131 569 z "},"⁷":{"ha":394,"x_min":0,"x_max":0,"o":"m 388 996 l 388 1006 l 172 1006 b 44 1015 132 1006 85 1008 l 24 836 l 35 836 b 175 931 53 913 94 931 l 319 931 b 126 528 214 825 126 706 b 128 496 126 518 128 507 l 218 496 b 217 540 217 511 217 526 b 388 996 217 725 281 868 z "},"⁸":{"ha":454,"x_min":0,"x_max":0,"o":"m 226 485 b 417 628 349 485 417 547 b 294 779 417 718 360 754 b 401 896 365 804 401 844 b 229 1018 401 965 331 1018 b 51 882 125 1018 51 964 b 154 743 51 804 97 769 b 38 614 76 718 38 668 b 226 485 38 533 119 485 z m 107 625 b 176 733 107 660 121 703 b 340 600 254 701 340 681 b 228 506 340 546 293 506 b 107 625 158 506 107 551 z m 129 911 b 228 997 129 961 169 997 b 336 889 292 997 336 957 b 271 790 336 858 325 821 b 129 911 200 815 129 836 z "},"⁹":{"ha":468,"x_min":0,"x_max":0,"o":"m 228 1017 b 44 844 124 1017 44 950 b 210 681 44 751 110 681 b 346 765 282 681 326 710 b 217 504 350 606 297 504 b 131 625 169 504 125 544 l 44 625 b 208 483 49 517 139 483 b 431 756 308 483 431 551 b 228 1017 431 919 356 1017 z m 128 851 b 231 996 128 938 169 996 b 338 846 294 996 338 932 b 235 711 338 761 299 711 b 128 851 171 711 128 763 z "},"⁄":{"ha":222,"x_min":0,"x_max":0,"o":"m -137 0 l 396 928 l 357 928 l -175 0 z "},"½":{"ha":1003,"x_min":0,"x_max":0,"o":"m 29 368 l 29 357 l 260 357 l 260 368 b 193 424 214 372 193 381 l 193 872 l 183 872 b 29 799 143 836 97 817 l 29 788 l 114 788 l 113 424 b 29 368 113 389 103 372 z m 154 0 l 192 0 l 725 928 l 686 928 z m 585 0 l 939 0 l 961 156 l 950 156 b 840 74 933 89 907 74 l 668 74 b 942 372 808 169 942 253 b 767 522 942 460 868 522 b 597 363 683 522 597 476 b 599 339 597 356 597 347 l 689 339 b 679 400 682 361 679 381 b 765 501 679 461 714 501 b 856 394 821 501 856 457 b 625 53 856 283 751 185 l 585 11 z "},"¼":{"ha":901,"x_min":0,"x_max":0,"o":"m 29 368 l 29 357 l 260 357 l 260 368 b 193 424 214 372 193 381 l 193 872 l 183 872 b 29 799 143 836 97 817 l 29 788 l 114 788 l 113 424 b 29 368 113 389 103 372 z m 154 0 l 192 0 l 725 928 l 686 928 z m 469 133 l 704 133 l 704 82 b 617 11 704 33 678 15 l 617 0 l 853 0 l 853 11 b 785 82 799 15 785 35 l 785 133 l 875 133 l 875 172 l 785 172 l 785 510 l 718 510 l 469 143 z m 513 172 l 704 453 l 704 172 z "},"¾":{"ha":1017,"x_min":0,"x_max":0,"o":"m 217 346 b 410 501 329 346 410 413 b 264 639 410 572 356 639 b 203 631 244 639 225 636 l 413 857 l 413 867 l 207 867 b 79 876 161 867 117 869 l 58 697 l 68 697 b 210 792 88 774 131 792 l 314 792 l 157 618 l 161 606 b 203 610 176 608 190 610 b 324 486 282 610 324 557 b 217 368 324 413 278 368 b 117 469 157 368 117 414 b 121 500 117 479 118 490 l 39 500 b 217 346 32 399 119 346 z m 269 0 l 307 0 l 840 928 l 801 928 z m 585 133 l 819 133 l 819 82 b 732 11 819 33 793 15 l 732 0 l 968 0 l 968 11 b 900 82 914 15 900 35 l 900 133 l 990 133 l 990 172 l 900 172 l 900 510 l 833 510 l 585 143 z m 628 172 l 819 453 l 819 172 z "},"⅛":{"ha":1006,"x_min":0,"x_max":0,"o":"m 29 368 l 29 357 l 260 357 l 260 368 b 193 424 214 372 193 381 l 193 872 l 183 872 b 29 799 143 836 97 817 l 29 788 l 114 788 l 113 424 b 29 368 113 389 103 372 z m 154 0 l 192 0 l 725 928 l 686 928 z m 589 118 b 778 -11 589 38 671 -11 b 968 132 900 -11 968 51 b 846 283 968 222 911 258 b 953 400 917 308 953 349 b 781 522 953 469 882 522 b 603 386 676 522 603 468 b 706 247 603 308 649 274 b 589 118 628 222 589 172 z m 658 129 b 728 238 658 164 672 207 b 892 104 806 206 892 185 b 779 10 892 50 844 10 b 658 129 710 10 658 56 z m 681 415 b 779 501 681 465 721 501 b 888 393 843 501 888 461 b 822 294 888 363 876 325 b 681 415 751 319 681 340 z "},"⅜":{"ha":1121,"x_min":0,"x_max":0,"o":"m 217 346 b 410 501 329 346 410 413 b 264 639 410 572 356 639 b 203 631 244 639 225 636 l 413 857 l 413 867 l 207 867 b 79 876 161 867 117 869 l 58 697 l 68 697 b 210 792 88 774 131 792 l 314 792 l 157 618 l 161 606 b 203 610 176 608 190 610 b 324 486 282 610 324 557 b 217 368 324 413 278 368 b 117 469 157 368 117 414 b 121 500 117 479 118 490 l 39 500 b 217 346 32 399 119 346 z m 269 0 l 307 0 l 840 928 l 801 928 z m 704 118 b 893 -11 704 38 786 -11 b 1083 132 1015 -11 1083 51 b 961 283 1083 222 1026 258 b 1068 400 1032 308 1068 349 b 896 522 1068 469 997 522 b 718 386 792 522 718 468 b 821 247 718 308 764 274 b 704 118 743 222 704 172 z m 774 129 b 843 238 774 164 788 207 b 1007 104 921 206 1007 185 b 894 10 1007 50 960 10 b 774 129 825 10 774 56 z m 796 415 b 894 501 796 465 836 501 b 1003 393 958 501 1003 461 b 938 294 1003 363 992 325 b 796 415 867 319 796 340 z "},"⅝":{"ha":1121,"x_min":0,"x_max":0,"o":"m 51 617 l 60 610 b 135 618 88 615 113 618 b 299 483 239 618 299 565 b 200 368 299 411 260 368 b 108 464 147 368 108 400 b 113 500 108 475 110 488 l 31 500 b 200 346 25 401 94 346 b 383 504 308 346 383 408 b 189 669 383 613 299 669 b 81 653 154 669 118 664 l 110 793 l 367 793 l 367 867 l 103 867 z m 269 0 l 307 0 l 840 928 l 801 928 z m 704 118 b 893 -11 704 38 786 -11 b 1083 132 1015 -11 1083 51 b 961 283 1083 222 1026 258 b 1068 400 1032 308 1068 349 b 896 522 1068 469 997 522 b 718 386 792 522 718 468 b 821 247 718 308 764 274 b 704 118 743 222 704 172 z m 774 129 b 843 238 774 164 788 207 b 1007 104 921 206 1007 185 b 894 10 1007 50 960 10 b 774 129 825 10 774 56 z m 796 415 b 894 501 796 465 836 501 b 1003 393 958 501 1003 461 b 938 294 1003 363 992 325 b 796 415 867 319 796 340 z "},"⅞":{"ha":1015,"x_min":0,"x_max":0,"o":"m 388 857 l 388 867 l 172 867 b 44 876 132 867 85 869 l 24 697 l 35 697 b 175 792 53 774 94 792 l 319 792 b 126 389 214 686 126 567 b 128 357 126 379 128 368 l 218 357 b 217 401 217 372 217 388 b 388 857 217 586 281 729 z m 164 0 l 201 0 l 735 928 l 696 928 z m 599 118 b 788 -11 599 38 681 -11 b 978 132 910 -11 978 51 b 856 283 978 222 921 258 b 963 400 926 308 963 349 b 790 522 963 469 892 522 b 613 386 686 522 613 468 b 715 247 613 308 658 274 b 599 118 638 222 599 172 z m 668 129 b 738 238 668 164 682 207 b 901 104 815 206 901 185 b 789 10 901 50 854 10 b 668 129 719 10 668 56 z m 690 415 b 789 501 690 465 731 501 b 897 393 853 501 897 461 b 832 294 897 363 886 325 b 690 415 761 319 690 340 z "}," ":{"ha":231,"x_min":0,"x_max":0,"o":""},".":{"ha":328,"x_min":0,"x_max":0,"o":"m 164 -21 b 235 50 206 -21 235 10 b 164 121 235 92 206 121 b 92 50 122 121 92 92 b 164 -21 92 10 122 -21 z "},",":{"ha":331,"x_min":0,"x_max":0,"o":"m 94 -150 l 100 -162 b 244 26 189 -136 244 -72 b 164 122 244 83 215 122 b 92 50 122 122 92 92 b 163 -21 92 10 122 -21 b 200 -11 175 -21 188 -18 b 94 -150 197 -82 138 -131 z "},":":{"ha":328,"x_min":0,"x_max":0,"o":"m 164 497 b 235 568 206 497 235 528 b 164 639 235 610 206 639 b 92 568 122 639 92 610 b 164 497 92 528 122 497 z m 92 50 b 164 -21 92 10 122 -21 b 235 50 206 -21 235 10 b 164 121 235 92 206 121 b 92 50 122 121 92 92 z "},";":{"ha":346,"x_min":0,"x_max":0,"o":"m 104 -150 l 110 -162 b 254 26 199 -136 254 -72 b 174 122 254 83 225 122 b 101 50 132 122 101 92 b 172 -21 101 10 132 -21 b 210 -11 185 -21 197 -18 b 104 -150 207 -82 147 -131 z m 92 569 b 164 499 92 529 122 499 b 235 569 206 499 235 529 b 164 640 235 611 206 640 b 92 569 122 640 92 611 z "},"…":{"ha":994,"x_min":0,"x_max":0,"o":"m 164 -21 b 235 50 206 -21 235 10 b 164 121 235 92 206 121 b 92 50 122 121 92 92 b 164 -21 92 10 122 -21 z m 425 50 b 497 -21 425 10 456 -21 b 568 50 539 -21 568 10 b 497 121 568 92 539 121 b 425 50 456 121 425 92 z m 760 50 b 832 -21 760 10 790 -21 b 903 50 874 -21 903 10 b 832 121 903 92 874 121 b 760 50 790 121 760 92 z "},"!":{"ha":318,"x_min":0,"x_max":0,"o":"m 150 276 l 169 276 b 218 928 176 419 218 631 l 100 928 b 150 276 100 631 144 419 z m 88 50 b 160 -21 88 10 118 -21 b 231 50 201 -21 231 10 b 160 121 231 92 201 121 b 88 50 118 121 88 92 z "},"¡":{"ha":318,"x_min":0,"x_max":0,"o":"m 169 346 l 150 346 b 100 -306 144 203 100 -8 l 218 -306 b 169 346 218 -8 176 203 z m 88 572 b 160 501 88 531 118 501 b 231 572 201 501 231 531 b 160 643 231 613 201 643 b 88 572 118 643 88 613 z "},"?":{"ha":611,"x_min":0,"x_max":0,"o":"m 304 947 b 47 701 149 947 47 854 b 51 643 47 683 49 664 l 153 643 b 142 728 146 674 142 701 b 306 910 142 840 206 910 b 468 756 406 910 468 847 b 254 346 468 553 254 526 b 267 264 254 322 258 294 l 286 264 b 283 294 285 275 283 285 b 565 749 283 494 565 513 b 304 947 565 869 465 947 z m 210 50 b 282 -21 210 10 240 -21 b 353 50 324 -21 353 10 b 282 121 353 92 324 121 b 210 50 240 121 210 92 z "},"¿":{"ha":611,"x_min":0,"x_max":0,"o":"m 307 -325 b 564 -79 463 -325 564 -232 b 560 -21 564 -61 563 -42 l 458 -21 b 469 -106 465 -51 469 -79 b 306 -287 469 -218 406 -287 b 143 -133 206 -287 143 -225 b 357 276 143 69 357 96 b 344 358 357 300 353 328 l 325 358 b 328 328 326 347 328 338 b 46 -126 328 128 46 110 b 307 -325 46 -247 146 -325 z m 258 572 b 329 501 258 531 288 501 b 401 572 371 501 401 531 b 329 643 401 613 371 643 b 258 572 288 643 258 613 z "},"·":{"ha":328,"x_min":0,"x_max":0,"o":"m 164 389 b 235 460 206 389 235 419 b 164 531 235 501 206 531 b 92 460 122 531 92 501 b 164 389 92 419 122 389 z "},"•":{"ha":661,"x_min":0,"x_max":0,"o":"m 333 100 b 608 378 485 100 608 224 b 333 656 608 531 485 656 b 53 378 176 656 53 531 b 333 100 53 224 176 100 z "},"*":{"ha":539,"x_min":0,"x_max":0,"o":"m 63 864 l 38 793 b 257 750 124 767 203 765 b 99 594 221 707 157 665 l 158 549 b 268 744 211 624 236 699 b 379 549 301 697 326 624 l 439 594 b 281 750 381 665 317 707 b 500 793 335 765 413 767 l 474 864 b 274 761 388 831 326 783 b 307 985 278 818 304 893 l 232 985 b 263 761 235 893 258 818 b 63 864 210 783 149 831 z "},"#":{"ha":1057,"x_min":0,"x_max":0,"o":"m 492 1011 l 393 663 l 157 663 l 157 624 l 383 624 l 301 336 l 60 336 l 60 297 l 292 297 l 193 -51 l 235 -51 l 333 297 l 624 297 l 525 -51 l 565 -51 l 664 297 l 900 297 l 900 336 l 674 336 l 756 624 l 997 624 l 997 663 l 765 663 l 864 1011 l 824 1011 l 725 663 l 435 663 l 533 1011 z m 343 336 l 425 624 l 715 624 l 633 336 z "},"/":{"ha":544,"x_min":0,"x_max":0,"o":"m 60 -62 l 101 -62 l 485 953 l 443 953 z "},"\\":{"ha":544,"x_min":0,"x_max":0,"o":"m 485 -62 l 101 953 l 60 953 l 443 -62 z "},"-":{"ha":479,"x_min":0,"x_max":0,"o":"m 415 400 l 64 400 l 64 358 l 415 358 z "},"–":{"ha":586,"x_min":0,"x_max":0,"o":"m 521 382 l 64 382 l 64 342 l 521 342 z "},"—":{"ha":1106,"x_min":0,"x_max":0,"o":"m 1040 382 l 64 382 l 64 342 l 1040 342 z "},"_":{"ha":586,"x_min":0,"x_max":0,"o":"m 521 -21 l 64 -21 l 64 -65 l 521 -65 z "},"(":{"ha":417,"x_min":0,"x_max":0,"o":"m 428 -219 l 439 -200 b 185 375 288 -76 185 156 b 439 953 185 596 288 829 l 428 972 b 101 375 232 860 101 619 b 428 -219 101 131 235 -108 z "},")":{"ha":417,"x_min":0,"x_max":0,"o":"m -22 -200 l -11 -219 b 315 375 182 -108 315 131 b -11 972 315 619 185 860 l -22 953 b 232 375 129 829 232 596 b -22 -200 232 156 129 -76 z "},"{":{"ha":404,"x_min":0,"x_max":0,"o":"m 36 422 l 36 396 b 174 288 147 396 174 351 b 171 243 174 274 172 258 l 132 -40 b 129 -82 131 -56 129 -69 b 344 -243 129 -185 189 -243 l 344 -219 b 207 -104 235 -218 207 -169 b 210 -62 207 -90 208 -76 l 249 226 b 254 285 251 249 254 268 b 103 408 254 365 215 393 b 253 536 213 422 253 453 b 249 593 253 553 251 572 l 210 876 b 207 918 208 890 207 906 b 344 1036 207 985 235 1036 l 344 1060 b 129 901 189 1060 129 1001 b 132 860 129 888 131 874 l 171 576 b 175 531 174 560 175 544 b 36 422 175 467 147 422 z "},"}":{"ha":404,"x_min":0,"x_max":0,"o":"m 368 396 l 368 422 b 229 531 257 422 229 467 b 233 576 229 544 231 560 l 272 860 b 275 901 274 874 275 888 b 60 1060 275 1001 215 1060 l 60 1036 b 197 918 169 1036 197 985 b 194 876 197 906 196 890 l 156 593 b 151 536 153 572 151 553 b 301 408 151 453 192 422 b 150 285 189 393 150 365 b 156 226 150 268 153 249 l 194 -62 b 197 -104 196 -76 197 -90 b 60 -219 197 -169 169 -218 l 60 -243 b 275 -82 215 -243 275 -185 b 272 -40 275 -69 274 -56 l 233 243 b 231 288 232 258 231 274 b 368 396 231 351 257 396 z "},"[":{"ha":388,"x_min":0,"x_max":0,"o":"m 135 -235 l 353 -235 l 353 -210 l 213 -210 l 213 1026 l 353 1026 l 353 1051 l 135 1051 z "},"]":{"ha":388,"x_min":0,"x_max":0,"o":"m 253 -235 l 253 1051 l 35 1051 l 35 1026 l 175 1026 l 175 -210 l 35 -210 l 35 -235 z "},"‚":{"ha":325,"x_min":0,"x_max":0,"o":"m 94 -146 l 100 -157 b 239 24 185 -132 239 -71 b 161 115 239 79 211 115 b 92 47 121 115 92 86 b 160 -21 92 8 121 -21 b 196 -12 172 -21 185 -19 b 94 -146 193 -79 136 -126 z "},"„":{"ha":519,"x_min":0,"x_max":0,"o":"m 94 -146 l 100 -157 b 239 24 185 -132 239 -71 b 161 115 239 79 211 115 b 92 47 121 115 92 86 b 160 -21 92 8 121 -21 b 196 -12 172 -21 185 -19 b 94 -146 193 -79 136 -126 z m 286 47 b 354 -21 286 8 315 -21 b 390 -12 367 -21 379 -19 b 289 -146 388 -79 331 -126 l 294 -157 b 433 24 379 -132 433 -71 b 356 115 433 79 406 115 b 286 47 315 115 286 86 z "},"“":{"ha":519,"x_min":0,"x_max":0,"o":"m 425 1026 l 419 1039 b 281 858 335 1014 281 953 b 358 765 281 803 308 765 b 428 835 399 765 428 794 b 360 903 428 874 399 903 b 324 893 347 903 335 900 b 425 1026 326 961 383 1008 z m 86 858 b 164 765 86 803 114 765 b 233 835 204 765 233 794 b 165 903 233 874 204 903 b 129 893 153 903 140 900 b 231 1026 132 961 189 1008 l 225 1039 b 86 858 140 1014 86 953 z "},"”":{"ha":519,"x_min":0,"x_max":0,"o":"m 94 778 l 100 765 b 239 947 185 792 239 853 b 161 1039 239 1001 211 1039 b 92 969 121 1039 92 1010 b 160 901 92 931 121 901 b 196 910 172 901 185 904 b 94 778 193 844 136 796 z m 286 969 b 354 901 286 931 315 901 b 390 910 367 901 379 904 b 289 778 388 844 331 796 l 294 765 b 433 947 379 792 433 853 b 356 1039 433 1001 406 1039 b 286 969 315 1039 286 1010 z "},"‘":{"ha":325,"x_min":0,"x_max":0,"o":"m 231 1025 l 225 1038 b 86 856 139 1013 86 951 b 164 764 86 801 114 764 b 233 833 204 764 233 793 b 165 901 233 872 204 901 b 129 893 153 901 140 899 b 231 1025 132 960 189 1007 z "},"’":{"ha":325,"x_min":0,"x_max":0,"o":"m 94 776 l 100 764 b 239 946 185 790 239 851 b 161 1038 239 1000 211 1038 b 92 968 121 1038 92 1008 b 160 900 92 929 121 900 b 196 908 172 900 185 903 b 94 776 193 843 136 794 z "},"«":{"ha":697,"x_min":0,"x_max":0,"o":"m 333 354 l 614 97 l 625 108 l 426 363 l 625 617 l 614 628 l 333 371 z m 71 354 l 351 97 l 363 108 l 164 363 l 363 617 l 351 628 l 71 371 z "},"»":{"ha":697,"x_min":0,"x_max":0,"o":"m 364 354 l 364 371 l 83 628 l 72 617 l 271 363 l 72 108 l 83 97 z m 335 108 l 346 97 l 626 354 l 626 371 l 346 628 l 335 617 l 533 363 z "},"‹":{"ha":436,"x_min":0,"x_max":0,"o":"m 72 354 l 353 97 l 364 108 l 165 363 l 364 617 l 353 628 l 72 371 z "},"›":{"ha":436,"x_min":0,"x_max":0,"o":"m 364 354 l 364 371 l 83 628 l 72 617 l 271 363 l 72 108 l 83 97 z "},"\"":{"ha":397,"x_min":0,"x_max":0,"o":"m 104 682 l 114 682 b 147 1036 121 800 147 865 l 71 1036 b 104 682 71 865 97 800 z m 249 1036 b 282 682 249 865 275 800 l 292 682 b 325 1036 299 800 325 865 z "},"'":{"ha":219,"x_min":0,"x_max":0,"o":"m 104 682 l 114 682 b 147 1036 121 800 147 865 l 71 1036 b 104 682 71 865 97 800 z "},"ƒ":{"ha":625,"x_min":0,"x_max":0,"o":"m 564 817 l 579 817 l 588 933 b 475 949 558 943 513 949 b 275 731 357 949 275 876 l 275 621 l 101 621 l 101 586 l 275 586 l 275 -107 b 163 -260 275 -203 238 -260 b 61 -162 129 -260 81 -233 l 44 -162 l 38 -279 b 150 -294 67 -289 113 -294 b 349 -76 267 -294 349 -222 l 349 586 l 522 586 l 522 621 l 349 621 l 349 761 b 461 914 349 857 388 914 b 564 817 496 914 543 888 z "},"@":{"ha":1256,"x_min":0,"x_max":0,"o":"m 642 -218 b 1015 -86 786 -218 938 -160 l 1006 -74 b 663 -178 917 -135 775 -178 b 160 313 358 -178 160 21 b 685 872 160 618 393 872 b 1097 482 933 872 1097 708 b 889 117 1097 279 1010 117 b 808 207 831 117 808 151 b 817 274 808 226 811 249 l 894 642 l 807 590 b 665 642 774 628 722 642 b 383 363 550 642 415 538 b 376 293 379 339 376 315 b 550 86 376 172 443 86 b 742 222 628 86 700 142 b 876 86 738 144 785 86 b 1182 485 1054 86 1182 261 b 685 907 1182 731 981 907 b 74 313 347 907 74 644 b 642 -218 74 -7 304 -218 z m 463 369 b 668 611 485 492 558 611 b 789 482 749 611 789 554 b 783 436 789 467 786 451 l 760 325 b 576 139 731 189 646 139 b 456 297 500 139 456 201 b 463 369 456 319 457 344 z "},"&":{"ha":1008,"x_min":0,"x_max":0,"o":"m 354 435 l 636 132 b 401 24 574 63 485 24 b 164 254 247 24 164 133 b 304 488 164 340 208 432 z m 74 243 b 367 -19 74 92 175 -19 b 669 97 488 -19 592 21 l 760 0 l 949 0 l 949 19 b 779 103 863 22 819 60 l 725 161 b 849 506 796 249 842 368 l 739 506 b 746 418 743 476 746 447 b 689 199 746 339 728 264 l 428 476 l 390 518 b 610 750 535 565 610 650 b 382 949 610 869 519 949 b 158 744 247 949 158 867 b 283 510 158 658 203 597 b 74 243 154 463 74 381 z m 236 771 b 381 913 236 854 292 913 b 532 744 472 913 532 846 b 371 539 532 661 476 588 b 236 771 263 658 236 700 z "},"¶":{"ha":844,"x_min":0,"x_max":0,"o":"m 371 347 l 426 347 l 426 -235 l 478 -235 l 478 889 l 607 889 l 607 -235 l 657 -235 l 657 797 b 785 908 657 889 701 906 l 785 928 l 371 928 b 60 639 185 928 60 813 b 371 347 60 463 185 347 z "},"§":{"ha":957,"x_min":0,"x_max":0,"o":"m 508 949 b 117 618 254 949 117 828 b 306 283 117 421 238 333 l 449 179 b 613 -44 522 126 613 64 b 419 -196 613 -150 528 -196 b 144 82 263 -196 175 -94 l 124 82 l 114 -131 b 444 -235 211 -199 296 -235 b 856 99 719 -235 856 -101 b 678 410 856 275 749 356 l 515 535 b 357 753 435 597 357 656 b 535 910 357 863 450 910 b 758 647 657 910 735 814 l 781 647 l 790 854 b 508 949 704 925 622 949 z m 192 640 b 403 906 192 785 261 872 b 285 719 338 875 285 815 b 458 464 285 592 376 524 l 615 350 b 781 75 683 300 781 231 b 564 -194 781 -57 704 -160 b 688 -7 633 -162 688 -101 b 508 249 688 126 574 201 l 374 346 b 192 640 290 407 192 472 z "},"©":{"ha":1106,"x_min":0,"x_max":0,"o":"m 551 -19 b 1036 464 818 -19 1036 199 b 551 947 1036 729 818 947 b 69 464 286 947 69 729 b 551 -19 69 199 286 -19 z m 101 463 b 550 915 101 713 303 915 b 1004 463 799 915 1004 713 b 550 13 1004 214 799 13 b 101 463 303 13 101 214 z m 317 465 b 556 197 317 308 414 197 b 757 365 651 197 732 258 l 747 368 b 579 246 721 289 656 246 b 383 476 465 246 383 342 b 561 708 383 622 454 708 b 708 585 638 708 697 664 l 719 585 l 726 686 b 558 731 682 715 619 731 b 317 465 419 731 317 622 z "},"®":{"ha":719,"x_min":0,"x_max":0,"o":"m 358 369 b 650 658 518 369 650 500 b 358 949 650 818 518 949 b 69 658 200 949 69 818 b 358 369 69 500 200 369 z m 90 658 b 358 929 90 807 210 929 b 629 658 507 929 629 807 b 358 390 629 510 507 390 b 90 658 210 390 90 510 z m 218 506 l 349 506 l 349 513 b 308 546 313 514 308 526 l 308 654 l 431 506 l 521 506 l 521 513 b 451 553 499 514 475 525 l 369 649 b 478 731 435 653 478 676 b 353 811 478 789 428 811 l 218 811 l 218 806 b 260 772 247 804 260 797 l 260 546 b 218 513 260 521 247 514 z m 308 663 l 308 799 l 349 799 b 428 731 400 799 428 772 b 349 663 428 690 400 663 z "},"℗":{"ha":719,"x_min":0,"x_max":0,"o":"m 358 369 b 650 658 518 369 650 500 b 358 949 650 818 518 949 b 69 658 200 949 69 818 b 358 369 69 500 200 369 z m 90 658 b 358 929 90 807 210 929 b 629 658 507 929 629 807 b 358 390 629 510 507 390 b 90 658 210 390 90 510 z m 233 507 l 371 507 l 371 513 b 321 550 325 515 321 528 l 321 640 l 369 640 b 490 728 442 640 490 668 b 369 813 490 785 443 813 l 233 813 l 233 807 b 274 769 267 804 274 790 l 274 550 b 233 513 274 529 268 515 z m 321 653 l 321 800 l 360 800 b 440 728 413 800 440 769 b 360 653 440 683 413 653 z "},"™":{"ha":1038,"x_min":0,"x_max":0,"o":"m 256 619 l 256 903 l 286 903 b 390 828 344 903 375 876 l 404 828 l 389 933 b 290 926 358 928 324 926 l 160 926 b 63 933 125 926 92 928 l 46 828 l 60 828 b 163 903 75 879 108 903 l 194 903 l 194 619 b 142 569 194 583 185 574 l 142 556 l 307 556 l 307 569 b 256 619 268 574 256 582 z m 463 557 l 593 557 l 593 571 b 540 610 550 575 540 586 l 540 867 l 697 549 l 706 549 l 863 865 l 863 610 b 811 571 863 586 850 575 l 811 557 l 978 557 l 978 571 b 924 610 938 575 924 585 l 924 867 b 978 915 924 899 940 914 l 978 928 l 868 928 l 722 638 l 578 928 l 463 928 l 463 915 b 515 867 503 913 515 897 l 515 610 b 463 571 515 583 500 575 z "},"°":{"ha":514,"x_min":0,"x_max":0,"o":"m 256 540 b 461 743 368 540 461 633 b 261 947 461 857 371 947 b 53 743 149 947 53 860 b 256 540 53 633 149 540 z m 99 743 b 256 907 99 836 164 907 b 418 743 349 907 418 836 b 256 582 418 650 349 582 b 99 743 164 582 99 650 z "},"|":{"ha":239,"x_min":0,"x_max":0,"o":"m 101 -267 l 138 -267 l 138 1067 l 101 1067 z "},"¦":{"ha":239,"x_min":0,"x_max":0,"o":"m 138 1067 l 101 1067 l 101 510 l 138 510 z m 101 -267 l 138 -267 l 138 290 l 101 290 z "},"†":{"ha":714,"x_min":0,"x_max":0,"o":"m 214 19 l 214 0 l 501 0 l 501 19 b 389 132 432 22 389 38 l 389 626 l 494 626 b 621 500 604 626 619 572 l 640 500 l 640 789 l 621 789 b 494 663 619 717 604 663 l 389 663 l 389 799 b 501 908 389 889 432 906 l 501 928 l 214 928 l 214 908 b 326 799 282 906 326 889 l 326 663 l 219 663 b 93 789 110 663 94 717 l 74 789 l 74 500 l 93 500 b 219 626 94 572 110 626 l 326 626 l 326 132 b 214 19 326 38 282 22 z "},"‡":{"ha":714,"x_min":0,"x_max":0,"o":"m 214 19 l 214 0 l 501 0 l 501 19 b 389 131 432 22 389 38 l 389 238 l 496 238 b 621 111 606 238 619 183 l 640 111 l 640 400 l 621 400 b 496 274 619 328 606 274 l 389 274 l 389 654 l 496 654 b 621 528 606 654 619 600 l 640 528 l 640 817 l 621 817 b 496 690 619 744 606 690 l 389 690 l 389 799 b 501 908 389 889 432 906 l 501 928 l 214 928 l 214 908 b 326 799 282 906 326 889 l 326 690 l 218 690 b 93 817 110 690 94 744 l 74 817 l 74 528 l 93 528 b 218 654 94 600 110 654 l 326 654 l 326 274 l 218 274 b 93 400 110 274 94 328 l 74 400 l 74 111 l 93 111 b 218 238 94 183 110 238 l 326 238 l 326 131 b 214 19 326 38 282 22 z "},"℮":{"ha":1117,"x_min":0,"x_max":0,"o":"m 571 -19 b 956 185 732 -19 872 56 l 917 213 b 571 29 831 92 711 29 b 253 168 428 29 317 99 l 253 460 l 1043 460 b 558 947 1046 735 835 947 b 74 464 286 947 74 738 b 571 -19 74 190 293 -19 z m 253 517 l 253 761 b 558 899 307 826 421 899 b 865 763 696 899 810 825 l 865 517 z "},"№":{"ha":1451,"x_min":0,"x_max":0,"o":"m 1197 497 b 1392 722 1303 497 1392 576 b 1196 949 1392 869 1301 949 b 1003 722 1092 949 1003 869 b 1197 497 1003 576 1092 497 z m 60 908 b 192 817 132 904 192 886 l 192 119 b 86 19 192 25 144 22 l 86 0 l 376 0 l 376 21 b 231 119 292 24 231 25 l 231 799 l 828 -21 l 847 -21 l 847 811 b 951 908 847 899 894 906 l 951 928 l 660 928 l 660 908 b 808 811 746 906 808 899 l 808 153 l 244 928 l 60 928 z m 1014 344 l 1379 344 l 1379 386 l 1014 386 z m 1083 722 b 1197 921 1083 867 1131 921 b 1311 722 1264 921 1311 867 b 1197 525 1311 579 1264 525 b 1083 722 1131 525 1083 579 z "},"¢":{"ha":619,"x_min":0,"x_max":0,"o":"m 510 443 l 529 443 l 533 596 b 351 642 488 625 417 640 l 351 832 l 314 832 l 314 640 b 53 314 161 622 53 490 b 314 -17 53 128 164 -6 l 314 -207 l 351 -207 l 351 -18 b 574 179 468 -11 547 63 l 557 183 b 365 40 526 103 460 40 l 351 40 l 351 607 b 510 443 436 606 499 551 z m 136 324 b 314 604 136 469 210 583 l 314 47 b 136 324 210 75 136 186 z "},"¤":{"ha":900,"x_min":0,"x_max":0,"o":"m 451 32 b 667 122 533 32 610 67 l 800 -11 l 826 15 l 690 151 b 757 347 732 204 757 272 b 701 531 757 415 736 479 l 826 656 l 800 682 l 678 560 b 451 663 622 624 540 663 b 222 560 361 663 279 624 l 100 682 l 74 656 l 200 529 b 143 347 164 478 143 415 b 210 151 143 272 168 204 l 74 15 l 100 -11 l 235 124 b 451 32 290 67 368 32 z m 179 347 b 451 625 179 503 303 625 b 721 347 599 625 721 503 b 451 69 721 190 596 69 b 179 347 303 69 179 192 z "},"$":{"ha":838,"x_min":0,"x_max":0,"o":"m 394 1125 l 394 947 b 135 710 236 938 135 844 b 394 443 135 547 265 493 l 394 21 b 207 213 278 32 207 110 b 211 257 207 226 208 242 l 115 257 b 394 -18 117 106 226 -6 l 394 -207 l 432 -207 l 432 -19 b 736 242 614 -17 736 85 b 432 535 736 425 576 479 l 432 908 b 611 739 544 903 611 833 b 607 696 611 725 610 711 l 703 696 b 432 947 703 836 596 942 l 432 1125 z m 208 740 b 394 908 208 835 282 900 l 394 550 b 208 740 293 590 208 638 z m 432 19 l 432 429 b 653 207 547 385 653 335 b 432 19 653 97 565 22 z "},"€":{"ha":1068,"x_min":0,"x_max":0,"o":"m 82 604 l 82 569 l 226 569 b 218 463 221 536 218 500 b 221 406 218 443 219 424 l 82 406 l 82 371 l 224 371 b 639 -21 257 135 419 -21 b 1008 267 815 -21 958 79 l 990 271 b 676 53 940 133 822 53 b 326 371 506 53 365 163 l 744 371 l 744 406 l 321 406 b 317 488 318 432 317 458 b 321 569 317 515 318 543 l 744 569 l 744 604 l 326 604 b 654 910 360 788 476 910 b 897 697 813 910 908 822 l 992 697 b 654 949 990 842 860 949 b 233 604 446 949 283 815 z "},"₽":{"ha":842,"x_min":0,"x_max":0,"o":"m 532 249 l 274 249 l 274 410 l 431 410 b 782 671 638 410 782 490 b 431 928 782 851 638 928 l 60 928 l 60 908 b 186 797 143 906 186 889 l 186 447 l 32 447 l 32 413 l 186 413 l 186 249 l 32 249 l 32 214 l 186 214 l 186 132 b 60 19 186 38 143 22 l 60 0 l 428 0 l 428 19 b 274 132 317 22 274 38 l 274 214 l 532 214 z m 274 449 l 274 889 l 422 889 b 685 671 594 889 685 799 b 422 449 685 540 596 449 z "},"₹":{"ha":731,"x_min":0,"x_max":0,"o":"m 488 0 l 699 0 l 699 19 b 463 143 632 24 551 54 l 194 411 l 229 411 b 569 656 419 408 561 474 l 661 656 l 661 690 l 569 690 b 419 893 563 794 507 858 l 661 893 l 661 928 l 60 928 l 60 889 l 208 889 b 472 690 375 889 464 818 l 60 690 l 60 656 l 472 656 b 208 450 465 524 378 450 l 60 450 l 60 428 z "},"£":{"ha":856,"x_min":0,"x_max":0,"o":"m 663 456 l 663 492 l 326 492 b 233 726 292 569 233 640 b 443 908 233 831 325 908 b 639 740 553 908 639 833 b 624 653 639 714 633 686 l 722 653 b 728 708 725 674 728 690 b 443 947 728 843 607 947 b 149 682 274 947 149 838 b 217 492 149 606 185 549 l 74 492 l 74 456 l 236 456 b 267 340 253 421 267 383 b 64 19 267 258 208 163 l 79 0 b 251 72 143 50 197 72 b 589 -19 364 72 453 -19 b 810 192 692 -19 785 32 l 793 196 b 638 56 782 118 724 56 b 325 140 538 56 450 140 b 163 88 276 140 228 126 b 351 386 300 204 351 301 b 340 456 351 410 347 433 z "},"¥":{"ha":817,"x_min":0,"x_max":0,"o":"m 639 208 l 432 208 l 432 372 l 639 372 l 639 407 l 432 407 l 432 467 l 699 824 b 840 908 735 872 765 908 l 840 928 l 561 928 l 561 908 b 676 868 639 908 676 893 b 667 844 676 861 674 853 l 415 507 l 206 801 b 178 863 188 825 178 846 b 311 908 178 893 214 908 l 311 928 l -24 928 l -24 908 b 83 831 21 908 40 893 l 346 461 l 346 407 l 140 407 l 140 372 l 346 372 l 346 208 l 140 208 l 140 174 l 346 174 l 346 129 b 221 19 346 36 303 22 l 221 0 l 557 0 l 557 19 b 432 129 475 22 432 36 l 432 174 l 639 174 z "},"+":{"ha":724,"x_min":0,"x_max":0,"o":"m 340 754 l 340 486 l 72 486 l 72 443 l 340 443 l 340 176 l 385 176 l 385 443 l 650 443 l 650 486 l 385 486 l 385 754 z "},"−":{"ha":721,"x_min":0,"x_max":0,"o":"m 71 443 l 649 443 l 649 486 l 71 486 z "},"×":{"ha":664,"x_min":0,"x_max":0,"o":"m 71 694 l 301 465 l 71 235 l 101 206 l 331 435 l 561 204 l 590 235 l 361 465 l 592 696 l 561 725 l 331 494 l 100 725 z "},"÷":{"ha":721,"x_min":0,"x_max":0,"o":"m 365 208 b 428 271 400 208 428 236 b 365 335 428 307 400 335 b 299 271 328 335 299 307 b 365 208 299 236 328 208 z m 71 443 l 649 443 l 649 486 l 71 486 z m 299 661 b 365 599 299 626 328 599 b 428 661 400 599 428 626 b 365 725 428 697 400 725 b 299 661 328 725 299 697 z "},"=":{"ha":721,"x_min":0,"x_max":0,"o":"m 71 583 l 649 583 l 649 626 l 71 626 z m 71 304 l 649 304 l 649 347 l 71 347 z "},"≠":{"ha":756,"x_min":0,"x_max":0,"o":"m 243 164 l 285 164 l 338 304 l 650 304 l 650 347 l 354 347 l 444 583 l 650 583 l 650 626 l 461 626 l 514 765 l 472 765 l 419 626 l 72 626 l 72 583 l 403 583 l 313 347 l 72 347 l 72 304 l 296 304 z "},">":{"ha":721,"x_min":0,"x_max":0,"o":"m 72 217 l 90 178 l 649 444 l 649 486 l 90 753 l 72 713 l 593 465 z "},"<":{"ha":721,"x_min":0,"x_max":0,"o":"m 72 444 l 631 178 l 649 217 l 128 465 l 649 713 l 631 753 l 72 486 z "},"≥":{"ha":721,"x_min":0,"x_max":0,"o":"m 71 0 l 649 0 l 649 43 l 71 43 z m 72 217 l 90 178 l 649 444 l 649 486 l 90 753 l 72 713 l 593 465 z "},"≤":{"ha":721,"x_min":0,"x_max":0,"o":"m 650 0 l 650 43 l 72 43 l 72 0 z m 72 444 l 631 178 l 649 217 l 128 465 l 649 713 l 631 753 l 72 486 z "},"±":{"ha":724,"x_min":0,"x_max":0,"o":"m 340 754 l 340 486 l 72 486 l 72 443 l 340 443 l 340 176 l 385 176 l 385 443 l 650 443 l 650 486 l 385 486 l 385 754 z m 57 0 l 635 0 l 635 43 l 57 43 z "},"≈":{"ha":739,"x_min":0,"x_max":0,"o":"m 668 436 l 624 436 b 535 276 628 343 604 276 b 385 356 493 276 447 310 b 201 446 297 419 256 446 b 71 240 111 446 65 374 l 115 240 b 200 404 111 336 132 404 b 353 325 243 404 283 375 b 536 235 436 264 482 235 b 668 436 626 235 672 311 z m 71 492 l 115 492 b 200 656 111 588 132 656 b 353 576 243 656 283 626 b 536 486 436 515 482 486 b 668 688 626 486 672 563 l 624 688 b 535 528 628 594 604 528 b 385 607 493 528 447 561 b 201 697 297 671 256 697 b 71 492 111 697 65 625 z "},"~":{"ha":739,"x_min":0,"x_max":0,"o":"m 668 563 l 624 563 b 535 403 628 469 604 403 b 385 482 493 403 447 436 b 201 572 297 546 256 572 b 71 367 111 572 65 500 l 115 367 b 200 531 111 463 132 531 b 353 451 243 531 283 501 b 536 361 436 390 482 361 b 668 563 626 361 672 438 z "},"¬":{"ha":814,"x_min":0,"x_max":0,"o":"m 633 481 l 56 481 l 56 438 l 589 438 l 589 174 l 633 174 z "},"^":{"ha":639,"x_min":0,"x_max":0,"o":"m 567 615 l 333 968 l 308 968 l 71 615 l 124 615 l 319 913 l 515 615 z "},"∞":{"ha":986,"x_min":0,"x_max":0,"o":"m 747 674 b 494 500 661 674 599 632 b 244 674 413 599 357 674 b 53 467 122 674 53 590 b 239 261 53 344 122 261 b 493 435 324 261 393 308 b 744 261 576 333 631 261 b 933 467 867 261 933 343 b 747 674 933 592 865 674 z m 96 469 b 239 632 96 574 147 632 b 467 465 328 632 376 579 b 240 301 369 346 318 301 b 96 469 150 301 96 363 z m 521 469 b 747 632 614 586 664 632 b 890 467 836 632 890 574 b 747 301 890 360 836 301 b 521 469 661 301 613 350 z "},"Ω":{"ha":1046,"x_min":0,"x_max":0,"o":"m 458 0 l 458 188 b 172 561 314 188 172 346 b 524 908 172 776 311 908 b 874 561 735 908 874 776 b 589 188 874 346 732 188 l 589 -1 l 710 -1 b 917 -17 781 -1 850 -3 l 953 219 l 936 219 b 717 61 903 104 843 61 l 625 61 l 625 147 b 971 560 818 167 971 340 b 524 949 971 800 790 949 b 75 560 256 949 75 800 b 422 147 75 336 233 167 l 422 63 l 329 63 b 111 221 203 63 144 106 l 93 221 l 131 -15 b 336 0 197 -1 267 0 z "},"∆":{"ha":879,"x_min":0,"x_max":0,"o":"m 60 0 l 819 0 l 819 22 l 449 949 l 429 949 l 60 22 z m 108 39 l 413 808 l 718 39 z "},"∏":{"ha":1040,"x_min":0,"x_max":0,"o":"m 653 19 l 653 0 l 993 0 l 993 19 b 867 132 910 22 867 38 l 867 797 b 993 908 867 889 910 906 l 993 928 l 60 928 l 60 908 b 188 797 143 906 188 889 l 188 132 b 60 19 188 38 143 22 l 60 0 l 400 0 l 400 19 b 274 132 317 22 274 38 l 274 889 l 781 889 l 781 132 b 653 19 781 38 736 22 z "},"∑":{"ha":843,"x_min":0,"x_max":0,"o":"m 551 333 l 551 346 l 193 889 l 515 889 b 725 693 644 889 692 824 l 744 693 l 706 938 b 579 928 667 932 628 928 l 78 928 l 78 908 l 456 340 l 64 -256 l 64 -275 l 601 -275 b 728 -285 650 -275 689 -279 l 767 -40 l 747 -40 b 538 -236 714 -171 667 -236 l 178 -236 z "},"√":{"ha":653,"x_min":0,"x_max":0,"o":"m 265 0 l 286 0 l 607 928 l 571 928 l 292 128 l 160 497 l -8 497 l -8 463 l 97 463 z "},"µ":{"ha":707,"x_min":0,"x_max":0,"o":"m 650 38 b 586 104 604 42 586 61 l 586 642 l 426 603 l 426 583 l 449 582 b 513 517 494 579 513 560 l 513 264 b 324 35 513 99 413 35 b 189 194 249 35 189 81 l 189 642 l 29 603 l 29 583 l 51 582 b 115 517 97 579 115 560 l 115 189 l 115 172 b 113 -274 115 -26 113 -162 l 210 -274 b 133 83 165 -174 138 -83 b 299 -21 163 13 222 -21 b 514 151 396 -21 476 36 l 514 -22 l 671 17 l 671 36 z "},"∂":{"ha":693,"x_min":0,"x_max":0,"o":"m 299 15 b 138 246 196 15 138 90 b 376 607 138 439 225 607 b 539 374 492 607 539 513 b 299 15 539 175 444 15 z m 53 726 l 147 726 b 146 749 146 733 146 742 b 331 914 146 838 214 914 b 561 585 472 914 561 815 b 560 526 561 564 561 544 b 375 642 532 593 475 642 b 54 261 183 642 54 472 b 296 -21 54 78 151 -21 b 647 532 517 -21 647 214 b 331 949 647 896 465 947 b 53 726 174 949 71 850 z "},"%":{"ha":1014,"x_min":0,"x_max":0,"o":"m 260 0 l 793 928 l 754 928 l 222 0 z m 60 693 b 254 438 60 546 142 438 b 449 693 369 438 449 550 b 254 949 449 849 369 949 b 60 693 138 949 60 849 z m 140 693 b 254 921 140 846 183 921 b 368 693 326 921 368 846 b 254 465 368 553 326 465 b 140 693 183 465 140 553 z m 565 236 b 760 -19 565 89 647 -19 b 954 236 875 -19 954 93 b 760 492 954 392 875 492 b 565 236 643 492 565 392 z m 646 236 b 760 464 646 389 689 464 b 874 236 832 464 874 389 b 760 8 874 96 832 8 b 646 236 689 8 646 96 z "},"‰":{"ha":1488,"x_min":0,"x_max":0,"o":"m 260 0 l 793 928 l 754 928 l 222 0 z m 60 693 b 254 438 60 546 142 438 b 449 693 369 438 449 550 b 254 949 449 849 369 949 b 60 693 138 949 60 849 z m 140 693 b 254 921 140 846 183 921 b 368 693 326 921 368 846 b 254 465 368 553 326 465 b 140 693 183 465 140 553 z m 565 236 b 760 -19 565 89 647 -19 b 954 236 875 -19 954 93 b 760 492 954 392 875 492 b 565 236 643 492 565 392 z m 646 236 b 760 464 646 389 689 464 b 874 236 832 464 874 389 b 760 8 874 96 832 8 b 646 236 689 8 646 96 z m 1038 236 b 1232 -19 1038 89 1119 -19 b 1426 236 1347 -19 1426 93 b 1232 492 1426 392 1347 492 b 1038 236 1115 492 1038 392 z m 1118 236 b 1232 464 1118 389 1161 464 b 1346 236 1304 464 1346 389 b 1232 8 1346 96 1304 8 b 1118 236 1161 8 1118 96 z "},"↑":{"ha":713,"x_min":0,"x_max":0,"o":"m 60 490 l 88 464 l 338 717 l 338 -17 l 376 -17 l 376 717 l 625 464 l 653 490 l 367 781 l 347 781 z "},"↗":{"ha":746,"x_min":0,"x_max":0,"o":"m 222 904 l 222 865 l 578 868 l 60 349 l 88 322 l 606 840 l 603 486 l 642 485 l 644 892 l 631 906 z "},"→":{"ha":917,"x_min":0,"x_max":0,"o":"m 567 676 l 540 649 l 793 399 l 60 399 l 60 360 l 793 360 l 540 111 l 567 83 l 857 369 l 857 389 z "},"↘":{"ha":746,"x_min":0,"x_max":0,"o":"m 642 424 l 604 422 l 606 67 l 88 585 l 60 557 l 578 39 l 224 42 l 222 4 l 631 1 l 644 14 z "},"↓":{"ha":713,"x_min":0,"x_max":0,"o":"m 653 269 l 625 296 l 375 43 l 375 776 l 336 776 l 336 43 l 88 296 l 60 269 l 346 -21 l 365 -21 z "},"↙":{"ha":746,"x_min":0,"x_max":0,"o":"m 104 419 l 101 10 l 115 -3 l 524 0 l 522 38 l 168 35 l 686 553 l 658 581 l 140 63 l 142 418 z "},"←":{"ha":917,"x_min":0,"x_max":0,"o":"m 350 676 l 60 389 l 60 369 l 350 83 l 376 111 l 124 360 l 857 360 l 857 399 l 124 399 l 376 649 z "},"↖":{"ha":746,"x_min":0,"x_max":0,"o":"m 525 928 l 115 931 l 103 917 l 106 508 l 143 510 l 140 864 l 658 346 l 686 374 l 168 892 l 524 890 z "},"●":{"ha":1106,"x_min":0,"x_max":0,"o":"m 551 -19 b 69 464 286 -19 69 199 b 551 947 69 729 286 947 b 1036 464 818 947 1036 729 b 551 -19 1036 199 818 -19 z "},"○":{"ha":1106,"x_min":0,"x_max":0,"o":"m 551 -19 b 1036 464 818 -19 1036 199 b 551 947 1036 729 818 947 b 69 464 286 947 69 729 b 551 -19 69 199 286 -19 z m 101 463 b 550 915 101 713 303 915 b 1004 463 799 915 1004 713 b 550 13 1004 214 799 13 b 101 463 303 13 101 214 z "},"◊":{"ha":647,"x_min":0,"x_max":0,"o":"m 308 -21 l 339 -21 l 615 464 l 339 949 l 308 949 l 32 464 z m 72 464 l 324 904 l 575 464 l 324 24 z "},"¨":{"ha":628,"x_min":0,"x_max":0,"o":"m 210 778 b 275 843 246 778 275 807 b 210 911 275 882 246 911 b 139 843 169 911 139 882 b 210 778 139 807 169 778 z m 357 843 b 426 778 357 807 388 778 b 493 843 463 778 493 807 b 426 911 493 882 463 911 b 357 843 388 911 357 882 z "},"˙":{"ha":413,"x_min":0,"x_max":0,"o":"m 208 819 b 274 885 244 819 274 849 b 208 951 274 922 244 951 b 139 885 169 951 139 922 b 208 819 139 849 169 819 z "},"`":{"ha":488,"x_min":0,"x_max":0,"o":"m 329 751 l 349 751 l 254 963 l 138 963 z "},"´":{"ha":488,"x_min":0,"x_max":0,"o":"m 158 751 l 350 963 l 233 963 l 139 751 z "},"˝":{"ha":608,"x_min":0,"x_max":0,"o":"m 157 751 l 313 963 l 224 963 l 139 751 z m 296 751 l 315 751 l 472 963 l 382 963 z "},"ˆ":{"ha":653,"x_min":0,"x_max":0,"o":"m 281 935 l 139 751 l 157 751 l 328 875 l 496 751 l 514 751 l 375 935 z "},"ˇ":{"ha":653,"x_min":0,"x_max":0,"o":"m 281 765 l 375 765 l 514 949 l 496 949 l 328 825 l 157 949 l 139 949 z "},"˘":{"ha":586,"x_min":0,"x_max":0,"o":"m 293 757 b 446 950 392 757 447 821 l 431 950 b 293 819 426 853 369 819 b 157 950 217 819 161 853 l 140 950 b 293 757 139 821 194 757 z "},"˚":{"ha":528,"x_min":0,"x_max":0,"o":"m 264 753 b 389 871 336 753 389 803 b 264 988 389 938 336 988 b 139 871 192 988 139 938 b 264 753 139 803 192 753 z m 172 871 b 264 961 172 924 213 961 b 356 871 317 961 356 924 b 264 781 356 818 317 781 b 172 871 213 781 172 818 z "},"˜":{"ha":629,"x_min":0,"x_max":0,"o":"m 139 824 l 139 796 l 153 796 b 208 868 158 856 178 868 b 410 792 268 868 343 792 b 490 894 467 792 490 828 l 490 922 l 476 922 b 421 850 471 863 451 850 b 221 926 361 850 288 926 b 139 824 164 926 139 890 z "},"¯":{"ha":628,"x_min":0,"x_max":0,"o":"m 139 806 l 489 806 l 489 839 l 139 839 z "},"¸":{"ha":506,"x_min":0,"x_max":0,"o":"m 147 -240 l 139 -251 b 250 -294 174 -282 210 -294 b 367 -193 319 -294 367 -254 b 244 -83 367 -133 319 -99 l 274 1 l 250 1 l 201 -132 b 294 -203 269 -146 294 -168 b 222 -262 294 -242 263 -262 b 147 -240 199 -262 174 -256 z "},"˛":{"ha":531,"x_min":0,"x_max":0,"o":"m 263 -294 b 392 -194 314 -294 367 -254 l 381 -189 b 279 -251 351 -228 311 -251 b 203 -174 236 -251 203 -221 b 324 0 203 -108 256 -39 l 308 0 b 139 -189 208 -33 139 -108 b 263 -294 139 -251 186 -294 z "}}}
